<?xml version="1.0" encoding="UTF-8" ?>
<!DOCTYPE svg PUBLIC "-//W3C//DTD SVG 1.1//EN" "http://www.w3.org/Graphics/SVG/1.1/DTD/svg11.dtd">
<svg width="807pt" height="891pt" viewBox="0 0 807 891" version="1.1" xmlns="http://www.w3.org/2000/svg">
<g id="#f9f9f9ff">
<path fill="#f9f9f9" opacity="1.00" d=" M 609.99 10.97 C 615.41 9.82 620.70 12.08 625.93 13.19 C 630.36 14.03 633.28 17.72 636.46 20.58 C 641.96 26.03 648.15 31.01 652.21 37.72 C 655.96 44.22 660.77 50.02 664.48 56.54 C 680.44 77.75 694.86 100.02 710.56 121.42 C 716.47 130.74 723.43 139.35 729.25 148.73 C 733.27 154.86 738.87 159.86 742.29 166.41 C 744.71 171.16 748.66 174.87 751.50 179.35 C 754.54 183.97 757.91 188.36 761.04 192.92 C 769.44 206.28 779.38 218.59 788.26 231.62 C 790.43 234.83 793.78 238.25 792.56 242.48 C 789.86 244.57 786.63 245.80 783.71 247.53 C 777.69 250.74 772.40 255.16 766.24 258.12 C 760.51 260.81 756.20 265.72 750.36 268.20 C 746.29 269.95 742.48 272.26 739.13 275.15 C 733.94 279.76 726.67 280.84 721.49 285.46 C 715.83 290.50 708.47 292.87 702.36 297.23 C 695.62 302.02 687.94 305.28 681.41 310.38 C 676.78 314.08 670.57 315.12 666.22 319.23 C 663.06 322.24 659.28 324.44 655.24 326.03 C 648.80 328.53 644.25 334.09 637.95 336.86 C 630.40 340.34 623.96 345.72 616.58 349.50 C 613.13 351.26 609.99 353.54 606.95 355.93 C 601.53 360.19 594.52 361.75 589.27 366.27 C 584.14 370.83 577.29 372.62 572.01 376.95 C 567.25 380.80 561.51 383.07 556.36 386.32 C 551.19 389.43 546.36 393.11 540.92 395.76 C 535.15 398.41 530.84 403.38 524.93 405.81 C 517.62 408.74 512.15 414.76 504.90 417.81 C 498.33 420.53 493.50 426.03 487.10 429.04 C 480.47 432.14 474.88 436.98 468.31 440.18 C 464.36 442.06 460.83 444.65 457.42 447.36 C 452.41 451.40 445.70 452.52 440.84 456.80 C 437.17 459.96 432.98 462.43 428.55 464.38 C 422.30 467.18 417.60 472.49 411.25 475.11 C 405.18 477.71 400.47 482.53 394.54 485.37 C 385.43 489.84 377.97 497.45 368.10 500.37 C 361.26 495.58 358.64 486.88 353.47 480.54 C 350.18 476.67 348.29 471.85 345.03 467.96 C 342.36 464.81 340.61 461.04 338.49 457.53 C 319.89 430.13 301.86 402.32 283.30 374.87 C 280.64 370.24 277.96 365.62 274.69 361.38 C 252.76 327.72 229.99 294.62 208.02 261.00 C 197.43 244.11 184.01 228.42 166.58 218.35 C 166.51 217.88 166.38 216.94 166.32 216.47 C 172.74 213.46 179.54 211.29 185.75 207.79 C 202.20 201.03 217.52 191.86 233.99 185.16 C 245.70 179.37 257.62 174.04 269.53 168.69 C 281.12 163.32 292.16 156.78 304.11 152.21 C 323.21 142.80 342.95 134.69 361.81 124.78 C 369.58 120.66 377.93 117.81 385.76 113.82 C 399.47 107.07 413.56 101.14 427.16 94.17 C 436.19 90.27 444.82 85.53 453.99 81.96 C 461.80 77.41 470.53 74.82 478.35 70.29 C 488.04 66.20 497.17 60.92 506.89 56.90 C 523.83 48.71 541.20 41.44 558.00 32.92 C 565.03 29.74 571.67 25.70 578.96 23.06 C 589.03 18.41 598.95 12.94 609.99 10.97 Z" />
</g>
<g id="#7d7d7dff">
<path fill="#7d7d7d" opacity="1.00" d=" M 594.01 5.23 C 604.15 2.66 614.79 -1.75 625.26 2.01 C 632.01 5.01 638.95 8.45 643.75 14.26 C 647.85 19.15 653.51 22.65 656.71 28.30 C 661.17 36.27 667.59 42.87 672.33 50.64 C 679.45 61.78 688.18 71.80 694.86 83.21 C 698.43 88.87 703.34 93.58 706.42 99.57 C 709.63 105.80 715.63 109.95 718.86 116.17 C 722.56 122.97 727.56 128.92 731.44 135.61 C 735.15 143.22 740.82 149.58 745.43 156.63 C 752.52 165.96 758.56 176.04 765.80 185.26 C 770.33 190.88 773.31 197.57 778.03 203.03 C 782.38 208.10 785.67 213.95 789.97 219.05 C 793.85 223.68 796.19 229.36 800.09 233.97 C 801.86 236.27 803.98 238.44 805.00 241.21 C 805.66 246.29 804.01 251.31 803.78 256.37 C 803.26 265.94 801.08 275.38 801.42 285.00 C 801.82 302.00 796.96 318.65 797.80 335.65 C 795.99 351.60 796.23 367.75 793.94 383.67 C 793.01 394.94 792.89 406.28 791.78 417.54 C 790.64 425.64 789.52 433.76 789.47 441.96 C 789.24 456.33 788.17 470.68 786.00 484.89 C 785.31 498.10 784.67 511.33 783.89 524.54 C 782.52 536.74 781.67 548.99 780.70 561.23 C 780.11 568.11 781.02 575.18 779.19 581.92 C 778.39 585.14 775.90 587.56 773.20 589.31 C 760.22 597.77 748.60 608.08 735.94 616.99 C 728.10 622.47 721.03 628.96 713.04 634.25 C 704.81 640.66 696.08 646.41 688.16 653.21 C 673.96 663.29 660.41 674.22 646.28 684.37 C 640.08 689.53 633.23 693.84 627.01 698.99 C 617.36 706.73 606.70 713.19 597.54 721.55 C 593.34 725.16 588.23 727.46 583.86 730.84 C 568.77 742.86 553.06 754.08 537.77 765.84 C 525.21 775.28 512.63 784.70 499.98 794.02 C 495.94 797.40 491.93 800.84 487.43 803.61 C 481.52 807.22 476.56 812.10 470.84 815.98 C 463.22 820.87 456.78 827.35 449.11 832.20 C 440.53 839.00 431.25 844.85 422.81 851.84 C 413.51 859.27 403.54 865.80 394.29 873.30 C 388.56 877.20 383.15 881.52 377.73 885.84 C 374.72 887.88 371.04 890.61 367.24 889.08 C 362.63 887.30 358.92 883.93 354.86 881.24 C 349.50 877.41 343.40 874.80 337.94 871.13 C 334.44 868.79 330.73 866.80 326.94 864.98 C 314.81 856.93 301.61 850.65 289.63 842.34 C 281.77 836.62 272.96 832.45 264.77 827.25 C 256.68 822.80 249.78 816.50 241.43 812.49 C 233.14 807.08 224.36 802.46 216.39 796.58 C 211.01 792.78 204.69 790.56 199.54 786.42 C 194.37 782.28 187.71 780.65 182.63 776.38 C 177.82 772.33 171.98 769.83 166.94 766.11 C 163.02 763.25 158.93 760.63 154.65 758.36 C 141.14 751.21 129.29 741.35 115.69 734.36 C 107.27 730.02 100.21 723.57 91.87 719.10 C 83.33 714.56 75.29 709.17 67.32 703.72 C 55.81 695.68 42.88 689.81 31.84 681.09 C 27.72 678.05 28.64 672.43 27.99 668.00 C 26.26 654.70 27.10 641.22 25.05 627.94 C 23.07 615.11 23.13 602.11 21.88 589.22 C 20.99 577.92 20.38 566.59 18.93 555.34 C 18.18 549.59 18.43 543.78 18.24 538.00 C 18.02 530.93 15.97 524.08 15.84 517.01 C 15.67 509.33 14.70 501.71 14.00 494.07 C 13.19 485.68 13.36 477.22 12.47 468.83 C 10.68 452.25 9.79 435.59 8.58 418.97 C 8.09 413.95 6.25 409.13 6.27 404.05 C 6.18 395.34 6.52 386.56 5.05 377.93 C 3.62 369.69 4.28 361.29 3.17 353.02 C 1.68 342.83 1.57 332.50 1.10 322.24 C 3.51 319.20 7.15 317.53 10.16 315.19 C 15.91 310.89 22.22 307.37 27.77 302.80 C 34.34 297.28 41.48 292.52 48.35 287.39 C 55.43 282.53 61.66 276.54 68.93 271.94 C 75.12 267.92 80.29 262.56 86.41 258.44 C 93.73 253.51 100.04 247.18 107.68 242.70 C 114.54 238.76 120.22 233.18 126.77 228.77 C 137.80 219.90 150.23 212.89 163.20 207.29 C 169.69 204.51 175.45 200.20 182.24 198.13 C 192.41 194.97 201.36 189.05 211.18 185.08 C 218.28 182.16 224.77 177.99 231.75 174.81 C 238.57 171.52 245.80 169.13 252.44 165.45 C 257.99 162.40 264.23 160.90 269.79 157.86 C 274.37 155.40 278.94 152.89 283.69 150.76 C 294.28 146.12 304.31 140.29 315.12 136.14 C 320.74 134.01 325.97 131.02 331.38 128.44 C 338.57 125.41 345.79 122.45 352.56 118.54 C 364.77 112.71 376.78 106.41 389.39 101.47 C 393.32 99.92 397.03 97.89 400.75 95.90 C 406.53 92.78 413.03 91.16 418.58 87.58 C 425.86 82.69 434.51 80.54 442.06 76.12 C 457.12 69.68 472.08 62.96 486.74 55.64 C 493.85 51.51 501.64 48.79 508.88 44.92 C 512.44 43.04 516.15 41.46 519.89 39.94 C 525.25 37.78 530.15 34.63 535.57 32.60 C 540.10 30.91 544.57 29.04 548.81 26.71 C 555.51 22.98 562.71 20.24 569.39 16.46 C 574.67 13.50 580.50 11.73 585.84 8.89 C 588.48 7.51 591.14 6.11 594.01 5.23 M 608.48 7.77 C 601.49 9.59 594.75 12.35 588.32 15.63 C 583.12 18.12 577.67 20.09 572.48 22.59 C 556.95 30.66 541.04 37.94 525.15 45.26 C 497.65 57.11 471.55 72.04 443.63 82.90 C 430.43 89.31 417.48 96.24 404.00 102.06 C 398.82 104.67 393.66 107.33 388.23 109.38 C 382.86 112.11 377.34 114.53 371.76 116.81 C 359.62 122.64 347.82 129.21 335.36 134.37 C 329.99 136.66 325.06 139.92 319.48 141.70 C 315.40 142.92 311.76 145.14 307.94 146.96 C 291.35 154.13 275.74 163.38 259.03 170.31 C 247.91 174.98 237.18 180.53 226.09 185.27 C 220.66 187.69 215.70 191.03 210.15 193.18 C 203.17 196.04 196.72 199.99 189.77 202.92 C 182.46 205.79 175.47 209.37 168.18 212.30 C 165.42 213.84 160.45 215.23 161.50 219.33 C 165.95 221.62 171.04 222.75 174.91 226.10 C 182.03 231.93 189.19 237.91 194.65 245.40 C 206.55 260.49 216.05 277.25 227.07 292.94 C 236.77 308.19 247.38 322.83 256.95 338.16 C 264.01 348.77 271.27 359.22 278.27 369.86 C 281.26 375.95 285.72 381.10 289.22 386.87 C 295.32 396.07 301.61 405.14 307.63 414.39 C 311.67 419.23 313.75 425.34 317.89 430.10 C 320.84 433.62 322.42 438.06 325.42 441.54 C 328.89 445.57 331.12 450.46 334.35 454.66 C 345.34 470.90 355.63 487.62 367.25 503.43 C 372.96 500.52 378.88 497.87 383.97 493.92 C 387.25 491.38 390.94 489.47 394.56 487.48 C 400.57 484.25 405.89 479.90 411.98 476.83 C 418.05 473.76 423.09 469.01 429.30 466.19 C 436.59 462.83 442.22 456.78 449.61 453.61 C 456.39 450.77 461.78 445.61 468.29 442.28 C 475.22 438.66 481.54 434.02 488.37 430.23 C 494.09 427.03 499.01 422.51 505.06 419.88 C 509.03 418.15 512.60 415.69 515.98 413.01 C 520.80 409.16 526.90 407.46 531.84 403.80 C 538.65 398.73 546.24 394.85 553.36 390.25 C 560.01 385.86 567.37 382.59 573.62 377.58 C 577.71 374.31 583.11 373.37 587.21 370.12 C 589.31 368.56 591.30 366.82 593.51 365.39 C 597.80 362.54 602.85 361.02 607.02 357.94 C 613.20 353.28 620.19 349.86 626.57 345.49 C 633.88 341.20 641.42 337.24 648.15 332.04 C 653.33 327.95 660.02 326.42 665.04 322.06 C 670.69 317.27 678.12 315.44 683.88 310.83 C 687.11 308.29 690.63 306.13 694.24 304.16 C 701.49 300.18 708.25 295.36 715.57 291.50 C 720.75 288.82 724.83 284.37 730.30 282.19 C 734.39 280.61 737.87 277.93 741.33 275.30 C 746.21 271.57 752.36 269.98 757.22 266.19 C 763.65 260.98 771.39 257.78 778.12 253.00 C 783.28 249.49 789.31 247.24 793.97 243.04 C 796.71 238.59 792.53 234.33 789.96 230.97 C 782.50 220.17 775.08 209.32 767.07 198.92 C 760.56 187.97 752.26 178.23 745.55 167.41 C 740.93 160.41 735.62 153.88 731.14 146.78 C 727.73 141.28 723.82 136.13 720.05 130.88 C 709.55 117.56 701.27 102.66 690.54 89.49 C 686.05 84.38 683.37 78.04 679.26 72.66 C 674.86 67.02 671.29 60.80 666.64 55.35 C 658.35 44.93 652.42 32.58 642.46 23.54 C 637.68 18.72 632.76 13.76 626.74 10.51 C 620.98 8.31 614.67 6.51 608.48 7.77 M 791.43 253.36 C 782.34 258.52 773.53 264.13 764.62 269.58 C 758.38 274.74 750.34 276.93 744.11 282.11 C 739.40 286.05 733.43 287.88 728.46 291.39 C 715.20 300.75 700.52 307.87 687.20 317.14 C 683.81 319.58 680.08 321.47 676.36 323.33 C 670.48 326.19 665.67 330.79 659.76 333.61 C 653.54 336.49 648.43 341.16 642.42 344.39 C 634.54 348.73 627.06 353.74 619.25 358.19 C 615.07 360.55 611.45 363.78 607.20 366.03 C 604.14 367.68 600.89 368.99 597.96 370.87 C 594.50 373.02 591.48 375.83 587.89 377.76 C 585.04 379.28 582.06 380.57 579.38 382.38 C 565.61 392.26 550.12 399.43 536.38 409.35 C 533.40 411.54 530.04 413.10 526.73 414.71 C 520.39 417.72 515.42 422.93 509.06 425.90 C 503.51 428.50 498.53 432.06 493.44 435.43 C 486.69 439.31 480.20 443.64 473.43 447.49 C 466.14 451.35 459.80 456.78 452.29 460.24 C 445.64 463.24 440.51 468.68 433.92 471.77 C 427.50 474.76 422.08 479.40 415.87 482.76 C 409.66 486.13 404.02 490.46 397.72 493.67 C 391.86 496.62 387.07 501.29 381.11 504.04 C 377.42 505.94 373.34 507.37 370.37 510.37 C 369.80 514.30 370.46 518.27 370.61 522.22 C 371.27 539.52 370.03 556.86 371.42 574.14 C 371.39 589.10 371.21 604.08 371.41 619.04 C 373.10 636.84 371.73 654.73 372.54 672.57 C 373.49 692.02 371.93 711.53 373.60 730.95 C 373.73 747.63 373.59 764.31 373.64 781.00 C 373.49 811.34 374.01 841.70 373.72 872.04 C 373.76 873.64 373.96 875.79 375.88 876.25 C 382.37 871.24 389.40 866.97 395.65 861.64 C 400.60 857.56 406.04 854.09 410.69 849.66 C 413.48 847.05 416.72 845.01 419.87 842.87 C 423.60 840.34 426.56 836.87 430.27 834.32 C 434.95 831.01 439.74 827.83 444.09 824.08 C 448.97 819.90 454.48 816.53 459.39 812.38 C 464.71 807.97 470.69 804.45 475.99 800.01 C 482.40 794.68 489.54 790.31 495.97 784.99 C 500.75 781.04 506.18 777.94 510.85 773.83 C 515.89 769.46 521.75 766.18 526.78 761.79 C 532.91 756.88 539.65 752.79 545.55 747.57 C 562.51 735.65 578.71 722.70 595.41 710.42 C 598.80 708.04 602.80 706.67 606.05 704.07 C 615.70 696.32 625.54 688.81 635.51 681.47 C 641.52 677.60 646.51 672.40 652.35 668.31 C 659.88 663.29 666.59 657.19 674.12 652.18 C 679.56 647.52 685.55 643.58 691.39 639.44 C 698.01 633.98 705.28 629.38 711.89 623.91 C 730.32 609.96 749.29 596.73 767.70 582.77 C 768.99 581.73 770.42 580.77 771.38 579.39 C 772.72 573.01 771.87 566.42 772.42 559.96 C 772.86 548.59 775.37 537.40 775.44 526.01 C 776.70 510.02 776.44 493.89 779.05 478.03 C 779.20 468.99 780.94 460.06 780.73 451.01 C 780.80 440.59 783.00 430.34 783.35 419.95 C 783.58 413.95 784.56 408.00 784.36 401.99 C 784.03 394.27 785.80 386.69 786.12 379.00 C 786.61 369.30 788.21 359.69 788.35 349.97 C 788.70 334.58 790.67 319.31 792.01 304.00 C 792.47 291.96 793.37 279.96 794.36 267.96 C 794.62 262.64 796.16 257.42 795.83 252.09 C 794.32 251.27 792.81 252.87 791.43 253.36 Z" />
</g>
<g id="#c3c3c3ff">
<path fill="#c3c3c3" opacity="1.00" d=" M 608.48 7.77 C 614.67 6.51 620.98 8.31 626.74 10.51 C 632.76 13.76 637.68 18.72 642.46 23.54 C 652.42 32.58 658.35 44.93 666.64 55.35 C 671.29 60.80 674.86 67.02 679.26 72.66 C 683.37 78.04 686.05 84.38 690.54 89.49 C 701.27 102.66 709.55 117.56 720.05 130.88 C 723.82 136.13 727.73 141.28 731.14 146.78 C 735.62 153.88 740.93 160.41 745.55 167.41 C 752.26 178.23 760.56 187.97 767.07 198.92 C 775.08 209.32 782.50 220.17 789.96 230.97 C 792.53 234.33 796.71 238.59 793.97 243.04 C 789.31 247.24 783.28 249.49 778.12 253.00 C 771.39 257.78 763.65 260.98 757.22 266.19 C 752.36 269.98 746.21 271.57 741.33 275.30 C 737.87 277.93 734.39 280.61 730.30 282.19 C 724.83 284.37 720.75 288.82 715.57 291.50 C 708.25 295.36 701.49 300.18 694.24 304.16 C 690.63 306.13 687.11 308.29 683.88 310.83 C 678.12 315.44 670.69 317.27 665.04 322.06 C 660.02 326.42 653.33 327.95 648.15 332.04 C 641.42 337.24 633.88 341.20 626.57 345.49 C 620.19 349.86 613.20 353.28 607.02 357.94 C 602.85 361.02 597.80 362.54 593.51 365.39 C 591.30 366.82 589.31 368.56 587.21 370.12 C 583.11 373.37 577.71 374.31 573.62 377.58 C 567.37 382.59 560.01 385.86 553.36 390.25 C 546.24 394.85 538.65 398.73 531.84 403.80 C 526.90 407.46 520.80 409.16 515.98 413.01 C 512.60 415.69 509.03 418.15 505.06 419.88 C 499.01 422.51 494.09 427.03 488.37 430.23 C 481.54 434.02 475.22 438.66 468.29 442.28 C 461.78 445.61 456.39 450.77 449.61 453.61 C 442.22 456.78 436.59 462.83 429.30 466.19 C 423.09 469.01 418.05 473.76 411.98 476.83 C 405.89 479.90 400.57 484.25 394.56 487.48 C 390.94 489.47 387.25 491.38 383.97 493.92 C 378.88 497.87 372.96 500.52 367.25 503.43 C 355.63 487.62 345.34 470.90 334.35 454.66 C 331.12 450.46 328.89 445.57 325.42 441.54 C 322.42 438.06 320.84 433.62 317.89 430.10 C 313.75 425.34 311.67 419.23 307.63 414.39 C 301.61 405.14 295.32 396.07 289.22 386.87 C 285.72 381.10 281.26 375.95 278.27 369.86 C 271.27 359.22 264.01 348.77 256.95 338.16 C 247.38 322.83 236.77 308.19 227.07 292.94 C 216.05 277.25 206.55 260.49 194.65 245.40 C 189.19 237.91 182.03 231.93 174.91 226.10 C 171.04 222.75 165.95 221.62 161.50 219.33 C 160.45 215.23 165.42 213.84 168.18 212.30 C 175.47 209.37 182.46 205.79 189.77 202.92 C 196.72 199.99 203.17 196.04 210.15 193.18 C 215.70 191.03 220.66 187.69 226.09 185.27 C 237.18 180.53 247.91 174.98 259.03 170.31 C 275.74 163.38 291.35 154.13 307.94 146.96 C 311.76 145.14 315.40 142.92 319.48 141.70 C 325.06 139.92 329.99 136.66 335.36 134.37 C 347.82 129.21 359.62 122.64 371.76 116.81 C 377.34 114.53 382.86 112.11 388.23 109.38 C 393.66 107.33 398.82 104.67 404.00 102.06 C 417.48 96.24 430.43 89.31 443.63 82.90 C 471.55 72.04 497.65 57.11 525.15 45.26 C 541.04 37.94 556.95 30.66 572.48 22.59 C 577.67 20.09 583.12 18.12 588.32 15.63 C 594.75 12.35 601.49 9.59 608.48 7.77 M 609.99 10.97 C 598.95 12.94 589.03 18.41 578.96 23.06 C 571.67 25.70 565.03 29.74 558.00 32.92 C 541.20 41.44 523.83 48.71 506.89 56.90 C 497.17 60.92 488.04 66.20 478.35 70.29 C 470.53 74.82 461.80 77.41 453.99 81.96 C 444.82 85.53 436.19 90.27 427.16 94.17 C 413.56 101.14 399.47 107.07 385.76 113.82 C 377.93 117.81 369.58 120.66 361.81 124.78 C 342.95 134.69 323.21 142.80 304.11 152.21 C 292.16 156.78 281.12 163.32 269.53 168.69 C 257.62 174.04 245.70 179.37 233.99 185.16 C 217.52 191.86 202.20 201.03 185.75 207.79 C 179.54 211.29 172.74 213.46 166.32 216.47 C 166.38 216.94 166.51 217.88 166.58 218.35 C 184.01 228.42 197.43 244.11 208.02 261.00 C 229.99 294.62 252.76 327.72 274.69 361.38 C 277.96 365.62 280.64 370.24 283.30 374.87 C 301.86 402.32 319.89 430.13 338.49 457.53 C 340.61 461.04 342.36 464.81 345.03 467.96 C 348.29 471.85 350.18 476.67 353.47 480.54 C 358.64 486.88 361.26 495.58 368.10 500.37 C 377.97 497.45 385.43 489.84 394.54 485.37 C 400.47 482.53 405.18 477.71 411.25 475.11 C 417.60 472.49 422.30 467.18 428.55 464.38 C 432.98 462.43 437.17 459.96 440.84 456.80 C 445.70 452.52 452.41 451.40 457.42 447.36 C 460.83 444.65 464.36 442.06 468.31 440.18 C 474.88 436.98 480.47 432.14 487.10 429.04 C 493.50 426.03 498.33 420.53 504.90 417.81 C 512.15 414.76 517.62 408.74 524.93 405.81 C 530.84 403.38 535.15 398.41 540.92 395.76 C 546.36 393.11 551.19 389.43 556.36 386.32 C 561.51 383.07 567.25 380.80 572.01 376.95 C 577.29 372.62 584.14 370.83 589.27 366.27 C 594.52 361.75 601.53 360.19 606.95 355.93 C 609.99 353.54 613.13 351.26 616.58 349.50 C 623.96 345.72 630.40 340.34 637.95 336.86 C 644.25 334.09 648.80 328.53 655.24 326.03 C 659.28 324.44 663.06 322.24 666.22 319.23 C 670.57 315.12 676.78 314.08 681.41 310.38 C 687.94 305.28 695.62 302.02 702.36 297.23 C 708.47 292.87 715.83 290.50 721.49 285.46 C 726.67 280.84 733.94 279.76 739.13 275.15 C 742.48 272.26 746.29 269.95 750.36 268.20 C 756.20 265.72 760.51 260.81 766.24 258.12 C 772.40 255.16 777.69 250.74 783.71 247.53 C 786.63 245.80 789.86 244.57 792.56 242.48 C 793.78 238.25 790.43 234.83 788.26 231.62 C 779.38 218.59 769.44 206.28 761.04 192.92 C 757.91 188.36 754.54 183.97 751.50 179.35 C 748.66 174.87 744.71 171.16 742.29 166.41 C 738.87 159.86 733.27 154.86 729.25 148.73 C 723.43 139.35 716.47 130.74 710.56 121.42 C 694.86 100.02 680.44 77.75 664.48 56.54 C 660.77 50.02 655.96 44.22 652.21 37.72 C 648.15 31.01 641.96 26.03 636.46 20.58 C 633.28 17.72 630.36 14.03 625.93 13.19 C 620.70 12.08 615.41 9.82 609.99 10.97 Z" />
<path fill="#c3c3c3" opacity="1.00" d=" M 731.44 135.61 C 738.39 143.53 743.52 152.80 749.98 161.08 C 756.21 168.96 761.01 177.85 767.36 185.64 C 772.76 192.10 776.24 199.88 781.76 206.26 C 786.29 213.36 792.74 219.09 796.53 226.68 C 798.77 231.18 802.45 234.71 805.11 238.95 C 806.86 241.62 806.32 244.93 806.10 247.93 C 805.57 252.62 805.30 257.34 804.95 262.05 C 804.49 268.52 802.74 274.83 802.50 281.32 C 802.30 295.58 801.52 309.87 799.45 323.99 C 798.96 330.34 799.42 336.77 798.18 343.06 C 796.40 353.21 798.10 363.56 796.72 373.74 C 795.17 384.75 793.73 395.85 794.00 406.99 C 794.17 414.72 792.28 422.29 791.83 429.98 C 790.65 442.03 789.70 454.12 789.68 466.23 C 789.67 473.61 787.45 480.77 787.41 488.16 C 787.51 496.80 785.67 505.29 785.30 513.89 C 785.51 526.98 784.09 540.03 782.57 553.02 C 781.64 561.64 781.72 570.34 780.84 578.97 C 780.51 582.24 779.54 585.70 776.90 587.88 C 772.66 591.42 767.58 593.79 763.38 597.40 C 757.94 602.01 752.15 606.19 746.57 610.63 C 739.79 616.25 732.05 620.60 725.57 626.61 C 718.76 631.79 711.89 636.90 705.06 642.05 C 697.42 646.61 691.79 653.76 683.94 658.00 C 676.49 663.49 668.69 668.60 661.95 674.97 C 657.63 678.88 652.06 680.99 647.63 684.75 C 644.35 687.48 640.93 690.04 637.42 692.46 C 632.70 695.69 629.02 700.22 624.09 703.18 C 620.82 705.17 617.54 707.18 614.59 709.64 C 609.51 713.90 603.89 717.49 599.15 722.15 C 594.69 726.64 588.54 728.70 583.66 732.62 C 580.31 735.27 577.10 738.10 573.61 740.57 C 566.60 745.55 560.16 751.28 552.91 755.92 C 544.67 761.98 536.58 768.25 528.64 774.70 C 523.73 778.49 518.17 781.39 513.48 785.49 C 508.28 790.06 502.04 793.28 497.01 798.07 C 491.84 803.09 485.08 805.97 479.71 810.74 C 474.35 815.46 468.10 819.03 462.89 823.94 C 458.17 828.43 452.05 830.97 447.05 835.10 C 443.57 837.97 440.02 840.76 436.23 843.20 C 430.96 846.54 426.77 851.28 421.49 854.60 C 416.20 857.86 411.62 862.11 406.37 865.44 C 400.75 869.07 396.00 873.87 390.39 877.54 C 383.77 881.94 378.19 887.96 370.71 891.00 L 367.52 891.00 C 361.63 887.48 356.18 883.28 350.33 879.71 C 342.43 874.97 334.02 870.97 326.94 864.98 C 330.73 866.80 334.44 868.79 337.94 871.13 C 343.40 874.80 349.50 877.41 354.86 881.24 C 358.92 883.93 362.63 887.30 367.24 889.08 C 371.04 890.61 374.72 887.88 377.73 885.84 C 383.15 881.52 388.56 877.20 394.29 873.30 C 403.54 865.80 413.51 859.27 422.81 851.84 C 431.25 844.85 440.53 839.00 449.11 832.20 C 456.78 827.35 463.22 820.87 470.84 815.98 C 476.56 812.10 481.52 807.22 487.43 803.61 C 491.93 800.84 495.94 797.40 499.98 794.02 C 512.63 784.70 525.21 775.28 537.77 765.84 C 553.06 754.08 568.77 742.86 583.86 730.84 C 588.23 727.46 593.34 725.16 597.54 721.55 C 606.70 713.19 617.36 706.73 627.01 698.99 C 633.23 693.84 640.08 689.53 646.28 684.37 C 660.41 674.22 673.96 663.29 688.16 653.21 C 696.08 646.41 704.81 640.66 713.04 634.25 C 721.03 628.96 728.10 622.47 735.94 616.99 C 748.60 608.08 760.22 597.77 773.20 589.31 C 775.90 587.56 778.39 585.14 779.19 581.92 C 781.02 575.18 780.11 568.11 780.70 561.23 C 781.67 548.99 782.52 536.74 783.89 524.54 C 784.67 511.33 785.31 498.10 786.00 484.89 C 788.17 470.68 789.24 456.33 789.47 441.96 C 789.52 433.76 790.64 425.64 791.78 417.54 C 792.89 406.28 793.01 394.94 793.94 383.67 C 796.23 367.75 795.99 351.60 797.80 335.65 C 796.96 318.65 801.82 302.00 801.42 285.00 C 801.08 275.38 803.26 265.94 803.78 256.37 C 804.01 251.31 805.66 246.29 805.00 241.21 C 803.98 238.44 801.86 236.27 800.09 233.97 C 796.19 229.36 793.85 223.68 789.97 219.05 C 785.67 213.95 782.38 208.10 778.03 203.03 C 773.31 197.57 770.33 190.88 765.80 185.26 C 758.56 176.04 752.52 165.96 745.43 156.63 C 740.82 149.58 735.15 143.22 731.44 135.61 Z" />
<path fill="#c3c3c3" opacity="1.00" d=" M 791.43 253.36 C 792.81 252.87 794.32 251.27 795.83 252.09 C 796.16 257.42 794.62 262.64 794.36 267.96 C 793.37 279.96 792.47 291.96 792.01 304.00 C 790.67 319.31 788.70 334.58 788.35 349.97 C 788.21 359.69 786.61 369.30 786.12 379.00 C 785.80 386.69 784.03 394.27 784.36 401.99 C 784.56 408.00 783.58 413.95 783.35 419.95 C 783.00 430.34 780.80 440.59 780.73 451.01 C 780.94 460.06 779.20 468.99 779.05 478.03 C 776.44 493.89 776.70 510.02 775.44 526.01 C 775.37 537.40 772.86 548.59 772.42 559.96 C 771.87 566.42 772.72 573.01 771.38 579.39 C 770.42 580.77 768.99 581.73 767.70 582.77 C 749.29 596.73 730.32 609.96 711.89 623.91 C 705.28 629.38 698.01 633.98 691.39 639.44 C 685.55 643.58 679.56 647.52 674.12 652.18 C 666.59 657.19 659.88 663.29 652.35 668.31 C 646.51 672.40 641.52 677.60 635.51 681.47 C 625.54 688.81 615.70 696.32 606.05 704.07 C 602.80 706.67 598.80 708.04 595.41 710.42 C 578.71 722.70 562.51 735.65 545.55 747.57 C 539.65 752.79 532.91 756.88 526.78 761.79 C 521.75 766.18 515.89 769.46 510.85 773.83 C 506.18 777.94 500.75 781.04 495.97 784.99 C 489.54 790.31 482.40 794.68 475.99 800.01 C 470.69 804.45 464.71 807.97 459.39 812.38 C 454.48 816.53 448.97 819.90 444.09 824.08 C 439.74 827.83 434.95 831.01 430.27 834.32 C 426.56 836.87 423.60 840.34 419.87 842.87 C 416.72 845.01 413.48 847.05 410.69 849.66 C 406.04 854.09 400.60 857.56 395.65 861.64 C 389.40 866.97 382.37 871.24 375.88 876.25 C 373.96 875.79 373.76 873.64 373.72 872.04 C 374.01 841.70 373.49 811.34 373.64 781.00 C 373.59 764.31 373.73 747.63 373.60 730.95 C 371.93 711.53 373.49 692.02 372.54 672.57 C 371.73 654.73 373.10 636.84 371.41 619.04 C 371.21 604.08 371.39 589.10 371.42 574.14 C 370.03 556.86 371.27 539.52 370.61 522.22 C 370.46 518.27 369.80 514.30 370.37 510.37 C 373.34 507.37 377.42 505.94 381.11 504.04 C 387.07 501.29 391.86 496.62 397.72 493.67 C 404.02 490.46 409.66 486.13 415.87 482.76 C 422.08 479.40 427.50 474.76 433.92 471.77 C 440.51 468.68 445.64 463.24 452.29 460.24 C 459.80 456.78 466.14 451.35 473.43 447.49 C 480.20 443.64 486.69 439.31 493.44 435.43 C 498.53 432.06 503.51 428.50 509.06 425.90 C 515.42 422.93 520.39 417.72 526.73 414.71 C 530.04 413.10 533.40 411.54 536.38 409.35 C 550.12 399.43 565.61 392.26 579.38 382.38 C 582.06 380.57 585.04 379.28 587.89 377.76 C 591.48 375.83 594.50 373.02 597.96 370.87 C 600.89 368.99 604.14 367.68 607.20 366.03 C 611.45 363.78 615.07 360.55 619.25 358.19 C 627.06 353.74 634.54 348.73 642.42 344.39 C 648.43 341.16 653.54 336.49 659.76 333.61 C 665.67 330.79 670.48 326.19 676.36 323.33 C 680.08 321.47 683.81 319.58 687.20 317.14 C 700.52 307.87 715.20 300.75 728.46 291.39 C 733.43 287.88 739.40 286.05 744.11 282.11 C 750.34 276.93 758.38 274.74 764.62 269.58 C 773.53 264.13 782.34 258.52 791.43 253.36 Z" />
</g>
</svg>
