<svg width="623" height="811" viewBox="0 0 623 811" fill="none" xmlns="http://www.w3.org/2000/svg">
<path d="M445.44 1.78001C453.23 0.800011 461.16 -0.0599894 468.99 0.950011C475.2 1.58001 481.63 1.24001 487.53 3.59001C494.2 6.22001 501.14 8.25001 507.5 11.57C513.06 15.31 518.91 18.66 524.19 22.81C531.23 29.07 538.27 35.43 544.39 42.59C549.08 49.18 554.34 55.36 558.88 62.04C562.42 68.71 566.52 75.05 570.35 81.55C574.67 91.48 579.43 101.23 583.69 111.2C586.78 118.35 588.68 125.95 591.89 133.05C595.41 140.95 596.66 149.57 599.41 157.72C602.99 168.94 605.22 180.52 607.9 191.98C610.55 202.49 611.97 213.27 613.47 224C612.63 221.78 611.66 219.62 610.73 217.44C610.45 218.97 610.16 220.5 609.93 222.04C607.9 212.96 607.17 203.6 604.28 194.72C601.49 180.1 597.91 165.62 593.51 151.4C590.61 139.14 585.23 127.69 581.03 115.85C577.95 107 573.57 98.69 569.76 90.15C566.26 81.32 560.6 73.63 555.83 65.48C552.55 59.8 548.24 54.82 544.49 49.46C539.6 42.46 532.7 37.29 526.99 31.02C521.84 25.22 514.92 21.59 508.61 17.28C505.59 15.22 502.34 13.53 498.93 12.24C492.11 9.67001 485.44 6.30001 478.05 5.75001C470.05 5.20001 462.01 5.24001 453.99 5.40001C449.23 5.38001 444.64 6.80001 440.21 8.39001C436.78 9.48001 433.37 10.61 429.99 11.84C424.06 13.6 418.7 16.72 413.52 20.03C409.13 22.67 404.93 25.62 400.79 28.65C393.19 33.14 387.53 40.08 380.85 45.72C377.79 48.04 375.07 50.77 372.76 53.84C367.95 59.97 362.03 65.17 357.51 71.54C356.61 72.72 355.68 73.87 354.76 75.04C347.49 85.55 339.2 95.52 334.02 107.32C324.91 120.36 317.76 134.64 310.95 148.98C305.6 159.29 301.05 170 297 180.87C289.41 195.47 285.43 211.49 279.64 226.81C276.03 236.31 274.09 246.33 270.9 255.98C265.27 272.95 262.3 290.62 257.67 307.87C256.6 310.68 257.44 313.5 259.56 315.55C259.48 316.4 259.41 317.25 259.33 318.11C244.34 325.32 229.71 333.23 215.08 341.15C202.81 347.5 190.32 353.45 178.34 360.34C164.65 367.82 150.39 374.23 136.84 381.98C127.46 387.48 117.47 391.83 107.92 397.02C97.71 402.28 87.66 407.85 77.62 413.44C72.62 416.25 67.22 418.28 62.29 421.22C66.45 422.47 70.72 423.25 75 423.95C71.47 423.87 68.05 424.77 64.68 425.7C58.71 426.54 52.43 426.83 47.08 429.95C35.89 435.51 28.43 446.16 23.08 457.1C18.78 466.39 15.04 476.01 12.95 486.06C7 512.58 5.26 539.88 6.15 567C6.37 576 6.1 585.04 7.24 594C8.92 607.6 9.7 621.33 12.1 634.84C12.68 638.07 12.5 641.37 12.34 644.63C10.99 643.48 8.99 642.61 8.71 640.66C7.26 634.31 6.72 627.8 5.83 621.36C4.37 607.25 2.52 593.17 2.34 578.96C2.52 576.58 1.25 574.56 0 572.67V572.31C1.1 570.74 2.74 569.16 2.19 567.06C0.45 554.05 2.52 540.99 2.44 527.96C2.62 522.27 4.46 516.76 4.45 511.05C4.43 505.65 6.41 500.55 6.96 495.23C7.8 487.12 10.53 479.4 12.68 471.58C17.63 458.37 23.14 444.56 34.04 435.07C37.92 432.35 40.47 428.08 44.61 425.73C59.92 417.67 75.53 410.23 90.55 401.65C104.15 394.55 117.95 387.86 131.38 380.44C146.91 371.81 163.17 364.55 178.51 355.57C189.84 349.42 201.62 344.14 212.91 337.92C225.5 330.18 239.19 324.47 252.05 317.23C252.47 313.56 253.14 309.93 254.01 306.35C259.44 280.37 266.55 254.77 274.47 229.44C280.05 213.79 284.83 197.83 291.59 182.64C294.31 174.1 298.47 166.14 301.97 157.92C308.37 145.31 314.19 132.4 321.1 120.06C326.65 110.9 332.3 101.79 337.34 92.34C339.14 88.93 341.88 86.18 344.07 83.04C349.21 75.62 354.26 68.08 360.46 61.48C366.96 54.33 372.9 46.63 380.08 40.12C385.89 35.65 391.18 30.54 396.81 25.86C404.87 20.59 413.03 15.45 421.15 10.27C429 6.84001 437.3 4.45001 445.44 1.78001Z" fill="#455E71"/>
<path d="M440.21 8.38998C444.64 6.79998 449.23 5.37998 453.99 5.39998C462.01 5.23998 470.05 5.19998 478.05 5.74998C485.44 6.29998 492.11 9.66998 498.93 12.24C502.34 13.53 505.59 15.22 508.61 17.28C514.92 21.59 521.84 25.22 526.99 31.02C532.7 37.29 539.6 42.46 544.49 49.46C548.24 54.82 552.55 59.8 555.83 65.48C556.51 68.06 556.94 70.7 557.5 73.31C549.82 68.32 547.77 58.35 540.3 53.11C539.05 53.88 537.8 54.64 536.56 55.4C532.02 50.88 528.88 45.01 523.73 41.12C521.07 41.29 518.55 42.25 516.04 43.05C511.4 39.69 508.08 34.92 503.67 31.33C502.13 29.76 499.95 30.61 498.13 31.05C494.58 32.07 490.97 32.85 487.28 33.11C484.55 29.33 479.33 28.29 477.17 24.05C470.48 22.52 463.68 26.31 457.08 24.11C456.18 22.13 455.66 20.01 454.98 17.96C451.51 15.82 449.33 11.92 445.32 10.65C443.6 9.92998 441.89 9.17998 440.21 8.38998Z" fill="#F3F3F3"/>
<path d="M429.99 11.84C433.37 10.61 436.78 9.48001 440.21 8.39001C441.89 9.18001 443.6 9.93001 445.32 10.65C449.33 11.92 451.51 15.82 454.98 17.96C455.66 20.01 456.18 22.13 457.08 24.11C463.68 26.31 470.48 22.52 477.17 24.05C479.33 28.29 484.55 29.33 487.28 33.11C490.97 32.85 494.58 32.07 498.13 31.05C499.95 30.61 502.13 29.76 503.67 31.33C508.08 34.92 511.4 39.69 516.04 43.05C518.55 42.25 521.07 41.29 523.73 41.12C528.88 45.01 532.02 50.88 536.56 55.4C537.8 54.64 539.05 53.88 540.3 53.11C547.77 58.35 549.82 68.32 557.5 73.31C556.94 70.7 556.51 68.06 555.83 65.48C560.6 73.63 566.26 81.32 569.76 90.15C573.57 98.69 577.95 107 581.03 115.85C581.72 119.6 582.13 123.39 582.31 127.19C578.55 123.77 576.83 118.9 574.51 114.51C572.04 109.81 571.01 104.51 568.44 99.85C567.09 101.35 565.75 102.86 564.43 104.38C558.13 98.45 556.83 88.94 550.28 83.2C548.15 84.22 546.01 85.22 543.88 86.24C538.32 81.08 536.13 73.44 531.12 67.84C530.3 66.73 528.82 67.67 527.78 67.8C522.1 69.52 516.13 70.36 510.85 73.23C505.15 68.18 504.99 59.63 499.66 54.35C492.17 55.91 484.8 58.44 477.09 58.85C474.89 59.4 474.38 56.86 473.82 55.31C472.59 51.46 472.74 47.05 470.34 43.65C465.44 42.64 460.3 43.98 455.33 44.31C447.94 45.57 440.45 44.65 433.09 43.63C434.54 39.28 436.59 35.14 437.74 30.69C431.98 28.86 425.33 29.18 420.48 25.12C424.34 22.07 428.91 20.1 432.92 17.27C432.48 16.16 432.06 15.06 431.63 13.96C432.32 13.25 433.01 12.55 433.71 11.84C432.46 11.82 431.23 11.82 429.99 11.84Z" fill="#E9E9E9"/>
<path d="M413.52 20.03C418.7 16.72 424.06 13.6 429.99 11.84C431.23 11.82 432.46 11.82 433.71 11.84C433.01 12.55 432.32 13.25 431.63 13.96C432.06 15.06 432.48 16.16 432.92 17.27C428.91 20.1 424.34 22.07 420.48 25.12C425.33 29.18 431.98 28.86 437.74 30.69C436.59 35.14 434.54 39.28 433.09 43.63C440.45 44.65 447.94 45.57 455.33 44.31C460.3 43.98 465.44 42.64 470.34 43.65C472.74 47.05 472.59 51.46 473.82 55.31C474.38 56.86 474.89 59.4 477.09 58.85C484.8 58.44 492.17 55.91 499.66 54.35C504.99 59.63 505.15 68.18 510.85 73.23C516.13 70.36 522.1 69.52 527.78 67.8C528.82 67.67 530.3 66.73 531.12 67.84C536.13 73.44 538.32 81.08 543.88 86.24C546.01 85.22 548.15 84.22 550.28 83.2C556.83 88.94 558.13 98.45 564.43 104.38C565.75 102.86 567.09 101.35 568.44 99.85C571.01 104.51 572.04 109.81 574.51 114.51C576.83 118.9 578.55 123.77 582.31 127.19C582.13 123.39 581.72 119.6 581.03 115.85C585.23 127.69 590.61 139.14 593.51 151.4C597.91 165.62 601.49 180.1 604.28 194.72C604.57 200.14 605.74 205.44 606.63 210.78C605.83 212.62 604.93 214.42 604.02 216.21C602.25 206.56 599.84 197.04 597.91 187.42C596.45 188.27 595.01 189.15 593.57 190.03C589.76 180.8 589.42 170.45 584.93 161.48C581.94 163.57 579.25 166.07 576.93 168.88C574.38 161.4 572.05 153.86 569.81 146.29C568.56 141.66 563.95 139.06 562.46 134.56C560.2 128 558.06 121.37 554.89 115.17C551.13 117.24 547.59 121.46 542.9 120.36C540.42 119.96 539.82 117.17 539.34 115.12C538.09 108.61 536.6 101.96 533 96.29C532.24 97.18 531.51 98.08 530.77 98.97C522 99.09 513.22 100.58 505.1 103.95C501.11 96.91 500.86 88.65 498.5 81.06C492.61 80.92 487.44 84.34 481.6 84.43C476.06 84.53 470.9 86.91 465.37 87.08C464.27 79.78 463.71 72.41 462.61 65.11C451.05 65.67 439.52 67.55 427.92 67.04C425.81 67.11 424.19 65.66 422.51 64.62C420.88 63.39 418.72 63.64 416.82 63.36C417.15 61.43 417.37 59.18 419.27 58.09C420.91 56.41 423.18 57.63 425.03 58.15C426.16 55.38 427.11 52.55 427.84 49.65C422.64 48.1 417.51 46.31 412.23 45.04C410.16 44.6 408.37 43.49 406.63 42.36C411.06 38.67 412.49 32.09 417.96 29.65C416.32 26.52 414.82 23.32 413.52 20.03Z" fill="#E1E1E1"/>
<path d="M400.79 28.65C404.93 25.62 409.13 22.67 413.52 20.03C414.82 23.32 416.32 26.52 417.96 29.65C412.49 32.09 411.06 38.67 406.63 42.36C408.37 43.49 410.16 44.6 412.23 45.04C417.51 46.31 422.64 48.1 427.84 49.65C427.11 52.55 426.16 55.38 425.03 58.15C423.18 57.63 420.91 56.41 419.27 58.09C417.37 59.18 417.15 61.43 416.82 63.36C418.72 63.64 420.88 63.39 422.51 64.62C424.19 65.66 425.81 67.11 427.92 67.04C439.52 67.55 451.05 65.67 462.61 65.11C463.71 72.41 464.27 79.78 465.37 87.08C470.9 86.91 476.06 84.53 481.6 84.43C487.44 84.34 492.61 80.92 498.5 81.06C500.86 88.65 501.11 96.91 505.1 103.95C513.22 100.58 522 99.09 530.77 98.97C531.51 98.08 532.24 97.18 533 96.29C536.6 101.96 538.09 108.61 539.34 115.12C539.82 117.17 540.42 119.96 542.9 120.36C547.59 121.46 551.13 117.24 554.89 115.17C558.06 121.37 560.2 128 562.46 134.56C563.95 139.06 568.56 141.66 569.81 146.29C572.05 153.86 574.38 161.4 576.93 168.88C579.25 166.07 581.94 163.57 584.93 161.48C589.42 170.45 589.76 180.8 593.57 190.03C595.01 189.15 596.45 188.27 597.91 187.42C599.84 197.04 602.25 206.56 604.02 216.21C604.93 214.42 605.83 212.62 606.63 210.78C609.26 225.8 611.59 240.87 612.97 256.06C614.93 269.2 615.01 282.51 616.3 295.72C615.18 306.51 616.84 317.49 614.63 328.18C613.6 326.52 612.38 324.84 612.28 322.82C611.72 316.48 611.75 310.1 611.75 303.73C611.83 298.35 608.99 293.5 608.63 288.17C607.13 279.41 607.18 270.41 605 261.77C600.87 264.07 599.22 268.63 596.93 272.47C594.07 267.23 594.94 261.14 593.74 255.49C592.61 250.02 592.98 244.04 589.76 239.22C586.42 234.21 587.07 227.97 585.81 222.33C584.8 217.73 584.77 212.81 582.36 208.63C578.68 211.18 575.6 214.5 571.81 216.86C569.1 217.22 568.34 214.15 567.87 212.14C566.25 204.27 564.64 196.41 562.86 188.58C562.43 187.31 562.3 185.6 560.87 185.06C555.6 186.53 552.12 191.33 546.97 193.01C544.58 193.2 543.43 190.92 543.15 188.9C541.69 181.47 540.12 174.05 538.56 166.64C538.17 164.57 537.12 162.74 536.12 160.93C530.23 164.03 524.47 168.57 517.42 167.92C514.05 158.1 514.47 147.46 511.18 137.59C505.65 138.15 500.68 140.7 495.48 142.44C493.19 143.42 489.71 142.51 489.33 139.74C487.13 131.39 487.59 122.61 485.45 114.25C482.03 114.57 478.71 115.46 475.47 116.58C470.15 118.35 464.48 116.99 459.06 118C454.86 118.75 450.67 119.54 446.41 119.72C445.8 111.17 445.08 102.35 447.59 94.01C443.03 93.5 438.51 94.35 434.3 96.1C431.53 94.49 428.59 92.52 425.21 93.27C417.21 94.42 409.17 93.1 401.19 92.46C403.68 84.71 408.22 77.57 409.1 69.35C402.83 67.72 395.92 67.33 390.58 63.31C393.77 59.39 398.03 56.14 400.16 51.47C399.48 45.83 396.9 40.48 393.4 36.03C395.98 33.69 398.49 31.28 400.79 28.65Z" fill="#D9D9D9"/>
<path d="M380.85 45.72C387.53 40.08 393.19 33.14 400.79 28.65C398.49 31.28 395.98 33.69 393.4 36.03C393.33 38.26 393.66 40.46 394 42.65C389.38 48.56 383.63 53.43 378.73 59.09C383.1 64.55 389.93 66.77 395.75 70.24C393.05 75.89 389.44 81.03 386.53 86.56C385.46 88.63 384.13 91.69 386.69 93.27C390.6 94.2 394.76 93.97 398.55 95.48C402.74 97.08 407.25 97.24 411.68 97.46C410.76 103.04 410.63 110.41 404.22 112.52C405.43 112.91 406.66 113.3 407.88 113.7C406.93 117.29 406.31 120.95 406.1 124.66C413.02 126.06 420.05 122.7 426.83 125.07C426.41 131.24 425.98 137.43 424.55 143.47C423.57 147.4 423.3 151.47 423.58 155.51C428.54 155.15 433.38 154.01 438.28 153.24C443.06 152.36 447.58 155.74 452.34 154.37C457.45 153.07 462.59 151.77 467.87 151.27C468.19 158.52 467.91 165.77 467.91 173.03C468 176.5 467.94 180.22 469.71 183.33C478.3 185.06 485.99 178.83 494.44 178.27C496.51 185.75 495.56 193.56 496.78 201.16C497.38 204.92 497.37 208.76 498.02 212.51C498.11 213.66 499.45 214.63 500.56 214.17C507.87 211.63 514.69 207.6 522.33 206.09C524.64 217.93 524.94 230.07 527.7 241.83C535.74 240.97 541.99 235.21 549.58 232.91C550.6 242.64 552.63 252.26 553.03 262.05C552.95 266.15 556.57 269 557.09 272.94C558.4 283.62 558.73 294.43 560.86 305C566.81 301.79 572.03 297.47 577.27 293.25C577.81 293.29 578.91 293.37 579.45 293.41C579.97 298.81 580.53 304.2 581.39 309.56C582.47 315.64 581.19 321.94 583.09 327.91C583.81 327.96 585.25 328.07 585.97 328.12C589.04 325.01 591.71 321.56 594.25 318.01C595.35 318.13 596.46 318.26 597.58 318.39C598.26 327.57 597.95 336.83 599.23 345.96C599.9 349.02 601.81 351.73 601.96 354.92C602.43 363.64 603.2 372.33 603.13 381.07C605.71 377.42 608.29 373.72 611.76 370.85C612.18 379.22 612.08 387.63 611.79 396.01C611.35 402.76 612.4 409.54 611.39 416.27C610.66 421.26 610.7 426.33 611.5 431.31C612.43 430.52 613.38 429.74 614.32 428.96C613.32 439.32 612.67 449.8 609.92 459.89C608.33 465.95 606.52 472.12 602.86 477.3C599.93 479.55 598.21 482.9 595.75 485.6C594.33 478.56 597.78 471.73 597.6 464.67C591.57 467.99 590.42 476.67 583.18 478.3C582.66 469.84 584.68 461.46 584.08 453C582.71 438.92 585.01 424.81 583.75 410.72C581.67 411.53 579.54 412.34 577.86 413.86C573.24 417.84 568.79 422.03 564.39 426.25C562.17 421.82 563.11 416.76 563 412C562.89 403.69 563.53 395.34 562.56 387.06C556.66 387.92 552.72 392.8 548.25 396.24C545.11 399.07 541.34 401.08 537.25 402.16C536.68 392.1 537.18 382.03 537.09 371.96C537 367.24 535.35 362.73 535.01 358.03C534.36 349.8 533.71 341.55 533.94 333.29C534.07 329.83 533.65 326.38 533.01 322.99C522.84 324.4 515.28 332.57 505.23 334.18C505.22 324.14 504.22 314.16 503.79 304.14C503.47 298.01 500.88 292.21 501.02 286.03C501.17 278.69 499.97 271.41 499.86 264.08C499.76 261.44 499.78 258.68 498.6 256.25C497.31 255.78 495.99 256.44 494.76 256.77C488.15 259.22 481.68 262.3 474.68 263.48C472.48 263.98 470.64 261.76 470.3 259.78C469.67 256.22 470 252.59 470.04 249C470.29 241.04 469.36 233.12 468.49 225.24C459.98 226.31 451.98 230.02 443.36 230.56C441.02 229.85 441.17 227.01 441 225.05C440.91 216.32 440.74 207.57 441.89 198.89C441.98 196.82 442.43 193.37 439.81 192.71C432.9 192.65 426.29 195.65 419.38 195.52C416.43 194.49 415.67 191.08 416.27 188.32C417.76 179.05 418.51 169.69 419.49 160.36C411.9 158.96 404.18 161.31 396.64 159.58C391.54 158.41 386.3 159.43 381.17 158.72C379.68 158.63 378.12 157.23 378.77 155.66C381.38 145.26 386.71 135.32 386.84 124.42C382.27 124.17 377.7 123.86 373.14 123.56C373.18 113.49 380.16 105.4 382.92 96.09C382 94.16 379.59 93.89 377.85 93.04C373.49 91.62 369.3 89.7 365.58 87.01C369.41 78.74 376.21 72.41 380.62 64.5C378.46 61.58 375.46 58.8 375.05 55.02C376.06 51.47 378.8 48.72 380.85 45.72Z" fill="#CCCCCC"/>
<path d="M394 42.65C393.66 40.46 393.33 38.26 393.4 36.03C396.9 40.48 399.48 45.83 400.16 51.47C398.03 56.14 393.77 59.39 390.58 63.31C395.92 67.33 402.83 67.72 409.1 69.35C408.22 77.57 403.68 84.71 401.19 92.46C409.17 93.1 417.21 94.42 425.21 93.27C428.59 92.52 431.53 94.49 434.3 96.1C438.51 94.35 443.03 93.5 447.59 94.01C445.08 102.35 445.8 111.17 446.41 119.72C450.67 119.54 454.86 118.75 459.06 118C464.48 116.99 470.15 118.35 475.47 116.58C478.71 115.46 482.03 114.57 485.45 114.25C487.59 122.61 487.13 131.39 489.33 139.74C489.71 142.51 493.19 143.42 495.48 142.44C500.68 140.7 505.65 138.15 511.18 137.59C514.47 147.46 514.05 158.1 517.42 167.92C524.47 168.57 530.23 164.03 536.12 160.93C537.12 162.74 538.17 164.57 538.56 166.64C540.12 174.05 541.69 181.47 543.15 188.9C543.43 190.92 544.58 193.2 546.97 193.01C552.12 191.33 555.6 186.53 560.87 185.06C562.3 185.6 562.43 187.31 562.86 188.58C564.64 196.41 566.25 204.27 567.87 212.14C568.34 214.15 569.1 217.22 571.81 216.86C575.6 214.5 578.68 211.18 582.36 208.63C584.77 212.81 584.8 217.73 585.81 222.33C587.07 227.97 586.42 234.21 589.76 239.22C592.98 244.04 592.61 250.02 593.74 255.49C594.94 261.14 594.07 267.23 596.93 272.47C599.22 268.63 600.87 264.07 605 261.77C607.18 270.41 607.13 279.41 608.63 288.17C608.99 293.5 611.83 298.35 611.75 303.73C611.75 310.1 611.72 316.48 612.28 322.82C612.38 324.84 613.6 326.52 614.63 328.18C616.84 317.49 615.18 306.51 616.3 295.72C617.46 307.78 616.53 319.92 617.11 332.01C617.72 346.36 616.45 360.71 616.87 375.06C617.19 393.07 615.27 411 614.32 428.96C613.38 429.74 612.43 430.52 611.5 431.31C610.7 426.33 610.66 421.26 611.39 416.27C612.4 409.54 611.35 402.76 611.79 396.01C612.08 387.63 612.18 379.22 611.76 370.85C608.29 373.72 605.71 377.42 603.13 381.07C603.2 372.33 602.43 363.64 601.96 354.92C601.81 351.73 599.9 349.02 599.23 345.96C597.95 336.83 598.26 327.57 597.58 318.39C596.46 318.26 595.35 318.13 594.25 318.01C591.71 321.56 589.04 325.01 585.97 328.12C585.25 328.07 583.81 327.96 583.09 327.91C581.19 321.94 582.47 315.64 581.39 309.56C580.53 304.2 579.97 298.81 579.45 293.41C578.91 293.37 577.81 293.29 577.27 293.25C572.03 297.47 566.81 301.79 560.86 305C558.73 294.43 558.4 283.62 557.09 272.94C556.57 269 552.95 266.15 553.03 262.05C552.63 252.26 550.6 242.64 549.58 232.91C541.99 235.21 535.74 240.97 527.7 241.83C524.94 230.07 524.64 217.93 522.33 206.09C514.69 207.6 507.87 211.63 500.56 214.17C499.45 214.63 498.11 213.66 498.02 212.51C497.37 208.76 497.38 204.92 496.78 201.16C495.56 193.56 496.51 185.75 494.44 178.27C485.99 178.83 478.3 185.06 469.71 183.33C467.94 180.22 468 176.5 467.91 173.03C467.91 165.77 468.19 158.52 467.87 151.27C462.59 151.77 457.45 153.07 452.34 154.37C447.58 155.74 443.06 152.36 438.28 153.24C433.38 154.01 428.54 155.15 423.58 155.51C423.3 151.47 423.57 147.4 424.55 143.47C425.98 137.43 426.41 131.24 426.83 125.07C420.05 122.7 413.02 126.06 406.1 124.66C406.31 120.95 406.93 117.29 407.88 113.7C406.66 113.3 405.43 112.91 404.22 112.52C410.63 110.41 410.76 103.04 411.68 97.46C407.25 97.24 402.74 97.08 398.55 95.48C394.76 93.97 390.6 94.2 386.69 93.27C384.13 91.69 385.46 88.63 386.53 86.56C389.44 81.03 393.05 75.89 395.75 70.24C389.93 66.77 383.1 64.55 378.73 59.09C383.63 53.43 389.38 48.56 394 42.65Z" fill="#D2D2D2"/>
<path d="M372.76 53.84C375.07 50.77 377.79 48.04 380.85 45.72C378.8 48.72 376.06 51.47 375.05 55.02C375.46 58.8 378.46 61.58 380.62 64.5C376.21 72.41 369.41 78.74 365.58 87.01C369.3 89.7 373.49 91.62 377.85 93.04C379.59 93.89 382 94.16 382.92 96.09C380.16 105.4 373.18 113.49 373.14 123.56C377.7 123.86 382.27 124.17 386.84 124.42C386.71 135.32 381.38 145.26 378.77 155.66C378.12 157.23 379.68 158.63 381.17 158.72C386.3 159.43 391.54 158.41 396.64 159.58C404.18 161.31 411.9 158.96 419.49 160.36C418.51 169.69 417.76 179.05 416.27 188.32C415.67 191.08 416.43 194.49 419.38 195.52C426.29 195.65 432.9 192.65 439.81 192.71C442.43 193.37 441.98 196.82 441.89 198.89C440.74 207.57 440.91 216.32 441 225.05C441.17 227.01 441.02 229.85 443.36 230.56C451.98 230.02 459.98 226.31 468.49 225.24C469.36 233.12 470.29 241.04 470.04 249C470 252.59 469.67 256.22 470.3 259.78C470.64 261.76 472.48 263.98 474.68 263.48C481.68 262.3 488.15 259.22 494.76 256.77C495.99 256.44 497.31 255.78 498.6 256.25C499.78 258.68 499.76 261.44 499.86 264.08C499.97 271.41 501.17 278.69 501.02 286.03C500.88 292.21 503.47 298.01 503.79 304.14C504.22 314.16 505.22 324.14 505.23 334.18C515.28 332.57 522.84 324.4 533.01 322.99C533.65 326.38 534.07 329.83 533.94 333.29C533.71 341.55 534.36 349.8 535.01 358.03C535.35 362.73 537 367.24 537.09 371.96C537.18 382.03 536.68 392.1 537.25 402.16C541.34 401.08 545.11 399.07 548.25 396.24C552.72 392.8 556.66 387.92 562.56 387.06C563.53 395.34 562.89 403.69 563 412C563.11 416.76 562.17 421.82 564.39 426.25C568.79 422.03 573.24 417.84 577.86 413.86C579.54 412.34 581.67 411.53 583.75 410.72C585.01 424.81 582.71 438.92 584.08 453C584.68 461.46 582.66 469.84 583.18 478.3C590.42 476.67 591.57 467.99 597.6 464.67C597.78 471.73 594.33 478.56 595.75 485.6C598.21 482.9 599.93 479.55 602.86 477.3C601.22 481.59 599.38 485.86 596.54 489.51C589.87 498.44 583.96 508.11 575.64 515.65C571.25 520.27 566.25 524.28 562.09 529.12C558.94 532.72 555.14 535.71 551.02 538.11C548.85 539.61 546.2 538.42 543.86 538.18C543.66 540.33 543.49 542.48 543.38 544.63C531.78 552.37 522.56 563 511.84 571.82C508.89 574.31 506.85 577.61 504.46 580.58C502.94 582.49 500.43 583.14 498.72 584.82C496.78 587.17 495.46 590.06 493 591.98C489.34 595.02 484.51 597.26 483.12 602.22C479.83 605.6 476.28 608.71 472.53 611.57C445.44 636.51 417.63 660.65 390.08 685.08C385.05 690.11 379.37 694.4 374.04 699.08C366.04 707.09 356.99 713.94 348.83 721.78C339.23 729.17 331.31 738.48 321.36 745.43C317.12 748.42 313.81 752.46 309.94 755.88C305.88 759.52 301.46 762.74 297.63 766.63C292.63 771.67 286.88 775.88 281.65 780.67C274.7 787.4 266.87 793.17 260.06 800.07C257.98 802.3 255.47 804.07 252.63 805.2C252.58 804.37 252.48 802.7 252.43 801.86C251.95 789.94 250.92 778.06 248.95 766.29C247.45 751.96 244.6 737.83 242.47 723.59C243.11 723.61 244.41 723.63 245.06 723.64C247.58 720.36 249.9 716.8 253.31 714.36C256.03 712.41 258.77 710.49 261.27 708.27C266.58 703.51 272.76 699.85 278.01 695.02C283.6 689.92 289.35 685 295.15 680.13C299.37 676.65 304.22 673.99 308.23 670.23C319.79 659.71 332.75 650.89 344.47 640.55C350.75 636.25 355.89 630.57 361.82 625.83C376.71 615.21 389.92 602.47 404.57 591.52C410.99 585.58 417.94 580.27 424.69 574.73C432.92 568.7 440.36 561.67 448.46 555.47C455.26 550.31 461.73 544.73 468.27 539.25C472.11 536.06 476.43 533.49 480.06 530.03C486.29 524.21 493.53 519.59 499.71 513.7C504.54 508.94 510.56 505.6 515.27 500.69C513.2 497.51 510.55 494.78 507.71 492.29C502.73 487.9 500.73 481.33 496.77 476.15C499.62 478.6 502.59 480.92 505.49 483.33C505.33 473.55 505.07 463.77 504.17 454.03C503.71 442.99 504.54 431.92 503.82 420.88C500.97 421.45 498.13 422.22 495.54 423.56C490.65 426.07 485.39 427.78 480.6 430.5C477.92 432.07 474.79 432.38 471.76 432.64C470.96 427.42 472.06 422.22 472.12 417.01C471.92 408.72 472.46 400.41 471.76 392.14C470.37 380.13 471.3 368.01 471.12 355.95C471.02 353.62 470.5 351.35 469.98 349.09C464.53 350.52 459.21 352.41 453.67 353.46C448.24 354.47 443.06 356.74 437.47 356.8C437.34 348.18 437.96 339.58 438.11 330.97C438.19 325.3 439.8 319.55 438.09 313.97C435.84 306.12 437.56 297.97 438.02 290.01C438.27 284.31 439.98 278.45 437.91 272.89C429.41 273.52 421.24 276.06 412.91 277.62C410.44 278.23 408.21 275.98 408.69 273.54C409.54 261 411.49 248.55 412.05 235.98C403.82 234.06 395.49 237.07 387.2 236.69C386.23 236.63 385.44 236.21 384.84 235.44C384.28 232.72 385.02 229.95 385.47 227.27C386.88 220.93 387.27 214.39 389.14 208.14C390.12 204.91 390.17 201.5 389.97 198.16C385.34 197.35 380.65 197.47 375.99 197.9C373.33 197.9 369.91 198.39 368.02 196.06C367.15 194.19 367.8 192.06 368.15 190.15C370.78 180.22 373.99 170.43 375.99 160.35C370.06 159.53 364.07 159.1 358.29 157.46C357.8 150.73 361.43 144.82 363.75 138.76C365.58 134.41 366.95 129.88 367.9 125.25C361.48 124.11 356.09 120.37 350.46 117.36C348.59 116.59 348.69 114.11 349.7 112.69C354.35 105.27 358.09 97.33 362.99 90.06C360.78 87.25 358.13 84.65 356.75 81.3C356.08 78.05 356.95 74.74 357.51 71.54C362.03 65.17 367.95 59.97 372.76 53.84Z" fill="#C6C7C7"/>
<path d="M354.76 75.04C355.68 73.87 356.61 72.72 357.51 71.54C356.95 74.74 356.08 78.05 356.75 81.3C358.13 84.65 360.78 87.25 362.99 90.06C358.09 97.33 354.35 105.27 349.7 112.69C348.69 114.11 348.59 116.59 350.46 117.36C356.09 120.37 361.48 124.11 367.9 125.25C366.95 129.88 365.58 134.41 363.75 138.76C361.43 144.82 357.8 150.73 358.29 157.46C364.07 159.1 370.06 159.53 375.99 160.35C373.99 170.43 370.78 180.22 368.15 190.15C367.8 192.06 367.15 194.19 368.02 196.06C369.91 198.39 373.33 197.9 375.99 197.9C380.65 197.47 385.34 197.35 389.97 198.16C390.17 201.5 390.12 204.91 389.14 208.14C387.27 214.39 386.88 220.93 385.47 227.27C385.02 229.95 384.28 232.72 384.84 235.44C385.44 236.21 386.23 236.63 387.2 236.69C395.49 237.07 403.82 234.06 412.05 235.98C411.49 248.55 409.54 261 408.69 273.54C408.21 275.98 410.44 278.23 412.91 277.62C421.24 276.06 429.41 273.52 437.91 272.89C439.98 278.45 438.27 284.31 438.02 290.01C437.56 297.97 435.84 306.12 438.09 313.97C439.8 319.55 438.19 325.3 438.11 330.97C437.96 339.58 437.34 348.18 437.47 356.8C443.06 356.74 448.24 354.47 453.67 353.46C459.21 352.41 464.53 350.52 469.98 349.09C470.5 351.35 471.02 353.62 471.12 355.95C471.3 368.01 470.37 380.13 471.76 392.14C472.46 400.41 471.92 408.72 472.12 417.01C472.06 422.22 470.96 427.42 471.76 432.64C474.79 432.38 477.92 432.07 480.6 430.5C485.39 427.78 490.65 426.07 495.54 423.56C498.13 422.22 500.97 421.45 503.82 420.88C504.54 431.92 503.71 442.99 504.17 454.03C505.07 463.77 505.33 473.55 505.49 483.33C502.59 480.92 499.62 478.6 496.77 476.15C491.59 470.32 487.76 463.33 481.74 458.26C476.43 453.87 471.75 448.76 466.12 444.78C459.92 438.67 454.95 431.38 448.21 425.81C443.3 421.76 438.51 417.55 433.26 413.93C428.81 409.45 423.47 405.84 419.8 400.61C424.62 402.7 427.43 407.44 431.7 410.32C434.09 412.26 437.06 413.2 439.98 414.01C436.33 407.3 436.25 399.44 435.89 392C435.83 380.81 436.41 369.6 435.65 358.42C430.38 359.01 425.21 360.18 419.97 360.95C414.27 361.64 408.89 364.06 403.09 364.12C402.79 350.35 405.74 336.67 405.24 322.89C404.79 319.9 403.24 317.01 403.83 313.92C404.37 309.95 404.96 305.98 405.12 301.98C405.39 293.96 407.2 286.05 406.95 278.01C398.46 277.83 390.22 280.3 381.78 280.62C379.41 281.03 377.95 278.28 378.56 276.25C379.94 268.86 380.66 261.37 381.72 253.93C382.3 248.41 383.71 243 383.84 237.43C375.64 236.4 367.38 237.64 359.18 236.61C358.63 229.05 362.26 222.15 363.83 214.93C364.93 209.72 366.22 204.46 366.31 199.12C366.39 197.23 364.27 196.62 362.8 196.33C357.64 195.44 352.38 195.34 347.22 194.44C349.39 183.34 354.62 173.09 357.16 162.07C357.28 160.77 358.02 159.09 356.71 158.15C353.3 155.97 348.91 156.39 345.32 154.61C343.97 153.73 343.04 151.99 343.56 150.38C344.54 146.47 346.64 142.96 348.21 139.26C350.65 133.56 353.18 127.89 355.73 122.23C349.69 120.36 344.73 115.96 341.42 110.68C341.64 105.02 346.64 101.08 349.72 96.73C351.91 93.18 353.35 89.2 355.82 85.81C355.15 82.25 354.74 78.65 354.76 75.04Z" fill="#C0C0C0"/>
<path d="M334.02 107.32C339.2 95.52 347.49 85.55 354.76 75.04C354.74 78.65 355.15 82.25 355.82 85.81C353.35 89.2 351.91 93.18 349.72 96.73C346.64 101.08 341.64 105.02 341.42 110.68C344.73 115.96 349.69 120.36 355.73 122.23C353.18 127.89 350.65 133.56 348.21 139.26C346.64 142.96 344.54 146.47 343.56 150.38C343.04 151.99 343.97 153.73 345.32 154.61C348.91 156.39 353.3 155.97 356.71 158.15C358.02 159.09 357.28 160.77 357.16 162.07C354.62 173.09 349.39 183.34 347.22 194.44C352.38 195.34 357.64 195.44 362.8 196.33C364.27 196.62 366.39 197.23 366.31 199.12C366.22 204.46 364.93 209.72 363.83 214.93C362.26 222.15 358.63 229.05 359.18 236.61C367.38 237.64 375.64 236.4 383.84 237.43C383.71 243 382.3 248.41 381.72 253.93C380.66 261.37 379.94 268.86 378.56 276.25C377.95 278.28 379.41 281.03 381.78 280.62C390.22 280.3 398.46 277.83 406.95 278.01C407.2 286.05 405.39 293.96 405.12 301.98C404.96 305.98 404.37 309.95 403.83 313.92C403.24 317.01 404.79 319.9 405.24 322.89C405.74 336.67 402.79 350.35 403.09 364.12C408.89 364.06 414.27 361.64 419.97 360.95C425.21 360.18 430.38 359.01 435.65 358.42C436.41 369.6 435.83 380.81 435.89 392C436.25 399.44 436.33 407.3 439.98 414.01C437.06 413.2 434.09 412.26 431.7 410.32C427.43 407.44 424.62 402.7 419.8 400.61C410.84 393.48 401.7 386.58 392.57 379.68C386.23 373.78 379.12 368.68 371.65 364.31C365.37 360.73 360.77 354.8 354.11 351.79C348.17 347.69 341.92 344.08 335.81 340.25C337.96 340.57 340.14 340.78 342.31 340.99C342.75 337.36 343.46 333.77 343.57 330.11C343.74 325.32 341.71 320.62 342.71 315.82C344.64 305.57 346.2 295.25 348.17 285.01C348.36 282.98 349.17 279.49 346.41 278.87C339.95 277.59 333.02 278.76 326.82 276.15C324.81 275.32 325.94 272.91 326.18 271.36C328.26 263.94 330.43 256.54 332.1 249.01C333.03 244.58 334.88 240.12 334.24 235.53C329.49 232.17 323.16 232.63 318.22 229.7C316.58 228.63 317.8 226.62 318.02 225.14C320.99 215.87 324.27 206.69 327.57 197.52C328.05 195.46 329.41 192.97 328.03 191C325.14 188.03 320.3 188.2 317.38 185.44C316.63 180.24 320.01 175.44 321.71 170.68C324.15 164.04 328.08 157.96 329.88 151.11C325.61 146.36 320.59 141.06 321.13 134.14C323.57 124.37 332 117.22 334.02 107.32Z" fill="#BABABA"/>
<path d="M310.95 148.98C317.76 134.64 324.91 120.36 334.02 107.32C332 117.22 323.57 124.37 321.13 134.14C320.59 141.06 325.61 146.36 329.88 151.11C328.08 157.96 324.15 164.04 321.71 170.68C320.01 175.44 316.63 180.24 317.38 185.44C320.3 188.2 325.14 188.03 328.03 191C329.41 192.97 328.05 195.46 327.57 197.52C324.27 206.69 320.99 215.87 318.02 225.14C317.8 226.62 316.58 228.63 318.22 229.7C323.16 232.63 329.49 232.17 334.24 235.53C334.88 240.12 333.03 244.58 332.1 249.01C330.43 256.54 328.26 263.94 326.18 271.36C325.94 272.91 324.81 275.32 326.82 276.15C333.02 278.76 339.95 277.59 346.41 278.87C349.17 279.49 348.36 282.98 348.17 285.01C346.2 295.25 344.64 305.57 342.71 315.82C341.71 320.62 343.74 325.32 343.57 330.11C343.46 333.77 342.75 337.36 342.31 340.99C340.14 340.78 337.96 340.57 335.81 340.25C328.51 335.13 320.36 331.48 312.25 327.85C303.97 321.81 293.5 320.77 284.55 316.12C289.04 316.21 293.01 319.11 297.58 318.48C296.48 316.09 294.92 313.75 294.91 311.03C294.93 307.02 296.17 303.16 297.27 299.34C299.07 293.22 300.43 286.98 301.83 280.75C302.44 277.68 303.21 274.53 302.79 271.38C299.39 268.45 294.63 267.72 291.32 264.68C289.67 263.18 289.28 260.8 289.84 258.72C292.89 247.06 297.3 235.77 300.05 224.03C297.06 220.59 293.67 217.23 292.27 212.76C291.2 209.22 289.33 205.6 289.89 201.81C291.61 194.59 296.75 188.5 297 180.87C301.05 170 305.6 159.29 310.95 148.98Z" fill="#AFAFAF"/>
<path d="M279.64 226.81C285.43 211.49 289.41 195.47 297 180.87C296.75 188.5 291.61 194.59 289.89 201.81C289.33 205.6 291.2 209.22 292.27 212.76C293.67 217.23 297.06 220.59 300.05 224.03C297.3 235.77 292.89 247.06 289.84 258.72C289.28 260.8 289.67 263.18 291.32 264.68C294.63 267.72 299.39 268.45 302.79 271.38C303.21 274.53 302.44 277.68 301.83 280.75C300.43 286.98 299.07 293.22 297.27 299.34C296.17 303.16 294.93 307.02 294.91 311.03C294.92 313.75 296.48 316.09 297.58 318.48C293.01 319.11 289.04 316.21 284.55 316.12C276.16 315.74 267.17 314.14 259.33 318.11C259.41 317.25 259.48 316.4 259.56 315.55C257.44 313.5 256.6 310.68 257.67 307.87C262.3 290.62 265.27 272.95 270.9 255.98C274.09 246.33 276.03 236.31 279.64 226.81Z" fill="#A4A4A5"/>
<path d="M604.28 194.72C607.17 203.6 607.9 212.96 609.93 222.04C614.28 251.85 617.39 281.9 617.94 312.04C618.97 324.33 618.63 336.68 618.69 349C618.52 360.33 618.83 371.67 617.93 382.97C617.49 396.32 617.18 409.67 615.81 422.97C614.78 439.64 613.39 456.64 607.3 472.35C601.71 483.98 596.06 495.74 587.76 505.72C580.3 517.04 570.26 526.21 560.74 535.73C556.16 539.55 552.11 544.37 546.35 546.43C541.76 547.77 540.12 552.82 536.46 555.47C532.14 558.77 528.01 562.31 524.21 566.21C513.55 575.53 503.01 585 492.54 594.54C489.52 597.25 486.34 599.77 483.12 602.22C484.51 597.26 489.34 595.02 493 591.98C495.46 590.06 496.78 587.17 498.72 584.82C500.43 583.14 502.94 582.49 504.46 580.58C506.85 577.61 508.89 574.31 511.84 571.82C522.56 563 531.78 552.37 543.38 544.63C543.49 542.48 543.66 540.33 543.86 538.18C546.2 538.42 548.85 539.61 551.02 538.11C555.14 535.71 558.94 532.72 562.09 529.12C566.25 524.28 571.25 520.27 575.64 515.65C583.96 508.11 589.87 498.44 596.54 489.51C599.38 485.86 601.22 481.59 602.86 477.3C606.52 472.12 608.33 465.95 609.92 459.89C612.67 449.8 613.32 439.32 614.32 428.96C615.27 411 617.19 393.07 616.87 375.06C616.45 360.71 617.72 346.36 617.11 332.01C616.53 319.92 617.46 307.78 616.3 295.72C615.01 282.51 614.93 269.2 612.97 256.06C611.59 240.87 609.26 225.8 606.63 210.78C605.74 205.44 604.57 200.14 604.28 194.72Z" fill="#9FA9B0"/>
<path d="M609.93 222.04C610.16 220.5 610.45 218.97 610.73 217.44C611.66 219.62 612.63 221.78 613.47 224C614.35 227.95 615.11 231.94 615.41 235.99C616.9 250.65 619.42 265.24 619.8 280.01C621.52 295.62 621.53 311.33 621.72 327.01C622.27 332.99 622.56 339 621.91 344.99C622.09 350 622.7 355.01 621.8 360C621.53 372.16 621.78 384.34 621.19 396.5C620.12 405.15 620.95 413.93 619.66 422.57C618.92 433.38 617.98 444.19 616.9 454.98C615.59 460.54 613.41 465.86 612.38 471.51C609.48 479.49 604.76 486.66 601.41 494.45C596.14 502.66 589.75 510.11 583.99 517.98C576.43 526.09 568.15 533.52 560.87 541.89C554.48 547.23 547.73 552.14 541.02 557.08C532.41 564.07 524.55 571.93 516 578.98C503.8 590.16 490.85 600.49 478.83 611.86C475.85 614.92 472.3 617.33 469.08 620.12C420.09 663.84 370.8 707.2 321.69 750.78C299.25 770.24 277.14 790.08 255.01 809.9C253.19 808.73 251.41 807.51 249.65 806.28L249.6 805.31C249.73 804.01 249.89 802.72 250.07 801.45C250.66 801.55 251.84 801.76 252.43 801.86C252.48 802.7 252.58 804.37 252.63 805.2C255.47 804.07 257.98 802.3 260.06 800.07C266.87 793.17 274.7 787.4 281.65 780.67C286.88 775.88 292.63 771.67 297.63 766.63C301.46 762.74 305.88 759.52 309.94 755.88C313.81 752.46 317.12 748.42 321.36 745.43C331.31 738.48 339.23 729.17 348.83 721.78C356.99 713.94 366.04 707.09 374.04 699.08C379.37 694.4 385.05 690.11 390.08 685.08C417.63 660.65 445.44 636.51 472.53 611.57C476.28 608.71 479.83 605.6 483.12 602.22C486.34 599.77 489.52 597.25 492.54 594.54C503.01 585 513.55 575.53 524.21 566.21C528.01 562.31 532.14 558.77 536.46 555.47C540.12 552.82 541.76 547.77 546.35 546.43C552.11 544.37 556.16 539.55 560.74 535.73C570.26 526.21 580.3 517.04 587.76 505.72C596.06 495.74 601.71 483.98 607.3 472.35C613.39 456.64 614.78 439.64 615.81 422.97C617.18 409.67 617.49 396.32 617.93 382.97C618.83 371.67 618.52 360.33 618.69 349C618.63 336.68 618.97 324.33 617.94 312.04C617.39 281.9 614.28 251.85 609.93 222.04Z" fill="#41596D"/>
<path d="M259.33 318.11C267.17 314.14 276.16 315.74 284.55 316.12C293.5 320.77 303.97 321.81 312.25 327.85C301.07 323.95 290.07 319.15 278.34 317.16C274.1 321.56 268.95 324.95 263.35 327.34C246.45 335.48 230.55 345.5 213.67 353.68C203.81 359.38 193.71 364.64 183.42 369.52C175.66 374.17 167.65 378.4 159.67 382.68C151.74 386.69 143.63 390.38 136.03 395.01C127.41 400.23 117.95 403.93 109.46 409.38C100.64 414.02 92.12 419.36 82.7 422.73C82.34 423.43 81.62 424.83 81.25 425.53C79.21 424.85 77.12 424.32 75 423.95C70.72 423.25 66.45 422.47 62.29 421.22C67.22 418.28 72.62 416.25 77.62 413.44C87.66 407.85 97.71 402.28 107.92 397.02C117.47 391.83 127.46 387.48 136.84 381.98C150.39 374.23 164.65 367.82 178.34 360.34C190.32 353.45 202.81 347.5 215.08 341.15C229.71 333.23 244.34 325.32 259.33 318.11Z" fill="#E7E7E7"/>
<path d="M263.35 327.34C268.95 324.95 274.1 321.56 278.34 317.16C290.07 319.15 301.07 323.95 312.25 327.85C320.36 331.48 328.51 335.13 335.81 340.25C341.92 344.08 348.17 347.69 354.11 351.79C359.23 356.74 364.53 361.6 370.57 365.45C372.89 366.95 375.04 368.69 377.07 370.58C366.84 375.49 357.53 381.97 347.73 387.64C333.51 396.94 318.82 405.49 304.31 414.32C294.18 421.87 282.42 426.82 272.12 434.1C264.19 439.63 255.41 443.79 247.59 449.49C235.28 456.85 223.21 464.6 210.81 471.8C204.81 475.37 199.35 479.77 193.22 483.13C182.99 488.47 173.84 495.56 163.66 501C163.68 502.44 163.69 503.88 163.7 505.34C163.12 505.42 161.96 505.58 161.38 505.66C156.16 498.19 150.98 490.69 145.91 483.12C133.74 467.18 120.65 451.69 104.8 439.29C97.34 434.08 89.98 428.46 81.25 425.53C81.62 424.83 82.34 423.43 82.7 422.73C92.12 419.36 100.64 414.02 109.46 409.38C117.95 403.93 127.41 400.23 136.03 395.01C143.63 390.38 151.74 386.69 159.67 382.68C167.65 378.4 175.66 374.17 183.42 369.52C193.71 364.64 203.81 359.38 213.67 353.68C230.55 345.5 246.45 335.48 263.35 327.34Z" fill="#EFEFEF"/>
<path d="M354.11 351.79C360.77 354.8 365.37 360.73 371.65 364.31C379.12 368.68 386.23 373.78 392.57 379.68C393.51 380.9 394.37 382.18 395.31 383.4C392.98 387.23 388.47 388.52 384.98 390.98C375.18 397.57 365.23 403.95 355.15 410.12C341.8 419.69 327.27 427.44 313.7 436.68C307.17 440.81 300.9 445.36 294.13 449.09C287.12 452.91 280.86 457.92 273.99 461.99C261.36 470.47 248.09 477.95 235.47 486.47C218.25 497.18 201.59 508.76 184.16 519.14C180.27 521.51 177.1 524.81 173.91 528.01C169.84 520.49 165.15 513.33 161.38 505.66C161.96 505.58 163.12 505.42 163.7 505.34C163.69 503.88 163.68 502.44 163.66 501C173.84 495.56 182.99 488.47 193.22 483.13C199.35 479.77 204.81 475.37 210.81 471.8C223.21 464.6 235.28 456.85 247.59 449.49C255.41 443.79 264.19 439.63 272.12 434.1C282.42 426.82 294.18 421.87 304.31 414.32C318.82 405.49 333.51 396.94 347.73 387.64C357.53 381.97 366.84 375.49 377.07 370.58C375.04 368.69 372.89 366.95 370.57 365.45C364.53 361.6 359.23 356.74 354.11 351.79Z" fill="#E8E8E8"/>
<path d="M395.31 383.4C394.37 382.18 393.51 380.9 392.57 379.68C401.7 386.58 410.84 393.48 419.8 400.61C423.47 405.84 428.81 409.45 433.26 413.93L433.82 414.69C429.56 421.03 422.12 423.77 416.26 428.3C410.25 433.07 403.37 436.58 397.37 441.38C388.86 447.65 379.83 453.19 371.03 459.04C356.62 470.14 340.82 479.26 326.39 490.34C314.33 498.66 301.99 506.57 290.05 515.06C285.25 518.65 279.9 521.45 275.17 525.15C266.84 531.63 257.58 536.78 249.2 543.19C240.89 548.91 232.18 554.06 224.08 560.08C217.69 565.09 210.28 568.74 204.42 574.43C202.75 576.14 200.65 577.32 198.37 578.01C194.52 569.08 189.93 560.48 186.14 551.53C189.82 548.7 193.31 545.57 197.45 543.4C208.87 536.24 220.05 528.71 231.31 521.3C240.02 516.18 247.91 509.82 256.63 504.73C262.15 501.67 266.59 497.03 272.19 494.11C284.59 486.71 296 477.79 308.46 470.49C318.91 462.79 330.11 456.22 340.75 448.77C354.32 440.49 367.15 431.04 380.7 422.7C392.35 415.29 403.26 406.77 415.27 399.94C409.44 393.48 401.43 389.57 395.31 383.4Z" fill="#E0E0E0"/>
<path d="M395.31 383.4C401.43 389.57 409.44 393.48 415.27 399.94C403.26 406.77 392.35 415.29 380.7 422.7C367.15 431.04 354.32 440.49 340.75 448.77C330.11 456.22 318.91 462.79 308.46 470.49C296 477.79 284.59 486.71 272.19 494.11C266.59 497.03 262.15 501.67 256.63 504.73C247.91 509.82 240.02 516.18 231.31 521.3C220.05 528.71 208.87 536.24 197.45 543.4C193.31 545.57 189.82 548.7 186.14 551.53C182.16 543.64 177.61 536.04 173.91 528.01C177.1 524.81 180.27 521.51 184.16 519.14C201.59 508.76 218.25 497.18 235.47 486.47C248.09 477.95 261.36 470.47 273.99 461.99C280.86 457.92 287.12 452.91 294.13 449.09C300.9 445.36 307.17 440.81 313.7 436.68C327.27 427.44 341.8 419.69 355.15 410.12C365.23 403.95 375.18 397.57 384.98 390.98C388.47 388.52 392.98 387.23 395.31 383.4Z" fill="#E4E4E4"/>
<path d="M433.26 413.93C438.51 417.55 443.3 421.76 448.21 425.81C454.95 431.38 459.92 438.67 466.12 444.78C468.86 448.36 471.77 451.84 475.19 454.81C479 458.48 484.14 461.26 485.84 466.61C472.33 477.57 458.18 487.7 444.59 498.55C437.55 504.25 429.67 508.83 422.96 514.95C415.77 520.44 408.42 525.71 401.36 531.38C393.74 537.45 385.63 542.89 378.23 549.24C367.2 557.52 355.84 565.38 345.4 574.4C337.31 579.9 329.98 586.4 321.92 591.93C316.58 595.89 311.64 600.35 306.27 604.27C298.22 610.18 290.14 616.06 282.46 622.46C274.59 629.01 265.78 634.32 258.06 641.05C251.37 646.8 243.93 651.58 236.95 656.95C234.32 658.93 232.49 661.7 230.74 664.44C229.7 663.81 228.67 663.19 227.63 662.58C227.72 662.97 227.9 663.74 227.99 664.13C226.62 659.87 225.05 655.68 223.93 651.36C221.55 641.98 218.22 632.89 215.26 623.7C212.85 617.01 210.97 610.14 208.27 603.56C209.4 604.16 210.54 604.78 211.68 605.4C217.63 600 224.2 595.34 230.91 590.93C236.52 587.31 241.19 582.42 246.89 578.91C253.77 574.55 260.45 569.9 266.88 564.9C275.6 558.15 284.97 552.32 293.97 545.96C299.1 542.46 303.85 538.4 309.21 535.22C314.6 532.07 318.97 527.48 324.39 524.36C329.36 521.48 333.15 517.01 338.11 514.11C347.04 508.53 355.07 501.64 363.78 495.76C371.71 491.68 378.13 485.4 385.59 480.61C398.41 471.85 410.89 462.6 423.51 453.56C427.3 451.04 431.06 448.46 434.63 445.65C440.48 440.97 447.38 437.77 452.94 432.71C447.38 425.84 438.85 422.03 433.82 414.69L433.26 413.93Z" fill="#D6D6D7"/>
<path d="M433.82 414.69C438.85 422.03 447.38 425.84 452.94 432.71C447.38 437.77 440.48 440.97 434.63 445.65C431.06 448.46 427.3 451.04 423.51 453.56C410.89 462.6 398.41 471.85 385.59 480.61C378.13 485.4 371.71 491.68 363.78 495.76C355.07 501.64 347.04 508.53 338.11 514.11C333.15 517.01 329.36 521.48 324.39 524.36C318.97 527.48 314.6 532.07 309.21 535.22C303.85 538.4 299.1 542.46 293.97 545.96C284.97 552.32 275.6 558.15 266.88 564.9C260.45 569.9 253.77 574.55 246.89 578.91C241.19 582.42 236.52 587.31 230.91 590.93C224.2 595.34 217.63 600 211.68 605.4C210.54 604.78 209.4 604.16 208.27 603.56C204.4 595.27 201.49 586.59 198.37 578.01C200.65 577.32 202.75 576.14 204.42 574.43C210.28 568.74 217.69 565.09 224.08 560.08C232.18 554.06 240.89 548.91 249.2 543.19C257.58 536.78 266.84 531.63 275.17 525.15C279.9 521.45 285.25 518.65 290.05 515.06C301.99 506.57 314.33 498.66 326.39 490.34C340.82 479.26 356.62 470.14 371.03 459.04C379.83 453.19 388.86 447.65 397.37 441.38C403.37 436.58 410.25 433.07 416.26 428.3C422.12 423.77 429.56 421.03 433.82 414.69Z" fill="#DCDCDC"/>
<path d="M64.6802 425.7C68.0502 424.77 71.4702 423.87 75.0002 423.95C77.1202 424.32 79.2102 424.85 81.2502 425.53C89.9802 428.46 97.3402 434.08 104.8 439.29C120.65 451.69 133.74 467.18 145.91 483.12C150.98 490.69 156.16 498.19 161.38 505.66C165.15 513.33 169.84 520.49 173.91 528.01C177.61 536.04 182.16 543.64 186.14 551.53C189.93 560.48 194.52 569.08 198.37 578.01C201.49 586.59 204.4 595.27 208.27 603.56C210.97 610.14 212.85 617.01 215.26 623.7C218.22 632.89 221.55 641.98 223.93 651.36C225.05 655.68 226.62 659.87 227.99 664.13C230.18 672.92 232.77 681.62 234.85 690.45C238.01 701.35 239.52 712.64 242.47 723.59C244.6 737.83 247.45 751.96 248.95 766.29C250.92 778.06 251.95 789.94 252.43 801.86C251.84 801.76 250.66 801.55 250.07 801.45C249.89 802.72 249.73 804.01 249.6 805.31C249.21 802.79 248.71 800.29 248.43 797.76C247.87 782.82 245.46 768.05 243.6 753.24C237.82 718.43 230.62 683.77 219.96 650.1C217.56 642.76 215.85 635.19 212.98 628C208.94 617.87 206.02 607.34 201.84 597.26C198.57 589.47 196.02 581.38 192.24 573.81C187.94 564.74 184.31 555.35 179.56 546.49C175.88 539.75 172.89 532.65 168.95 526.05C162.74 515.64 157.13 504.85 150.01 495C144.03 485.5 136.87 476.85 130.04 467.96C117.39 453.79 103.61 439.92 86.2602 431.62C79.4802 428.35 72.0702 426.83 64.6802 425.7Z" fill="#566673"/>
<path d="M47.0799 429.95C52.4299 426.83 58.7099 426.54 64.6799 425.7C72.0699 426.83 79.4799 428.35 86.2599 431.62C103.61 439.92 117.39 453.79 130.04 467.96C136.87 476.85 144.03 485.5 150.01 495C157.13 504.85 162.74 515.64 168.95 526.05C172.89 532.65 175.88 539.75 179.56 546.49C184.31 555.35 187.94 564.74 192.24 573.81C196.02 581.38 198.57 589.47 201.84 597.26C206.02 607.34 208.94 617.87 212.98 628C215.85 635.19 217.56 642.76 219.96 650.1C230.62 683.77 237.82 718.43 243.6 753.24C245.46 768.05 247.87 782.82 248.43 797.76C237.46 789.91 226.25 782.42 214.97 775.03C201.24 764.95 186.61 756.16 172.79 746.22C144.04 726.61 114.97 707.46 86.3899 687.62C62.4899 671.36 38.2799 655.55 14.6799 638.85C14.3199 641.06 13.9299 643.28 13.5399 645.5C13.2399 645.28 12.6399 644.85 12.3399 644.63C12.4999 641.37 12.6799 638.07 12.0999 634.84C9.69991 621.33 8.91991 607.6 7.23991 594C6.09991 585.04 6.36991 576 6.14991 567C5.25991 539.88 6.99991 512.58 12.9499 486.06C15.0399 476.01 18.7799 466.39 23.0799 457.1C28.4299 446.16 35.8899 435.51 47.0799 429.95Z" fill="#8F8F8F"/>
<path d="M466.12 444.78C471.75 448.76 476.43 453.87 481.74 458.26C487.76 463.33 491.59 470.32 496.77 476.15C500.73 481.33 502.73 487.9 507.71 492.29C510.55 494.78 513.2 497.51 515.27 500.69C510.56 505.6 504.54 508.94 499.71 513.7C493.53 519.59 486.29 524.21 480.06 530.03C476.43 533.49 472.11 536.06 468.27 539.25C461.73 544.73 455.26 550.31 448.46 555.47C440.36 561.67 432.92 568.7 424.69 574.73C417.94 580.27 410.99 585.58 404.57 591.52C389.92 602.47 376.71 615.21 361.82 625.83C355.89 630.57 350.75 636.25 344.47 640.55C332.75 650.89 319.79 659.71 308.23 670.23C304.22 673.99 299.37 676.65 295.15 680.13C289.35 685 283.6 689.92 278.01 695.02C272.76 699.85 266.58 703.51 261.27 708.27C258.77 710.49 256.03 712.41 253.31 714.36C249.9 716.8 247.58 720.36 245.06 723.64C244.41 723.63 243.11 723.61 242.47 723.59C239.52 712.64 238.01 701.35 234.85 690.45C232.77 681.62 230.18 672.92 227.99 664.13C227.9 663.74 227.72 662.97 227.63 662.58C228.67 663.19 229.7 663.81 230.74 664.44C232.49 661.7 234.32 658.93 236.95 656.95C243.93 651.58 251.37 646.8 258.06 641.05C265.78 634.32 274.59 629.01 282.46 622.46C290.14 616.06 298.22 610.18 306.27 604.27C311.64 600.35 316.58 595.89 321.92 591.93C329.98 586.4 337.31 579.9 345.4 574.4C355.84 565.38 367.2 557.52 378.23 549.24C385.63 542.89 393.74 537.45 401.36 531.38C408.42 525.71 415.77 520.44 422.96 514.95C429.67 508.83 437.55 504.25 444.59 498.55C458.18 487.7 472.33 477.57 485.84 466.61C484.14 461.26 479 458.48 475.19 454.81C471.77 451.84 468.86 448.36 466.12 444.78Z" fill="#D0D0D0"/>
<path d="M13.54 645.5C13.93 643.28 14.32 641.06 14.68 638.85C38.28 655.55 62.49 671.36 86.39 687.62C114.97 707.46 144.04 726.61 172.79 746.22C186.61 756.16 201.24 764.95 214.97 775.03C226.25 782.42 237.46 789.91 248.43 797.76C248.71 800.29 249.21 802.79 249.6 805.31L249.65 806.28C219.96 785.93 189.77 766.34 160.28 745.71C154.82 742.19 149.3 738.75 144.12 734.83C138.98 730.88 133.08 728.06 128.07 723.95C121.69 718.84 114.49 714.92 107.9 710.11C103.02 706.6 97.9 703.44 92.97 700.02C78.05 689.15 62.35 679.41 47.34 668.67C35.84 661.29 25.1 652.79 13.54 645.5Z" fill="#9A9B9B"/>
</svg>
