<svg width="365" height="266" viewBox="0 0 365 266" fill="none" xmlns="http://www.w3.org/2000/svg">
<path d="M170.78 0H194.93C199.47 1.31 204.25 0.76 208.85 1.75C215.53 1.94 222.11 3.3 228.6 4.73C238.27 6.22 247.65 8.94 256.92 12.01C264.21 13.79 270.78 17.56 277.73 20.28C287.47 23.91 295.9 30.15 305.03 35.01C312.05 40.65 319.24 46.11 326.09 51.95C328.98 56.02 333.08 59 335.93 63.09C338.27 66.38 342 68.55 343.71 72.3C348.27 81.34 355.02 89.37 357.5 99.36C359.31 107.27 363.41 114.76 363.04 123.06C362.68 130.59 364.83 138.04 363.53 145.55C363.23 145.77 362.63 146.2 362.33 146.41C360.12 153.77 359.09 161.43 356.92 168.79C353.91 173.87 351.43 179.23 348.53 184.36C345.91 190.43 341.14 195.11 336.85 200C333.7 204.11 329.79 207.56 326.59 211.63C321.53 214.87 316.97 218.79 311.98 222.13C307.61 225.09 303.96 229.19 298.88 231.02C290.64 235.02 282.25 238.75 274.26 243.24C270.97 245.08 267.15 245.46 263.6 246.54C254.33 249.22 245.14 252.18 235.83 254.73C224.06 255.92 212.41 258.24 200.62 259.16C199.49 259.83 198.28 260.12 196.99 260.05C183.98 259.67 170.98 259.08 157.97 258.99C146.26 257.24 134.56 255.29 122.87 253.41C112.35 250.43 101.98 246.97 91.62 243.51C86.37 242.21 81.72 239.37 76.99 236.85C68.68 231.77 59.02 228.87 51.73 222.21C45.72 217.58 39.92 212.69 33.83 208.18C28.38 201.95 23.43 195.27 17.98 189.04C13.57 182.69 11.19 175.21 7.41 168.49C5.13 164.71 4.74 160.24 3.99 155.98C3.36 151.71 2.25 147.52 1.8 143.22C1.35 142.74 0.45 141.76 0 141.28V132.6C1.55 127.55 0.44 122.22 1.75 117.14C2.11 109.86 5.49 103.23 7.82 96.44C7.91 95.98 8.08 95.05 8.17 94.59C11.06 86.1 16.69 79 21.32 71.43C25.94 63.88 32.66 58.04 38.69 51.67C42.68 46.89 48.32 44 52.89 39.87C57.35 36.96 61.14 33.04 66.07 30.88C71.87 27.69 77.56 24.32 83.46 21.31C90.78 18.14 98.26 15.33 105.6 12.23C112.48 10.55 119.19 8.25 125.99 6.3C136.13 4.51 146.27 2.56 156.51 1.54C161.23 0.66 166.11 1.27 170.78 0ZM135.97 6.56C131.62 7.25 127.14 7.81 123.01 9.38C116.75 10.95 110.51 12.67 104.39 14.7C93.53 19.27 82.15 23.03 72.38 29.76C62.11 33.97 54.09 42 45.05 48.22C40.1 52.73 35.31 57.53 31.01 62.67C24.84 67.91 21.32 75.38 16.87 82C11.66 89.4 9.05 98.23 6.46 106.77C3.54 111.67 3.72 117.52 3.14 123.01C2.78 129.36 1.41 135.76 2.65 142.1C4 149.15 5.08 156.26 6.67 163.25C10.12 170.75 13.5 178.33 17.45 185.58C22.88 192.46 28.44 199.25 34.13 205.92C41.6 212.12 49.36 218 56.96 224.05C66.77 229.81 77.08 234.68 87.15 239.96C98.59 244.02 110.21 247.57 121.78 251.26C134.18 253.34 146.61 255.24 159.02 257.27C169.69 257.49 180.37 257.52 191.05 257.73C194.68 257.73 198.34 257.96 201.93 257.29C212.28 255.96 222.61 254.41 232.96 253.12C237.37 252.62 241.58 251.17 245.8 249.87C254.87 247.24 263.9 244.53 272.94 241.83L272.87 241.56C281.18 237.7 289.24 233.31 297.58 229.52C299.98 228.42 302.36 227.22 304.47 225.6C311.86 219.95 319.55 214.69 326.89 208.97C332.82 202.14 339.01 195.51 344.78 188.54C348.54 182.28 351.57 175.6 355.16 169.22C356.34 167.27 357.04 165.07 356.98 162.77C358.36 160.53 358.24 157.68 358.74 155.15L359.04 155.02C360.16 149.39 362.05 143.8 361.73 138C361.06 127.39 362 116.34 357.5 106.4L357.31 107.13C357.61 104.66 355.96 102.38 355.51 99.98C353.78 91.65 348.45 84.8 344.42 77.5C340.3 69.39 333.31 63.36 327.55 56.47C323.53 51.41 318.01 47.93 313.1 43.83C308.97 40.63 305.12 37 300.46 34.57C292.73 30.27 285.43 25.01 277.03 22.06C272 19.63 266.8 17.58 261.69 15.34C254.13 13.15 246.67 10.62 239.06 8.64C231.75 7.33 224.52 5.61 217.19 4.43C190.25 0.73 162.64 0.93 135.97 6.56Z" fill="#51586E"/>
<path d="M135.97 6.56002C162.64 0.930024 190.25 0.730024 217.19 4.43002C214.87 5.21002 212.68 6.47002 210.28 6.97002C207.94 6.31002 205.68 5.10002 203.17 5.42002C200.3 5.70002 197.55 4.68002 194.72 4.48002C192.68 4.96002 192.15 7.43002 190.67 8.69002C185.74 9.49002 180.71 8.64002 175.75 9.08002C175.68 10.3 175.62 11.52 175.56 12.75C171.18 13.62 166.71 13.88 162.27 14.29C162.77 15.76 163.27 17.23 163.77 18.7C160.6 19.41 157.4 20 154.18 20.43C154.18 21.01 154.17 22.15 154.16 22.72C155.17 23.62 156.18 24.53 157.18 25.44C151.88 27.99 146.26 29.84 141.02 32.54C143.28 34.17 145.78 35.42 148.2 36.77C144.12 40.79 138.75 43.76 135.99 48.94C133.69 53.25 133.76 58.32 134.08 63.06C134.13 67.02 137.51 69.64 139.77 72.5C136.61 76.52 131.41 77.9 127.26 80.6C131.2 85.34 136.67 88.27 141.92 91.28C138.63 94.69 135.23 98.01 132.24 101.69C135.66 103.78 142.03 103.02 142.73 107.94C141.19 111.8 138.41 115.01 136.33 118.58C141.87 120.2 147.67 120.88 153.06 123.03C151.65 127.33 149.75 131.51 149.02 136.02C148.31 140.41 145.89 144.26 144.99 148.61C150.7 150 156.61 150.24 162.36 151.48C172.42 152.74 182.6 151.59 192.7 152.19C192.65 160.11 193.86 167.96 194.18 175.86C194.07 177.92 195.86 179.66 197.95 179.08C206.49 178.24 214.95 176.63 223.53 176.17C225.27 184.18 228.03 191.93 229.41 200.02C234.96 200.05 239.95 197.14 245.38 196.29C250.39 195.48 255.22 192.27 260.3 192.77C263.44 199.01 264.67 206.06 268.02 212.24C272.82 210.47 277.08 207.52 281.95 205.9C285.04 204.87 287.81 203.13 290.68 201.64C293.45 200.17 296.79 200.1 299.44 198.4C306.08 193.07 313.23 188.41 320.42 183.88C322.01 185.81 320.43 190.58 323.84 190.31C331.1 184.7 335.58 176.19 343.16 170.86C343.69 172.39 342.67 175.32 344.73 175.72C347.21 171.58 349.65 167.41 352.12 163.27C353.94 160.3 354.84 156.06 358.74 155.15C358.24 157.68 358.36 160.53 356.98 162.77C353.14 167.07 351.41 172.68 348.49 177.57C346.12 182.28 342.55 186.19 338.94 189.98C335.01 194.03 331.77 198.68 327.73 202.63C326.9 201.35 326.06 200.09 325.24 198.82C318.03 203.68 311.23 209.12 304.1 214.08C293.35 219.55 282.17 224.2 271.47 229.79C270.62 227.49 269.87 225.15 269.18 222.8C257.8 225.52 246.82 229.87 235.3 231.92C235.03 228.92 234.54 225.96 233.86 223.03C221.59 223.37 209.58 226.67 197.29 226.92C197.02 219.67 197.42 212.3 195.62 205.2C184.81 204.51 173.95 205.66 163.16 204.51C162.98 200.44 163.01 196.37 162.78 192.3C153.18 189.14 142.85 190.27 133.11 187.61C133.97 183.43 135.41 179.4 136.64 175.32C127.78 172.78 118.92 170.2 110.1 167.52C111.29 163.48 114.07 160.11 115.04 156C114.71 155.05 114.1 154.34 113.21 153.87C107.17 150.8 100.44 149.04 94.8 145.21C96.76 142.41 99.12 139.91 101.09 137.12C101.9 136 102.05 134.04 100.59 133.37C96.15 130.24 91.2 127.91 86.91 124.55C89.81 120.54 94.45 118.17 97.18 113.94C90.64 109.02 85.35 102.64 81.65 95.35C81.21 94.25 80.43 92.69 81.86 91.95C85.01 89.81 88.66 88.55 91.99 86.73C90.76 81.12 88.12 75.82 87.97 69.99C88.15 59 93.44 48.75 100.57 40.63C103.27 37.33 106.98 35.13 110.09 32.26C107.74 31.56 105.39 30.9 103.04 30.25C106.63 28.11 110.2 25.94 113.78 23.79C117.92 21.3 122.6 19.95 126.97 17.95C125.77 17.1 124.57 16.25 123.38 15.4C128.05 13.92 132.72 12.44 137.4 10.99C136.93 9.52002 136.45 8.04002 135.97 6.56002Z" fill="#E9E9E9"/>
<path d="M190.67 8.68999C192.15 7.42999 192.68 4.95999 194.72 4.47999C197.55 4.67999 200.3 5.69999 203.17 5.41999C205.68 5.09999 207.94 6.30999 210.28 6.96999C212.68 6.46999 214.87 5.20999 217.19 4.42999C224.52 5.60999 231.75 7.32999 239.06 8.63999C246.67 10.62 254.13 13.15 261.69 15.34C266.8 17.58 272 19.63 277.03 22.06C269.72 23.61 262.09 21.24 254.92 23.67C248.44 25.72 241.73 27.1 235.55 29.98C238.31 31.52 241.25 32.83 243.67 34.92C240.67 36.51 237.3 37.03 234.01 37.65C234.95 39.41 235.89 41.18 236.82 42.95C233.26 43.74 229.68 44.42 226.13 45.25C228.04 50.51 231.66 55.56 230.69 61.44C230.72 66.84 225.66 69.97 223.16 74.22C227.49 76.56 232.26 78.07 236.25 81.01C234.53 83.69 231.88 85.48 229.21 87.08C233.44 89.91 237.76 92.75 241.05 96.71C237.84 98.32 234.68 100.03 231.66 101.99C232.62 108.19 238.96 110.95 242.04 115.92C245.27 120.92 249.02 125.54 252.99 129.97C258.56 136.21 262.62 143.57 267.95 150C272.22 156.41 276.09 163.09 280.79 169.21C283.41 172.56 285.21 176.45 287.71 179.88C289.53 178.59 291.4 177.38 293.41 176.41C299.26 173.88 303.03 168.23 309.03 165.94C311.51 168.36 313.27 171.37 315.04 174.32C316.01 173.89 316.95 173.39 317.85 172.83C323.13 167.77 327.42 161.71 333.04 157C334.49 159.23 336.1 161.36 337.84 163.38C341.1 157.79 344.35 152.2 347.75 146.69C351.82 140.12 351.53 132 354.87 125.12C355.74 126.19 356.61 127.25 357.5 128.32C358.89 121.3 354.81 114.12 357.31 107.13L357.5 106.4C362 116.34 361.06 127.39 361.73 138C362.05 143.8 360.16 149.39 359.04 155.02L358.74 155.15C354.84 156.06 353.94 160.3 352.12 163.27C349.65 167.41 347.21 171.58 344.73 175.72C342.67 175.32 343.69 172.39 343.16 170.86C335.58 176.19 331.1 184.7 323.84 190.31C320.43 190.58 322.01 185.81 320.42 183.88C313.23 188.41 306.08 193.07 299.44 198.4C296.79 200.1 293.45 200.17 290.68 201.64C287.81 203.13 285.04 204.87 281.95 205.9C277.08 207.52 272.82 210.47 268.02 212.24C264.67 206.06 263.44 199.01 260.3 192.77C255.22 192.27 250.39 195.48 245.38 196.29C239.95 197.14 234.96 200.05 229.41 200.02C228.03 191.93 225.27 184.18 223.53 176.17C214.95 176.63 206.49 178.24 197.95 179.08C195.86 179.66 194.07 177.92 194.18 175.86C193.86 167.96 192.65 160.11 192.7 152.19C182.6 151.59 172.42 152.74 162.36 151.48C156.61 150.24 150.7 150 144.99 148.61C145.89 144.26 148.31 140.41 149.02 136.02C149.75 131.51 151.65 127.33 153.06 123.03C147.67 120.88 141.87 120.2 136.33 118.58C138.41 115.01 141.19 111.8 142.73 107.94C142.03 103.02 135.66 103.78 132.24 101.69C135.23 98.01 138.63 94.69 141.92 91.28C136.67 88.27 131.2 85.34 127.26 80.6C131.41 77.9 136.61 76.52 139.77 72.5C137.51 69.64 134.13 67.02 134.08 63.06C133.76 58.32 133.69 53.25 135.99 48.94C138.75 43.76 144.12 40.79 148.2 36.77C145.78 35.42 143.28 34.17 141.02 32.54C146.26 29.84 151.88 27.99 157.18 25.44C156.18 24.53 155.17 23.62 154.16 22.72C154.17 22.15 154.18 21.01 154.18 20.43C157.4 20 160.6 19.41 163.77 18.7C163.27 17.23 162.77 15.76 162.27 14.29C166.71 13.88 171.18 13.62 175.56 12.75C175.62 11.52 175.68 10.3 175.75 9.07999C180.71 8.63999 185.74 9.48999 190.67 8.68999Z" fill="#F0F0F0"/>
<path d="M123.01 9.38C127.14 7.81 131.62 7.25 135.97 6.56C136.45 8.04 136.93 9.52 137.4 10.99C132.72 12.44 128.05 13.92 123.38 15.4C124.57 16.25 125.77 17.1 126.97 17.95C122.6 19.95 117.92 21.3 113.78 23.79C110.2 25.94 106.63 28.11 103.04 30.25C105.39 30.9 107.74 31.56 110.09 32.26C106.98 35.13 103.27 37.33 100.57 40.63C93.44 48.75 88.15 59 87.97 69.99C88.12 75.82 90.76 81.12 91.99 86.73C88.66 88.55 85.01 89.81 81.86 91.95C80.43 92.69 81.21 94.25 81.65 95.35C85.35 102.64 90.64 109.02 97.18 113.94C94.45 118.17 89.81 120.54 86.91 124.55C91.2 127.91 96.15 130.24 100.59 133.37C102.05 134.04 101.9 136 101.09 137.12C99.12 139.91 96.76 142.41 94.8 145.21C100.44 149.04 107.17 150.8 113.21 153.87C114.1 154.34 114.71 155.05 115.04 156C114.07 160.11 111.29 163.48 110.1 167.52C118.92 170.2 127.78 172.78 136.64 175.32C135.41 179.4 133.97 183.43 133.11 187.61C142.85 190.27 153.18 189.14 162.78 192.3C163.01 196.37 162.98 200.44 163.16 204.51C173.95 205.66 184.81 204.51 195.62 205.2C197.42 212.3 197.02 219.67 197.29 226.92C185.25 226.81 173.22 227.1 161.19 226.79C161.12 223.3 160.97 219.81 160.82 216.33C149.65 213.99 138.24 212.97 127.06 210.7C127.44 207.23 128.98 203.84 128.75 200.35C126.4 198.28 123.02 197.89 120.13 196.86C113.43 194.69 106.26 193.7 100 190.31C101.51 186.52 103.16 182.74 103.92 178.71C95.85 175.27 87.7 171.83 80.16 167.3C82.05 163.87 84.48 160.79 86.67 157.55C80.71 152.5 73.49 149.17 67.72 143.86C69.59 140.13 72.62 137.22 75.66 134.44C73.07 131.04 69.88 128.2 66.92 125.15C63.96 122.21 62.5 118.23 60.26 114.79C58.57 112.16 56.79 109.6 55.12 106.96C58.55 104.31 62.39 102.29 66.05 99.99C64.5 94.35 61.29 89.03 61.78 82.97C61.18 71.4 64.81 59.88 71.5 50.46C77.38 43.05 83.52 35.68 91.62 30.57C90.28 30.06 88.94 29.55 87.6 29.03C91.77 25.85 96.63 23.79 101.06 21.02C108.32 17.06 117.24 15.81 123.01 9.38Z" fill="#E3E3E3"/>
<path d="M104.39 14.7C110.51 12.67 116.75 10.95 123.01 9.38C117.24 15.81 108.32 17.06 101.06 21.02C96.63 23.79 91.77 25.85 87.6 29.03C88.94 29.55 90.28 30.06 91.62 30.57C83.52 35.68 77.38 43.05 71.5 50.46C64.81 59.88 61.18 71.4 61.78 82.97C61.29 89.03 64.5 94.35 66.05 99.99C62.39 102.29 58.55 104.31 55.12 106.96C56.79 109.6 58.57 112.16 60.26 114.79C62.5 118.23 63.96 122.21 66.92 125.15C69.88 128.2 73.07 131.04 75.66 134.44C72.62 137.22 69.59 140.13 67.72 143.86C73.49 149.17 80.71 152.5 86.67 157.55C84.48 160.79 82.05 163.87 80.16 167.3C87.7 171.83 95.85 175.27 103.92 178.71C103.16 182.74 101.51 186.52 100 190.31C106.26 193.7 113.43 194.69 120.13 196.86C123.02 197.89 126.4 198.28 128.75 200.35C128.98 203.84 127.44 207.23 127.06 210.7C138.24 212.97 149.65 213.99 160.82 216.33C160.97 219.81 161.12 223.3 161.19 226.79C173.22 227.1 185.25 226.81 197.29 226.92C197.94 230.25 198.17 233.64 198.08 237.03C185.49 236.65 172.87 237.26 160.29 236.63C148.08 234.02 135.62 232.69 123.33 230.49C123.84 227.41 124.23 224.29 123.96 221.17C113.35 217.87 102.68 214.73 92.08 211.36C92.54 208.18 93.25 205.03 94.14 201.94C90.31 199.02 85.51 197.93 81.4 195.5C76.53 192.67 70.82 191.3 66.64 187.36C60.12 181.47 52.24 177.27 45.94 171.14C47.65 168.65 49.33 166.15 51.21 163.79C48.23 158.66 43.52 154.82 39.73 150.3C35.35 146.29 33.6 140.48 30.54 135.56C28.77 132.66 27.12 129.67 26.13 126.4C28.45 124.98 30.96 123.75 32.83 121.74C34.23 120.48 33.26 118.53 33.06 116.98C32.1 111.96 29.3 107.22 29.82 101.98C30.2 95.86 29.88 89.6 31.63 83.65C33.2 78.43 34.61 73.07 37.23 68.25C41.42 61.56 45.18 54.4 51.27 49.18C55.54 45.29 58.75 40.25 63.71 37.13C66.95 35.12 69.99 32.76 72.38 29.76C82.15 23.03 93.53 19.27 104.39 14.7Z" fill="#DBDBDB"/>
<path d="M254.92 23.67C262.09 21.24 269.72 23.61 277.03 22.06C285.43 25.01 292.73 30.27 300.46 34.57C305.12 37 308.97 40.63 313.1 43.83C318.01 47.93 323.53 51.41 327.55 56.47C333.31 63.36 340.3 69.39 344.42 77.5C348.45 84.8 353.78 91.65 355.51 99.98C355.96 102.38 357.61 104.66 357.31 107.13C354.81 114.12 358.89 121.3 357.5 128.32C356.61 127.25 355.74 126.19 354.87 125.12C351.53 132 351.82 140.12 347.75 146.69C344.35 152.2 341.1 157.79 337.84 163.38C336.1 161.36 334.49 159.23 333.04 157C327.42 161.71 323.13 167.77 317.85 172.83C316.95 173.39 316.01 173.89 315.04 174.32C313.27 171.37 311.51 168.36 309.03 165.94C303.03 168.23 299.26 173.88 293.41 176.41C291.4 177.38 289.53 178.59 287.71 179.88C285.21 176.45 283.41 172.56 280.79 169.21C276.09 163.09 272.22 156.41 267.95 150C262.62 143.57 258.56 136.21 252.99 129.97C249.02 125.54 245.27 120.92 242.04 115.92C238.96 110.95 232.62 108.19 231.66 101.99C234.68 100.03 237.84 98.32 241.05 96.71C237.76 92.75 233.44 89.91 229.21 87.08C231.88 85.48 234.53 83.69 236.25 81.01C232.26 78.07 227.49 76.56 223.16 74.22C225.66 69.97 230.72 66.84 230.69 61.44C231.66 55.56 228.04 50.51 226.13 45.25C229.68 44.42 233.26 43.74 236.82 42.95C235.89 41.18 234.95 39.41 234.01 37.65C237.3 37.03 240.67 36.51 243.67 34.92C241.25 32.83 238.31 31.52 235.55 29.98C241.73 27.1 248.44 25.72 254.92 23.67Z" fill="#F7F7F7"/>
<path d="M45.05 48.22C54.09 42 62.11 33.97 72.38 29.76C69.99 32.76 66.95 35.12 63.71 37.13C58.75 40.25 55.54 45.29 51.27 49.18C45.18 54.4 41.42 61.56 37.23 68.25C34.61 73.07 33.2 78.43 31.63 83.65C29.88 89.6 30.2 95.86 29.82 101.98C29.3 107.22 32.1 111.96 33.06 116.98C33.26 118.53 34.23 120.48 32.83 121.74C30.96 123.75 28.45 124.98 26.13 126.4C27.12 129.67 28.77 132.66 30.54 135.56C33.6 140.48 35.35 146.29 39.73 150.3C43.52 154.82 48.23 158.66 51.21 163.79C49.33 166.15 47.65 168.65 45.94 171.14C52.24 177.27 60.12 181.47 66.64 187.36C70.82 191.3 76.53 192.67 81.4 195.5C85.51 197.93 90.31 199.02 94.14 201.94C93.25 205.03 92.54 208.18 92.08 211.36C102.68 214.73 113.35 217.87 123.96 221.17C124.23 224.29 123.84 227.41 123.33 230.49C135.62 232.69 148.08 234.02 160.29 236.63C160.15 239.39 160.04 242.17 159.95 244.94L158.76 244.83C146.61 242.39 134.27 241.01 122.07 238.81C110.8 234.98 99.39 231.58 88.05 227.98C88.46 225.63 88.87 223.27 89.27 220.92C79.96 215.27 70.13 210.54 60.45 205.55C52.6 199.53 44.79 193.45 36.96 187.39C38.21 185.04 39.31 182.62 40.28 180.15C33.36 171.56 24.67 164.03 20.43 153.62C17.89 148.15 14.28 143.03 13.35 136.95C12.52 131.86 11.14 126.88 10.48 121.77C9.90001 118.16 14.4 116.36 14.68 112.91C15.58 105.81 15.09 98.43 17.56 91.59C19.78 85.36 21.42 78.8 25.2 73.27C27.49 69.94 29.53 66.44 31.01 62.67C35.31 57.53 40.1 52.73 45.05 48.22Z" fill="#CECECE"/>
<path d="M16.87 82C21.32 75.38 24.84 67.91 31.01 62.67C29.53 66.44 27.49 69.94 25.2 73.27C21.42 78.8 19.78 85.36 17.56 91.59C15.09 98.43 15.58 105.81 14.68 112.91C14.4 116.36 9.90002 118.16 10.48 121.77C11.14 126.88 12.52 131.86 13.35 136.95C14.28 143.03 17.89 148.15 20.43 153.62C24.67 164.03 33.36 171.56 40.28 180.15C39.31 182.62 38.21 185.04 36.96 187.39L36.26 186.82C32.27 183.07 29.18 178.51 25.36 174.6C22.38 171.47 19.77 167.98 17.98 164.04C15.06 157.62 11.24 151.59 9.22002 144.79C8.05002 138.85 6.42002 132.99 5.74002 126.97C5.42002 120.22 7.06002 113.53 6.46002 106.77C9.05002 98.23 11.66 89.4 16.87 82Z" fill="#C0C0BF"/>
<path d="M3.13997 123.01C3.71997 117.52 3.53997 111.67 6.45997 106.77C7.05997 113.53 5.41997 120.22 5.73997 126.97C6.41997 132.99 8.04997 138.85 9.21997 144.79C8.69997 147.53 7.67997 150.19 7.53997 152.99C8.21997 155.83 9.86997 158.3 11.1 160.92C14.52 167.37 16.93 174.53 22.05 179.91C26.52 184.77 30.43 190.12 34.89 194.98C42.33 201.21 50.35 206.74 57.79 212.98C57.55 214.92 57.32 216.87 57.09 218.82C61.22 222 66.14 223.84 70.71 226.26C76.25 228.97 81.48 232.3 87.13 234.78C98.62 238.81 110.38 242.02 121.91 245.93C121.87 247.7 121.82 249.48 121.78 251.26C110.21 247.57 98.59 244.02 87.15 239.96C77.08 234.68 66.77 229.81 56.96 224.05C49.36 218 41.6 212.12 34.13 205.92C28.44 199.25 22.88 192.46 17.45 185.58C13.5 178.33 10.12 170.75 6.66997 163.25C5.07997 156.26 3.99997 149.15 2.64997 142.1C1.40997 135.76 2.77997 129.36 3.13997 123.01Z" fill="#AAAAAA"/>
<path d="M9.21998 144.79C11.24 151.59 15.06 157.62 17.98 164.04C19.77 167.98 22.38 171.47 25.36 174.6C29.18 178.51 32.27 183.07 36.26 186.82C35.78 189.53 35.33 192.25 34.89 194.98C30.43 190.12 26.52 184.77 22.05 179.91C16.93 174.53 14.52 167.37 11.1 160.92C9.86998 158.3 8.21998 155.83 7.53998 152.99C7.67998 150.19 8.69998 147.53 9.21998 144.79Z" fill="#B7B7B7"/>
<path d="M348.49 177.57C351.41 172.68 353.14 167.07 356.98 162.77C357.04 165.07 356.34 167.27 355.16 169.22C351.57 175.6 348.54 182.28 344.78 188.54C339.01 195.51 332.82 202.14 326.89 208.97C319.55 214.69 311.86 219.95 304.47 225.6C302.36 227.22 299.98 228.42 297.58 229.52C289.24 233.31 281.18 237.7 272.87 241.56C272.49 240.08 272.11 238.6 271.74 237.12C259.79 239.9 248.27 244.32 236.28 246.96C236.19 244.99 236.1 243.03 236.02 241.07C229.96 240.42 224.02 242.09 218.04 242.72C211.37 243.4 204.78 245.06 198.04 244.84C198.03 242.24 198.02 239.63 198.08 237.03C210.5 235.42 222.93 233.9 235.3 231.92C246.82 229.87 257.8 225.52 269.18 222.8C269.87 225.15 270.62 227.49 271.47 229.79C282.17 224.2 293.35 219.55 304.1 214.08C311.23 209.12 318.03 203.68 325.24 198.82C326.06 200.09 326.9 201.35 327.73 202.63C331.77 198.68 335.01 194.03 338.94 189.98C342.55 186.19 346.12 182.28 348.49 177.57Z" fill="#D7D7D7"/>
<path d="M36.26 186.82L36.96 187.39C44.79 193.45 52.6 199.53 60.45 205.55C59.57 208.03 58.69 210.5 57.79 212.98C50.35 206.74 42.33 201.21 34.89 194.98C35.33 192.25 35.78 189.53 36.26 186.82Z" fill="#BCBCBC"/>
<path d="M60.45 205.55C70.13 210.54 79.96 215.27 89.27 220.92C88.87 223.27 88.46 225.63 88.05 227.98L87.17 227.66C77.03 223.5 67.87 217.32 57.79 212.98C58.69 210.5 59.57 208.03 60.45 205.55Z" fill="#C1C1C1"/>
<path d="M236.28 246.96C248.27 244.32 259.79 239.9 271.74 237.12C272.11 238.6 272.49 240.08 272.87 241.56L272.94 241.83C263.9 244.53 254.87 247.24 245.8 249.87C241.58 251.17 237.37 252.62 232.96 253.12C222.61 254.41 212.28 255.96 201.93 257.29C200.84 257.03 199.76 256.75 198.69 256.48C198.24 255.5 197.79 254.52 197.35 253.55C195.48 253.03 193.61 252.5 191.7 252.11C193.88 252.06 196.06 251.97 198.24 251.89C210.99 250.96 223.65 248.91 236.28 246.96Z" fill="#C1C1C1"/>
<path d="M122.07 238.81C134.27 241.01 146.61 242.39 158.76 244.83C159.05 247.19 159.37 249.55 159.72 251.9L159.05 251.84C146.69 249.76 134.32 247.72 121.91 245.93C121.96 243.55 122.01 241.18 122.07 238.81Z" fill="#C1C1C1"/>
<path d="M57.79 212.98C67.87 217.32 77.03 223.5 87.17 227.66C87.15 230.03 87.14 232.41 87.13 234.78C81.48 232.3 76.25 228.97 70.71 226.26C66.14 223.84 61.22 222 57.09 218.82C57.32 216.87 57.55 214.92 57.79 212.98Z" fill="#B5B5B5"/>
<path d="M197.29 226.92C209.58 226.67 221.59 223.37 233.86 223.03C234.54 225.96 235.03 228.92 235.3 231.92C222.93 233.9 210.5 235.42 198.08 237.03C198.17 233.64 197.94 230.25 197.29 226.92Z" fill="#DFDFDF"/>
<path d="M87.17 227.66L88.05 227.98C99.39 231.58 110.8 234.98 122.07 238.81C122.01 241.18 121.96 243.55 121.91 245.93C110.38 242.02 98.62 238.81 87.13 234.78C87.14 232.41 87.15 230.03 87.17 227.66Z" fill="#BABABA"/>
<path d="M159.05 251.84L159.72 251.9C170.38 251.94 181.04 252.06 191.7 252.11C193.61 252.5 195.48 253.03 197.35 253.55C197.79 254.52 198.24 255.5 198.69 256.48C199.76 256.75 200.84 257.03 201.93 257.29C198.34 257.96 194.68 257.73 191.05 257.73C180.37 257.52 169.69 257.49 159.02 257.27C159.03 255.46 159.04 253.64 159.05 251.84Z" fill="#BABABA"/>
<path d="M160.29 236.63C172.87 237.26 185.49 236.65 198.08 237.03C198.02 239.63 198.03 242.24 198.04 244.84C194.88 244.76 191.72 244.95 188.56 245.23C179.03 244.81 169.49 245.06 159.95 244.94C160.04 242.17 160.15 239.39 160.29 236.63Z" fill="#D2D2D2"/>
<path d="M218.04 242.72C224.02 242.09 229.96 240.42 236.02 241.07C236.1 243.03 236.19 244.99 236.28 246.96C223.65 248.91 210.99 250.96 198.24 251.89C198.1 250.05 197.96 248.21 197.83 246.37C194.71 246.23 191.62 245.82 188.56 245.23C191.72 244.95 194.88 244.76 198.04 244.84C204.78 245.06 211.37 243.4 218.04 242.72Z" fill="#CDCDCD"/>
<path d="M158.76 244.83L159.95 244.94C169.49 245.06 179.03 244.81 188.56 245.23C191.62 245.82 194.71 246.23 197.83 246.37C197.96 248.21 198.1 250.05 198.24 251.89C196.06 251.97 193.88 252.06 191.7 252.11C181.04 252.06 170.38 251.94 159.72 251.9C159.37 249.55 159.05 247.19 158.76 244.83Z" fill="#C7C7C7"/>
<path d="M121.91 245.93C134.32 247.72 146.69 249.76 159.05 251.84C159.04 253.64 159.03 255.46 159.02 257.27C146.61 255.24 134.18 253.34 121.78 251.26C121.82 249.48 121.87 247.7 121.91 245.93Z" fill="#B3B3B3"/>
</svg>
