<svg width="807" height="891" viewBox="0 0 807 891" fill="none" xmlns="http://www.w3.org/2000/svg">
<g clip-path="url(#clip0)">
<path d="M609.99 10.97C615.41 9.82 620.7 12.08 625.93 13.19C630.36 14.03 633.28 17.72 636.46 20.58C641.96 26.03 648.15 31.01 652.21 37.72C655.96 44.22 660.77 50.02 664.48 56.54C680.44 77.75 694.86 100.02 710.56 121.42C716.47 130.74 723.43 139.35 729.25 148.73C733.27 154.86 738.87 159.86 742.29 166.41C744.71 171.16 748.66 174.87 751.5 179.35C754.54 183.97 757.91 188.36 761.04 192.92C769.44 206.28 779.38 218.59 788.26 231.62C790.43 234.83 793.78 238.25 792.56 242.48C789.86 244.57 786.63 245.8 783.71 247.53C777.69 250.74 772.4 255.16 766.24 258.12C760.51 260.81 756.2 265.72 750.36 268.2C746.29 269.95 742.48 272.26 739.13 275.15C733.94 279.76 726.67 280.84 721.49 285.46C715.83 290.5 708.47 292.87 702.36 297.23C695.62 302.02 687.94 305.28 681.41 310.38C676.78 314.08 670.57 315.12 666.22 319.23C663.06 322.24 659.28 324.44 655.24 326.03C648.8 328.53 644.25 334.09 637.95 336.86C630.4 340.34 623.96 345.72 616.58 349.5C613.13 351.26 609.99 353.54 606.95 355.93C601.53 360.19 594.52 361.75 589.27 366.27C584.14 370.83 577.29 372.62 572.01 376.95C567.25 380.8 561.51 383.07 556.36 386.32C551.19 389.43 546.36 393.11 540.92 395.76C535.15 398.41 530.84 403.38 524.93 405.81C517.62 408.74 512.15 414.76 504.9 417.81C498.33 420.53 493.5 426.03 487.1 429.04C480.47 432.14 474.88 436.98 468.31 440.18C464.36 442.06 460.83 444.65 457.42 447.36C452.41 451.4 445.7 452.52 440.84 456.8C437.17 459.96 432.98 462.43 428.55 464.38C422.3 467.18 417.6 472.49 411.25 475.11C405.18 477.71 400.47 482.53 394.54 485.37C385.43 489.84 377.97 497.45 368.1 500.37C361.26 495.58 358.64 486.88 353.47 480.54C350.18 476.67 348.29 471.85 345.03 467.96C342.36 464.81 340.61 461.04 338.49 457.53C319.89 430.13 301.86 402.32 283.3 374.87C280.64 370.24 277.96 365.62 274.69 361.38C252.76 327.72 229.99 294.62 208.02 261C197.43 244.11 184.01 228.42 166.58 218.35C166.51 217.88 166.38 216.94 166.32 216.47C172.74 213.46 179.54 211.29 185.75 207.79C202.2 201.03 217.52 191.86 233.99 185.16C245.7 179.37 257.62 174.04 269.53 168.69C281.12 163.32 292.16 156.78 304.11 152.21C323.21 142.8 342.95 134.69 361.81 124.78C369.58 120.66 377.93 117.81 385.76 113.82C399.47 107.07 413.56 101.14 427.16 94.17C436.19 90.27 444.82 85.53 453.99 81.96C461.8 77.41 470.53 74.82 478.35 70.29C488.04 66.2 497.17 60.92 506.89 56.9C523.83 48.71 541.2 41.44 558 32.92C565.03 29.74 571.67 25.7 578.96 23.06C589.03 18.41 598.95 12.94 609.99 10.97Z" fill="#F9F9F9"/>
<path d="M594.01 5.23C604.15 2.66 614.79 -1.75 625.26 2.01C632.01 5.01 638.95 8.45 643.75 14.26C647.85 19.15 653.51 22.65 656.71 28.3C661.17 36.27 667.59 42.87 672.33 50.64C679.45 61.78 688.18 71.8 694.86 83.21C698.43 88.87 703.34 93.58 706.42 99.57C709.63 105.8 715.63 109.95 718.86 116.17C722.56 122.97 727.56 128.92 731.44 135.61C735.15 143.22 740.82 149.58 745.43 156.63C752.52 165.96 758.56 176.04 765.8 185.26C770.33 190.88 773.31 197.57 778.03 203.03C782.38 208.1 785.67 213.95 789.97 219.05C793.85 223.68 796.19 229.36 800.09 233.97C801.86 236.27 803.98 238.44 805 241.21C805.66 246.29 804.01 251.31 803.78 256.37C803.26 265.94 801.08 275.38 801.42 285C801.82 302 796.96 318.65 797.8 335.65C795.99 351.6 796.23 367.75 793.94 383.67C793.01 394.94 792.89 406.28 791.78 417.54C790.64 425.64 789.52 433.76 789.47 441.96C789.24 456.33 788.17 470.68 786 484.89C785.31 498.1 784.67 511.33 783.89 524.54C782.52 536.74 781.67 548.99 780.7 561.23C780.11 568.11 781.02 575.18 779.19 581.92C778.39 585.14 775.9 587.56 773.2 589.31C760.22 597.77 748.6 608.08 735.94 616.99C728.1 622.47 721.03 628.96 713.04 634.25C704.81 640.66 696.08 646.41 688.16 653.21C673.96 663.29 660.41 674.22 646.28 684.37C640.08 689.53 633.23 693.84 627.01 698.99C617.36 706.73 606.7 713.19 597.54 721.55C593.34 725.16 588.23 727.46 583.86 730.84C568.77 742.86 553.06 754.08 537.77 765.84C525.21 775.28 512.63 784.7 499.98 794.02C495.94 797.4 491.93 800.84 487.43 803.61C481.52 807.22 476.56 812.1 470.84 815.98C463.22 820.87 456.78 827.35 449.11 832.2C440.53 839 431.25 844.85 422.81 851.84C413.51 859.27 403.54 865.8 394.29 873.3C388.56 877.2 383.15 881.52 377.73 885.84C374.72 887.88 371.04 890.61 367.24 889.08C362.63 887.3 358.92 883.93 354.86 881.24C349.5 877.41 343.4 874.8 337.94 871.13C334.44 868.79 330.73 866.8 326.94 864.98C314.81 856.93 301.61 850.65 289.63 842.34C281.77 836.62 272.96 832.45 264.77 827.25C256.68 822.8 249.78 816.5 241.43 812.49C233.14 807.08 224.36 802.46 216.39 796.58C211.01 792.78 204.69 790.56 199.54 786.42C194.37 782.28 187.71 780.65 182.63 776.38C177.82 772.33 171.98 769.83 166.94 766.11C163.02 763.25 158.93 760.63 154.65 758.36C141.14 751.21 129.29 741.35 115.69 734.36C107.27 730.02 100.21 723.57 91.8701 719.1C83.3301 714.56 75.2901 709.17 67.3201 703.72C55.8101 695.68 42.8801 689.81 31.8401 681.09C27.7201 678.05 28.6401 672.43 27.9901 668C26.2601 654.7 27.1001 641.22 25.0501 627.94C23.0701 615.11 23.1301 602.11 21.8801 589.22C20.9901 577.92 20.3801 566.59 18.9301 555.34C18.1801 549.59 18.4301 543.78 18.2401 538C18.0201 530.93 15.9701 524.08 15.8401 517.01C15.6701 509.33 14.7001 501.71 14.0001 494.07C13.1901 485.68 13.3601 477.22 12.4701 468.83C10.6801 452.25 9.7901 435.59 8.5801 418.97C8.0901 413.95 6.2501 409.13 6.2701 404.05C6.1801 395.34 6.5201 386.56 5.0501 377.93C3.6201 369.69 4.2801 361.29 3.1701 353.02C1.6801 342.83 1.5701 332.5 1.1001 322.24C3.5101 319.2 7.1501 317.53 10.1601 315.19C15.9101 310.89 22.2201 307.37 27.7701 302.8C34.3401 297.28 41.4801 292.52 48.3501 287.39C55.4301 282.53 61.6601 276.54 68.9301 271.94C75.1201 267.92 80.2901 262.56 86.4101 258.44C93.7301 253.51 100.04 247.18 107.68 242.7C114.54 238.76 120.22 233.18 126.77 228.77C137.8 219.9 150.23 212.89 163.2 207.29C169.69 204.51 175.45 200.2 182.24 198.13C192.41 194.97 201.36 189.05 211.18 185.08C218.28 182.16 224.77 177.99 231.75 174.81C238.57 171.52 245.8 169.13 252.44 165.45C257.99 162.4 264.23 160.9 269.79 157.86C274.37 155.4 278.94 152.89 283.69 150.76C294.28 146.12 304.31 140.29 315.12 136.14C320.74 134.01 325.97 131.02 331.38 128.44C338.57 125.41 345.79 122.45 352.56 118.54C364.77 112.71 376.78 106.41 389.39 101.47C393.32 99.92 397.03 97.89 400.75 95.9C406.53 92.78 413.03 91.16 418.58 87.58C425.86 82.69 434.51 80.54 442.06 76.12C457.12 69.68 472.08 62.96 486.74 55.64C493.85 51.51 501.64 48.79 508.88 44.92C512.44 43.04 516.15 41.46 519.89 39.94C525.25 37.78 530.15 34.63 535.57 32.6C540.1 30.91 544.57 29.04 548.81 26.71C555.51 22.98 562.71 20.24 569.39 16.46C574.67 13.5 580.5 11.73 585.84 8.89C588.48 7.51 591.14 6.11 594.01 5.23ZM608.48 7.77C601.49 9.59 594.75 12.35 588.32 15.63C583.12 18.12 577.67 20.09 572.48 22.59C556.95 30.66 541.04 37.94 525.15 45.26C497.65 57.11 471.55 72.04 443.63 82.9C430.43 89.31 417.48 96.24 404 102.06C398.82 104.67 393.66 107.33 388.23 109.38C382.86 112.11 377.34 114.53 371.76 116.81C359.62 122.64 347.82 129.21 335.36 134.37C329.99 136.66 325.06 139.92 319.48 141.7C315.4 142.92 311.76 145.14 307.94 146.96C291.35 154.13 275.74 163.38 259.03 170.31C247.91 174.98 237.18 180.53 226.09 185.27C220.66 187.69 215.7 191.03 210.15 193.18C203.17 196.04 196.72 199.99 189.77 202.92C182.46 205.79 175.47 209.37 168.18 212.3C165.42 213.84 160.45 215.23 161.5 219.33C165.95 221.62 171.04 222.75 174.91 226.1C182.03 231.93 189.19 237.91 194.65 245.4C206.55 260.49 216.05 277.25 227.07 292.94C236.77 308.19 247.38 322.83 256.95 338.16C264.01 348.77 271.27 359.22 278.27 369.86C281.26 375.95 285.72 381.1 289.22 386.87C295.32 396.07 301.61 405.14 307.63 414.39C311.67 419.23 313.75 425.34 317.89 430.1C320.84 433.62 322.42 438.06 325.42 441.54C328.89 445.57 331.12 450.46 334.35 454.66C345.34 470.9 355.63 487.62 367.25 503.43C372.96 500.52 378.88 497.87 383.97 493.92C387.25 491.38 390.94 489.47 394.56 487.48C400.57 484.25 405.89 479.9 411.98 476.83C418.05 473.76 423.09 469.01 429.3 466.19C436.59 462.83 442.22 456.78 449.61 453.61C456.39 450.77 461.78 445.61 468.29 442.28C475.22 438.66 481.54 434.02 488.37 430.23C494.09 427.03 499.01 422.51 505.06 419.88C509.03 418.15 512.6 415.69 515.98 413.01C520.8 409.16 526.9 407.46 531.84 403.8C538.65 398.73 546.24 394.85 553.36 390.25C560.01 385.86 567.37 382.59 573.62 377.58C577.71 374.31 583.11 373.37 587.21 370.12C589.31 368.56 591.3 366.82 593.51 365.39C597.8 362.54 602.85 361.02 607.02 357.94C613.2 353.28 620.19 349.86 626.57 345.49C633.88 341.2 641.42 337.24 648.15 332.04C653.33 327.95 660.02 326.42 665.04 322.06C670.69 317.27 678.12 315.44 683.88 310.83C687.11 308.29 690.63 306.13 694.24 304.16C701.49 300.18 708.25 295.36 715.57 291.5C720.75 288.82 724.83 284.37 730.3 282.19C734.39 280.61 737.87 277.93 741.33 275.3C746.21 271.57 752.36 269.98 757.22 266.19C763.65 260.98 771.39 257.78 778.12 253C783.28 249.49 789.31 247.24 793.97 243.04C796.71 238.59 792.53 234.33 789.96 230.97C782.5 220.17 775.08 209.32 767.07 198.92C760.56 187.97 752.26 178.23 745.55 167.41C740.93 160.41 735.62 153.88 731.14 146.78C727.73 141.28 723.82 136.13 720.05 130.88C709.55 117.56 701.27 102.66 690.54 89.49C686.05 84.38 683.37 78.04 679.26 72.66C674.86 67.02 671.29 60.8 666.64 55.35C658.35 44.93 652.42 32.58 642.46 23.54C637.68 18.72 632.76 13.76 626.74 10.51C620.98 8.31 614.67 6.51 608.48 7.77ZM791.43 253.36C782.34 258.52 773.53 264.13 764.62 269.58C758.38 274.74 750.34 276.93 744.11 282.11C739.4 286.05 733.43 287.88 728.46 291.39C715.2 300.75 700.52 307.87 687.2 317.14C683.81 319.58 680.08 321.47 676.36 323.33C670.48 326.19 665.67 330.79 659.76 333.61C653.54 336.49 648.43 341.16 642.42 344.39C634.54 348.73 627.06 353.74 619.25 358.19C615.07 360.55 611.45 363.78 607.2 366.03C604.14 367.68 600.89 368.99 597.96 370.87C594.5 373.02 591.48 375.83 587.89 377.76C585.04 379.28 582.06 380.57 579.38 382.38C565.61 392.26 550.12 399.43 536.38 409.35C533.4 411.54 530.04 413.1 526.73 414.71C520.39 417.72 515.42 422.93 509.06 425.9C503.51 428.5 498.53 432.06 493.44 435.43C486.69 439.31 480.2 443.64 473.43 447.49C466.14 451.35 459.8 456.78 452.29 460.24C445.64 463.24 440.51 468.68 433.92 471.77C427.5 474.76 422.08 479.4 415.87 482.76C409.66 486.13 404.02 490.46 397.72 493.67C391.86 496.62 387.07 501.29 381.11 504.04C377.42 505.94 373.34 507.37 370.37 510.37C369.8 514.3 370.46 518.27 370.61 522.22C371.27 539.52 370.03 556.86 371.42 574.14C371.39 589.1 371.21 604.08 371.41 619.04C373.1 636.84 371.73 654.73 372.54 672.57C373.49 692.02 371.93 711.53 373.6 730.95C373.73 747.63 373.59 764.31 373.64 781C373.49 811.34 374.01 841.7 373.72 872.04C373.76 873.64 373.96 875.79 375.88 876.25C382.37 871.24 389.4 866.97 395.65 861.64C400.6 857.56 406.04 854.09 410.69 849.66C413.48 847.05 416.72 845.01 419.87 842.87C423.6 840.34 426.56 836.87 430.27 834.32C434.95 831.01 439.74 827.83 444.09 824.08C448.97 819.9 454.48 816.53 459.39 812.38C464.71 807.97 470.69 804.45 475.99 800.01C482.4 794.68 489.54 790.31 495.97 784.99C500.75 781.04 506.18 777.94 510.85 773.83C515.89 769.46 521.75 766.18 526.78 761.79C532.91 756.88 539.65 752.79 545.55 747.57C562.51 735.65 578.71 722.7 595.41 710.42C598.8 708.04 602.8 706.67 606.05 704.07C615.7 696.32 625.54 688.81 635.51 681.47C641.52 677.6 646.51 672.4 652.35 668.31C659.88 663.29 666.59 657.19 674.12 652.18C679.56 647.52 685.55 643.58 691.39 639.44C698.01 633.98 705.28 629.38 711.89 623.91C730.32 609.96 749.29 596.73 767.7 582.77C768.99 581.73 770.42 580.77 771.38 579.39C772.72 573.01 771.87 566.42 772.42 559.96C772.86 548.59 775.37 537.4 775.44 526.01C776.7 510.02 776.44 493.89 779.05 478.03C779.2 468.99 780.94 460.06 780.73 451.01C780.8 440.59 783 430.34 783.35 419.95C783.58 413.95 784.56 408 784.36 401.99C784.03 394.27 785.8 386.69 786.12 379C786.61 369.3 788.21 359.69 788.35 349.97C788.7 334.58 790.67 319.31 792.01 304C792.47 291.96 793.37 279.96 794.36 267.96C794.62 262.64 796.16 257.42 795.83 252.09C794.32 251.27 792.81 252.87 791.43 253.36Z" fill="#7D7D7D"/>
<path d="M608.48 7.77C614.67 6.51 620.98 8.31 626.74 10.51C632.76 13.76 637.68 18.72 642.46 23.54C652.42 32.58 658.35 44.93 666.64 55.35C671.29 60.8 674.86 67.02 679.26 72.66C683.37 78.04 686.05 84.38 690.54 89.49C701.27 102.66 709.55 117.56 720.05 130.88C723.82 136.13 727.73 141.28 731.14 146.78C735.62 153.88 740.93 160.41 745.55 167.41C752.26 178.23 760.56 187.97 767.07 198.92C775.08 209.32 782.5 220.17 789.96 230.97C792.53 234.33 796.71 238.59 793.97 243.04C789.31 247.24 783.28 249.49 778.12 253C771.39 257.78 763.65 260.98 757.22 266.19C752.36 269.98 746.21 271.57 741.33 275.3C737.87 277.93 734.39 280.61 730.3 282.19C724.83 284.37 720.75 288.82 715.57 291.5C708.25 295.36 701.49 300.18 694.24 304.16C690.63 306.13 687.11 308.29 683.88 310.83C678.12 315.44 670.69 317.27 665.04 322.06C660.02 326.42 653.33 327.95 648.15 332.04C641.42 337.24 633.88 341.2 626.57 345.49C620.19 349.86 613.2 353.28 607.02 357.94C602.85 361.02 597.8 362.54 593.51 365.39C591.3 366.82 589.31 368.56 587.21 370.12C583.11 373.37 577.71 374.31 573.62 377.58C567.37 382.59 560.01 385.86 553.36 390.25C546.24 394.85 538.65 398.73 531.84 403.8C526.9 407.46 520.8 409.16 515.98 413.01C512.6 415.69 509.03 418.15 505.06 419.88C499.01 422.51 494.09 427.03 488.37 430.23C481.54 434.02 475.22 438.66 468.29 442.28C461.78 445.61 456.39 450.77 449.61 453.61C442.22 456.78 436.59 462.83 429.3 466.19C423.09 469.01 418.05 473.76 411.98 476.83C405.89 479.9 400.57 484.25 394.56 487.48C390.94 489.47 387.25 491.38 383.97 493.92C378.88 497.87 372.96 500.52 367.25 503.43C355.63 487.62 345.34 470.9 334.35 454.66C331.12 450.46 328.89 445.57 325.42 441.54C322.42 438.06 320.84 433.62 317.89 430.1C313.75 425.34 311.67 419.23 307.63 414.39C301.61 405.14 295.32 396.07 289.22 386.87C285.72 381.1 281.26 375.95 278.27 369.86C271.27 359.22 264.01 348.77 256.95 338.16C247.38 322.83 236.77 308.19 227.07 292.94C216.05 277.25 206.55 260.49 194.65 245.4C189.19 237.91 182.03 231.93 174.91 226.1C171.04 222.75 165.95 221.62 161.5 219.33C160.45 215.23 165.42 213.84 168.18 212.3C175.47 209.37 182.46 205.79 189.77 202.92C196.72 199.99 203.17 196.04 210.15 193.18C215.7 191.03 220.66 187.69 226.09 185.27C237.18 180.53 247.91 174.98 259.03 170.31C275.74 163.38 291.35 154.13 307.94 146.96C311.76 145.14 315.4 142.92 319.48 141.7C325.06 139.92 329.99 136.66 335.36 134.37C347.82 129.21 359.62 122.64 371.76 116.81C377.34 114.53 382.86 112.11 388.23 109.38C393.66 107.33 398.82 104.67 404 102.06C417.48 96.24 430.43 89.31 443.63 82.9C471.55 72.04 497.65 57.11 525.15 45.26C541.04 37.94 556.95 30.66 572.48 22.59C577.67 20.09 583.12 18.12 588.32 15.63C594.75 12.35 601.49 9.59 608.48 7.77ZM609.99 10.97C598.95 12.94 589.03 18.41 578.96 23.06C571.67 25.7 565.03 29.74 558 32.92C541.2 41.44 523.83 48.71 506.89 56.9C497.17 60.92 488.04 66.2 478.35 70.29C470.53 74.82 461.8 77.41 453.99 81.96C444.82 85.53 436.19 90.27 427.16 94.17C413.56 101.14 399.47 107.07 385.76 113.82C377.93 117.81 369.58 120.66 361.81 124.78C342.95 134.69 323.21 142.8 304.11 152.21C292.16 156.78 281.12 163.32 269.53 168.69C257.62 174.04 245.7 179.37 233.99 185.16C217.52 191.86 202.2 201.03 185.75 207.79C179.54 211.29 172.74 213.46 166.32 216.47C166.38 216.94 166.51 217.88 166.58 218.35C184.01 228.42 197.43 244.11 208.02 261C229.99 294.62 252.76 327.72 274.69 361.38C277.96 365.62 280.64 370.24 283.3 374.87C301.86 402.32 319.89 430.13 338.49 457.53C340.61 461.04 342.36 464.81 345.03 467.96C348.29 471.85 350.18 476.67 353.47 480.54C358.64 486.88 361.26 495.58 368.1 500.37C377.97 497.45 385.43 489.84 394.54 485.37C400.47 482.53 405.18 477.71 411.25 475.11C417.6 472.49 422.3 467.18 428.55 464.38C432.98 462.43 437.17 459.96 440.84 456.8C445.7 452.52 452.41 451.4 457.42 447.36C460.83 444.65 464.36 442.06 468.31 440.18C474.88 436.98 480.47 432.14 487.1 429.04C493.5 426.03 498.33 420.53 504.9 417.81C512.15 414.76 517.62 408.74 524.93 405.81C530.84 403.38 535.15 398.41 540.92 395.76C546.36 393.11 551.19 389.43 556.36 386.32C561.51 383.07 567.25 380.8 572.01 376.95C577.29 372.62 584.14 370.83 589.27 366.27C594.52 361.75 601.53 360.19 606.95 355.93C609.99 353.54 613.13 351.26 616.58 349.5C623.96 345.72 630.4 340.34 637.95 336.86C644.25 334.09 648.8 328.53 655.24 326.03C659.28 324.44 663.06 322.24 666.22 319.23C670.57 315.12 676.78 314.08 681.41 310.38C687.94 305.28 695.62 302.02 702.36 297.23C708.47 292.87 715.83 290.5 721.49 285.46C726.67 280.84 733.94 279.76 739.13 275.15C742.48 272.26 746.29 269.95 750.36 268.2C756.2 265.72 760.51 260.81 766.24 258.12C772.4 255.16 777.69 250.74 783.71 247.53C786.63 245.8 789.86 244.57 792.56 242.48C793.78 238.25 790.43 234.83 788.26 231.62C779.38 218.59 769.44 206.28 761.04 192.92C757.91 188.36 754.54 183.97 751.5 179.35C748.66 174.87 744.71 171.16 742.29 166.41C738.87 159.86 733.27 154.86 729.25 148.73C723.43 139.35 716.47 130.74 710.56 121.42C694.86 100.02 680.44 77.75 664.48 56.54C660.77 50.02 655.96 44.22 652.21 37.72C648.15 31.01 641.96 26.03 636.46 20.58C633.28 17.72 630.36 14.03 625.93 13.19C620.7 12.08 615.41 9.82 609.99 10.97Z" fill="#C3C3C3"/>
<path d="M731.44 135.61C738.39 143.53 743.52 152.8 749.98 161.08C756.21 168.96 761.01 177.85 767.36 185.64C772.76 192.1 776.24 199.88 781.76 206.26C786.29 213.36 792.74 219.09 796.53 226.68C798.77 231.18 802.45 234.71 805.11 238.95C806.86 241.62 806.32 244.93 806.1 247.93C805.57 252.62 805.3 257.34 804.95 262.05C804.49 268.52 802.74 274.83 802.5 281.32C802.3 295.58 801.52 309.87 799.45 323.99C798.96 330.34 799.42 336.77 798.18 343.06C796.4 353.21 798.1 363.56 796.72 373.74C795.17 384.75 793.73 395.85 794 406.99C794.17 414.72 792.28 422.29 791.83 429.98C790.65 442.03 789.7 454.12 789.68 466.23C789.67 473.61 787.45 480.77 787.41 488.16C787.51 496.8 785.67 505.29 785.3 513.89C785.51 526.98 784.09 540.03 782.57 553.02C781.64 561.64 781.72 570.34 780.84 578.97C780.51 582.24 779.54 585.7 776.9 587.88C772.66 591.42 767.58 593.79 763.38 597.4C757.94 602.01 752.15 606.19 746.57 610.63C739.79 616.25 732.05 620.6 725.57 626.61C718.76 631.79 711.89 636.9 705.06 642.05C697.42 646.61 691.79 653.76 683.94 658C676.49 663.49 668.69 668.6 661.95 674.97C657.63 678.88 652.06 680.99 647.63 684.75C644.35 687.48 640.93 690.04 637.42 692.46C632.7 695.69 629.02 700.22 624.09 703.18C620.82 705.17 617.54 707.18 614.59 709.64C609.51 713.9 603.89 717.49 599.15 722.15C594.69 726.64 588.54 728.7 583.66 732.62C580.31 735.27 577.1 738.1 573.61 740.57C566.6 745.55 560.16 751.28 552.91 755.92C544.67 761.98 536.58 768.25 528.64 774.7C523.73 778.49 518.17 781.39 513.48 785.49C508.28 790.06 502.04 793.28 497.01 798.07C491.84 803.09 485.08 805.97 479.71 810.74C474.35 815.46 468.1 819.03 462.89 823.94C458.17 828.43 452.05 830.97 447.05 835.1C443.57 837.97 440.02 840.76 436.23 843.2C430.96 846.54 426.77 851.28 421.49 854.6C416.2 857.86 411.62 862.11 406.37 865.44C400.75 869.07 396 873.87 390.39 877.54C383.77 881.94 378.19 887.96 370.71 891H367.52C361.63 887.48 356.18 883.28 350.33 879.71C342.43 874.97 334.02 870.97 326.94 864.98C330.73 866.8 334.44 868.79 337.94 871.13C343.4 874.8 349.5 877.41 354.86 881.24C358.92 883.93 362.63 887.3 367.24 889.08C371.04 890.61 374.72 887.88 377.73 885.84C383.15 881.52 388.56 877.2 394.29 873.3C403.54 865.8 413.51 859.27 422.81 851.84C431.25 844.85 440.53 839 449.11 832.2C456.78 827.35 463.22 820.87 470.84 815.98C476.56 812.1 481.52 807.22 487.43 803.61C491.93 800.84 495.94 797.4 499.98 794.02C512.63 784.7 525.21 775.28 537.77 765.84C553.06 754.08 568.77 742.86 583.86 730.84C588.23 727.46 593.34 725.16 597.54 721.55C606.7 713.19 617.36 706.73 627.01 698.99C633.23 693.84 640.08 689.53 646.28 684.37C660.41 674.22 673.96 663.29 688.16 653.21C696.08 646.41 704.81 640.66 713.04 634.25C721.03 628.96 728.1 622.47 735.94 616.99C748.6 608.08 760.22 597.77 773.2 589.31C775.9 587.56 778.39 585.14 779.19 581.92C781.02 575.18 780.11 568.11 780.7 561.23C781.67 548.99 782.52 536.74 783.89 524.54C784.67 511.33 785.31 498.1 786 484.89C788.17 470.68 789.24 456.33 789.47 441.96C789.52 433.76 790.64 425.64 791.78 417.54C792.89 406.28 793.01 394.94 793.94 383.67C796.23 367.75 795.99 351.6 797.8 335.65C796.96 318.65 801.82 302 801.42 285C801.08 275.38 803.26 265.94 803.78 256.37C804.01 251.31 805.66 246.29 805 241.21C803.98 238.44 801.86 236.27 800.09 233.97C796.19 229.36 793.85 223.68 789.97 219.05C785.67 213.95 782.38 208.1 778.03 203.03C773.31 197.57 770.33 190.88 765.8 185.26C758.56 176.04 752.52 165.96 745.43 156.63C740.82 149.58 735.15 143.22 731.44 135.61Z" fill="#C3C3C3"/>
<path d="M791.43 253.36C792.81 252.87 794.32 251.27 795.83 252.09C796.16 257.42 794.62 262.64 794.36 267.96C793.37 279.96 792.47 291.96 792.01 304C790.67 319.31 788.7 334.58 788.35 349.97C788.21 359.69 786.61 369.3 786.12 379C785.8 386.69 784.03 394.27 784.36 401.99C784.56 408 783.58 413.95 783.35 419.95C783 430.34 780.8 440.59 780.73 451.01C780.94 460.06 779.2 468.99 779.05 478.03C776.44 493.89 776.7 510.02 775.44 526.01C775.37 537.4 772.86 548.59 772.42 559.96C771.87 566.42 772.72 573.01 771.38 579.39C770.42 580.77 768.99 581.73 767.7 582.77C749.29 596.73 730.32 609.96 711.89 623.91C705.28 629.38 698.01 633.98 691.39 639.44C685.55 643.58 679.56 647.52 674.12 652.18C666.59 657.19 659.88 663.29 652.35 668.31C646.51 672.4 641.52 677.6 635.51 681.47C625.54 688.81 615.7 696.32 606.05 704.07C602.8 706.67 598.8 708.04 595.41 710.42C578.71 722.7 562.51 735.65 545.55 747.57C539.65 752.79 532.91 756.88 526.78 761.79C521.75 766.18 515.89 769.46 510.85 773.83C506.18 777.94 500.75 781.04 495.97 784.99C489.54 790.31 482.4 794.68 475.99 800.01C470.69 804.45 464.71 807.97 459.39 812.38C454.48 816.53 448.97 819.9 444.09 824.08C439.74 827.83 434.95 831.01 430.27 834.32C426.56 836.87 423.6 840.34 419.87 842.87C416.72 845.01 413.48 847.05 410.69 849.66C406.04 854.09 400.6 857.56 395.65 861.64C389.4 866.97 382.37 871.24 375.88 876.25C373.96 875.79 373.76 873.64 373.72 872.04C374.01 841.7 373.49 811.34 373.64 781C373.59 764.31 373.73 747.63 373.6 730.95C371.93 711.53 373.49 692.02 372.54 672.57C371.73 654.73 373.1 636.84 371.41 619.04C371.21 604.08 371.39 589.1 371.42 574.14C370.03 556.86 371.27 539.52 370.61 522.22C370.46 518.27 369.8 514.3 370.37 510.37C373.34 507.37 377.42 505.94 381.11 504.04C387.07 501.29 391.86 496.62 397.72 493.67C404.02 490.46 409.66 486.13 415.87 482.76C422.08 479.4 427.5 474.76 433.92 471.77C440.51 468.68 445.64 463.24 452.29 460.24C459.8 456.78 466.14 451.35 473.43 447.49C480.2 443.64 486.69 439.31 493.44 435.43C498.53 432.06 503.51 428.5 509.06 425.9C515.42 422.93 520.39 417.72 526.73 414.71C530.04 413.1 533.4 411.54 536.38 409.35C550.12 399.43 565.61 392.26 579.38 382.38C582.06 380.57 585.04 379.28 587.89 377.76C591.48 375.83 594.5 373.02 597.96 370.87C600.89 368.99 604.14 367.68 607.2 366.03C611.45 363.78 615.07 360.55 619.25 358.19C627.06 353.74 634.54 348.73 642.42 344.39C648.43 341.16 653.54 336.49 659.76 333.61C665.67 330.79 670.48 326.19 676.36 323.33C680.08 321.47 683.81 319.58 687.2 317.14C700.52 307.87 715.2 300.75 728.46 291.39C733.43 287.88 739.4 286.05 744.11 282.11C750.34 276.93 758.38 274.74 764.62 269.58C773.53 264.13 782.34 258.52 791.43 253.36Z" fill="#C3C3C3"/>
</g>
<defs>
<clipPath id="clip0">
<rect width="807" height="891" fill="white"/>
</clipPath>
</defs>
</svg>
