<svg width="680" height="656" viewBox="0 0 680 656" fill="none" xmlns="http://www.w3.org/2000/svg">
<path d="M352.14 19.99C351.67 16.94 351.64 13.84 352.41 10.83C360.85 19.3 368.18 28.8 376.42 37.47C475.17 148.33 573.79 259.27 672.67 370.02C648.24 393.46 624.39 417.51 600.46 441.46C560.8 481.13 521.13 520.8 481.47 560.47C469.94 572.28 457.71 583.37 446.23 595.23C433.72 607.72 421.36 620.36 408.91 632.91C404.64 637.19 400.6 641.73 395.77 645.4C395.67 634.17 394.1 623.05 393.56 611.85C393.6 601.66 391.48 591.6 391.53 581.41C391.53 572.89 389.46 564.52 389.58 556C389.72 548.96 388.43 542.03 388.21 535.01C387.25 528.71 387.81 522.32 387.01 516.02C385.4 502.8 385.61 489.48 383.96 476.27C383.09 469.88 383.85 463.38 382.88 457C381.11 439.29 380.68 421.5 378.89 403.79C377.86 384.54 376.27 365.33 375.02 346.1C373.33 326.26 372.53 306.37 370.67 286.54C370.63 274.32 368.38 262.24 368.46 250.02C366.81 233.12 366.11 216.16 364.61 199.25C364.67 188.45 362.42 177.78 362.51 166.98C362.45 157.6 360.34 148.37 360.51 138.98C360.64 131.6 359.17 124.34 358.64 117.01C358.59 106.32 357.51 95.68 356.58 85.04C356.36 75.66 355.5 66.31 354.59 56.98C354.21 44.62 352.7 32.34 352.14 19.99Z" fill="#F6F6F6"/>
<path d="M336.03 16.01C340.4 10.82 344.72 5.53002 349.82 1.02002C453.48 117.48 557.14 233.92 660.81 350.39C666.54 356.64 671.85 363.27 677.98 369.14C675.55 374.64 670.71 378.41 666.61 382.61C655.41 394.08 644.18 405.53 632.68 416.69C583.45 466.46 533.86 515.87 484.45 565.45C472.14 577.47 460.37 590.05 447.64 601.64C443.17 605.86 439.29 610.66 434.7 614.76C427.38 621.42 420.7 628.73 413.52 635.52C407.31 641.5 401.6 648.03 395.01 653.6C391.62 653.08 388.94 650.47 385.9 648.99C257.23 570.33 128.91 491.08 0.459961 412.04C112.31 280.02 224.13 147.98 336.03 16.01ZM136.22 256.2C92.5 307.54 48.86 358.96 4.92996 410.13C11.82 415.04 19.28 419.04 26.47 423.49C47.87 436.32 68.95 449.67 90.26 462.64C108.62 473.5 126.83 484.62 144.91 495.96C160.02 504.79 174.61 514.48 189.79 523.19C199.93 530.19 210.98 535.7 221.13 542.68C235.08 550.5 248.35 559.45 262.13 567.57C277.98 577.93 294.76 586.79 310.54 597.27C314.93 599.93 319.45 602.38 323.77 605.17C339.41 615.31 355.63 624.51 371.25 634.67C378.43 638.59 385.02 643.51 392.33 647.2C389.57 614.7 387.59 582.15 385.25 549.62C381.61 495.07 377.52 440.54 373.95 385.98C372.71 373.69 372.53 361.32 371.16 349.05C370.49 343.54 370.55 337.99 370.25 332.46C368.16 307.33 366.82 282.13 364.67 257C364.27 242 362.3 227.11 361.64 212.13C356.72 144.37 352.47 76.55 347.33 8.81002C276.76 91.1 206.7 173.84 136.22 256.2ZM352.14 19.99C352.7 32.34 354.21 44.62 354.59 56.98C355.5 66.31 356.36 75.66 356.58 85.04C357.51 95.68 358.59 106.32 358.64 117.01C359.17 124.34 360.64 131.6 360.51 138.98C360.34 148.37 362.45 157.6 362.51 166.98C362.42 177.78 364.67 188.45 364.61 199.25C366.11 216.16 366.81 233.12 368.46 250.02C368.38 262.24 370.63 274.32 370.67 286.54C372.53 306.37 373.33 326.26 375.02 346.1C376.27 365.33 377.86 384.54 378.89 403.79C380.68 421.5 381.11 439.29 382.88 457C383.85 463.38 383.09 469.88 383.96 476.27C385.61 489.48 385.4 502.8 387.01 516.02C387.81 522.32 387.25 528.71 388.21 535.01C388.43 542.03 389.72 548.96 389.58 556C389.46 564.52 391.53 572.89 391.53 581.41C391.48 591.6 393.6 601.66 393.56 611.85C394.1 623.05 395.67 634.17 395.77 645.4C400.6 641.73 404.64 637.19 408.91 632.91C421.36 620.36 433.72 607.72 446.23 595.23C457.71 583.37 469.94 572.28 481.47 560.47C521.13 520.8 560.8 481.13 600.46 441.46C624.39 417.51 648.24 393.46 672.67 370.02C573.79 259.27 475.17 148.33 376.42 37.47C368.18 28.8 360.85 19.3 352.41 10.83C351.64 13.84 351.67 16.94 352.14 19.99Z" fill="#607383"/>
<path d="M136.22 256.2C206.7 173.84 276.76 91.1 347.33 8.81C352.47 76.55 356.72 144.37 361.64 212.13C362.3 227.11 364.27 242 364.67 257C366.82 282.13 368.16 307.33 370.25 332.46C370.55 337.99 370.49 343.54 371.16 349.05C372.53 361.32 372.71 373.69 373.95 385.98C377.52 440.54 381.61 495.07 385.25 549.62C387.59 582.15 389.57 614.7 392.33 647.2C385.02 643.51 378.43 638.59 371.25 634.67C355.63 624.51 339.41 615.31 323.77 605.17C319.45 602.38 314.93 599.93 310.54 597.27C294.76 586.79 277.98 577.93 262.13 567.57C248.35 559.45 235.08 550.5 221.13 542.68C210.98 535.7 199.93 530.19 189.79 523.19C174.61 514.48 160.02 504.79 144.91 495.96C126.83 484.62 108.62 473.5 90.2601 462.64C68.9501 449.67 47.8701 436.32 26.4701 423.49C19.2801 419.04 11.8201 415.04 4.93005 410.13C48.8601 358.96 92.5001 307.54 136.22 256.2Z" fill="#B4B4B4"/>
</svg>
