<svg width="993" height="1043" viewBox="0 0 993 1043" fill="none" xmlns="http://www.w3.org/2000/svg">
<g clip-path="url(#clip0)">
<path d="M438.7 4.63999C504.11 -4.87001 568.32 3.84999 629.01 22.78C615.94 25.23 604.1 17.13 591.08 15.79C545.43 2.77999 496.82 -1.52001 449.94 5.91999C446.07 6.63999 442.36 5.61999 438.7 4.63999Z" fill="#C3DDE7"/>
<path d="M449.94 5.92001C496.82 -1.51999 545.43 2.78001 591.08 15.79C604.1 17.13 615.94 25.23 629.01 22.78C628.87 25.55 630.53 27.99 633.1 28.99C652.28 34.98 669.57 45.49 688.16 52.89C707.42 67.74 729.14 78.76 748.25 93.91C749.9 95.55 751.46 97.29 753.19 98.87C771.11 109.08 782.66 126.76 798.09 140.03C801.75 143.86 806.48 146.27 810.81 149.18C814.85 161.64 826.13 169.95 834.89 179.09C837.68 181.13 841.81 182.56 840.3 186.88C842.91 194.18 850.21 199.1 855.89 204C856.4 209.92 860.32 214.4 863.88 218.89C871.36 235.21 883.8 248.68 890.85 265.2C901.82 285.1 910.52 306.27 922 325.97C925.97 333.37 926.12 343.7 934.38 347.98C934.47 357.93 938.07 368.01 945.2 374.66C944.62 393.73 956.06 411.45 959.71 430.03C973.28 484.75 982.01 540.41 988.52 596.5C992.29 607.02 985.09 621.09 993 629.79V695.52C989.23 723.23 989.31 751.74 982.44 778.94C984.38 797.18 972.34 812.4 966.9 828.96C955.24 856.53 933.86 878.22 915.26 901.24C897.2 917.64 877.62 932.32 858.59 947.55C821.4 968.71 784.26 990.97 742.86 1002.94C718.06 1011.4 693.54 1020.86 667.32 1024.28C618.91 1037.2 569.03 1038.92 519.37 1043H493.49C453.7 1038.1 412.98 1042.48 374 1031.98C334.04 1027.48 295.51 1016.96 258.01 1002.95C282.05 1004.17 302.53 1019.97 326.51 1021.53C354.72 1026.47 382.81 1032.39 411.03 1036.87C451.9 1036.68 492.6 1044.28 533.46 1040.5C557.37 1036.71 581.85 1037.29 605.73 1034.89C631.32 1029.22 657.12 1024.84 682.56 1018.52C711.27 1014.27 737.43 1000.45 765.16 992.25C788.45 987.9 805.49 970.37 827.42 962.53C841 955.26 854.08 947.16 866.96 938.88C880.49 924.39 897.73 913.74 912.79 900.85C924.99 884.54 938.14 868.86 950.9 852.92C962 834.36 968.57 813.56 978.23 794.27C979.57 765.63 987.34 737.72 988 709C991.22 653.3 989.4 597.28 979.62 542.34C968.41 459.35 947.35 377.3 907.83 303.05C887.72 260.15 863.4 219.12 833.72 182.22C801.38 146.63 770.05 109.09 729.08 82.86C646.26 21.64 538.58 -7.44999 436.56 9.49001C382.28 18.27 331.01 40.39 284.1 68.18C307.6 49.33 337.72 38.81 365.35 26.3C386.07 18.8 407.45 13.11 429.07 9.10001C430.54 8.58001 431.34 7.15001 432.25 5.99001C434.38 5.50001 436.53 5.05001 438.7 4.64001C442.36 5.62001 446.07 6.64001 449.94 5.92001Z" fill="#93A9B6"/>
<path d="M436.56 9.49001C538.58 -7.44999 646.26 21.64 729.08 82.86C770.05 109.09 801.38 146.63 833.72 182.22C863.4 219.12 887.72 260.15 907.83 303.05C947.35 377.3 968.41 459.35 979.62 542.34C989.4 597.28 991.22 653.3 988 709C987.34 737.72 979.57 765.63 978.23 794.27C968.57 813.56 962 834.36 950.9 852.92C938.14 868.86 924.99 884.54 912.79 900.85C897.73 913.74 880.49 924.39 866.96 938.88C854.08 947.16 841 955.26 827.42 962.53C805.49 970.37 788.45 987.9 765.16 992.25C737.43 1000.45 711.27 1014.27 682.56 1018.52C657.12 1024.84 631.32 1029.22 605.73 1034.89C581.85 1037.29 557.37 1036.71 533.46 1040.5C492.6 1044.28 451.9 1036.68 411.03 1036.87C382.81 1032.39 354.72 1026.47 326.51 1021.53C302.53 1019.97 282.05 1004.17 258.01 1002.95C253.2 1000.58 248.07 998.99 243.11 996.99C215.71 990 193.43 969.22 166.01 963.14C155.82 953.46 141.8 947.06 129.93 939C122.74 933.99 116.35 927.88 108.93 923.18C108.89 921.64 107.54 920.58 106.05 921.03C93.54 911.5 82.3 899.51 71.05 888.03C63.01 873.55 47.83 863.83 39.91 849.16C32.75 829.31 17.59 812.76 14.47 791.47C11.34 777.56 9.62001 763.34 5.16001 749.74C4.57001 744.59 4.13001 739.4 3.78001 734.25C1.07001 701.17 2.00001 667.76 1.64001 634.63C9.31001 586.02 8.54002 535.49 20.36 487.36C35.84 407.37 68.78 331.81 105.42 259.39C136.46 210.98 171.36 164.94 212.19 124.24C235.78 104.97 259.47 85.26 284.1 68.18C331.01 40.39 382.28 18.27 436.56 9.49001ZM311.64 59.59C244.88 96.49 188.85 150.76 144.95 212.96C118.6 249.33 94.4 288.37 79.99 330.93C76.81 332.91 76.07 336.8 75.12 340.12C56.43 381.93 40.49 425.09 31.26 470.1C25.38 487.6 22.64 509.21 19.43 528.52C10.49 600.21 5.19001 673.11 11.95 745.01C16.39 764.13 19.45 783.47 24.64 802.35C37.18 822.89 44.24 847.12 61.73 864.33C77.36 882.91 92.86 902.14 113.35 915.69C133.49 928.78 150.79 946.56 173.33 955.69C192.84 965.5 211.92 976.21 231.87 985.14C256.09 991.83 280.07 999.73 303.63 1008.39C329.45 1015.97 356.25 1019.47 382.68 1024.28C416.24 1032.54 451.12 1030.28 485.32 1033.71C494.02 1032.55 508.12 1037.72 514.67 1032.83C545.78 1032.19 576.84 1028.82 607.91 1026.71C651.85 1017.1 696.93 1011.38 738.64 993.66C764.5 986.55 788.57 974.85 812.05 962.1C829.24 950.93 850.14 944.78 864.32 929.54C884.2 912.49 907.46 898.56 922.43 876.44C934.2 860.71 948.87 846.39 955.45 827.4C962.44 809.45 974.15 792.92 973.94 772.94C985.5 707.62 985.15 640.64 978.26 574.89C969.81 518.64 962.8 461.67 944.4 407.64C930.28 356.71 905.08 309.71 881.11 262.88C818.9 153.83 719.49 59.03 597.42 24.56C502.98 -3.76999 397.61 11.91 311.64 59.59Z" fill="#4D6475"/>
<path d="M378.63 18.69C396.92 16.12 413.59 7.25999 432.25 5.98999C431.34 7.14999 430.54 8.57999 429.07 9.09999C407.45 13.11 386.07 18.8 365.35 26.3C337.72 38.81 307.6 49.33 284.1 68.18C268.88 74.88 255.21 84.89 243.68 96.76C241.29 99.07 237.97 99.54 234.85 100.02C252.62 83.47 273.04 70.81 293.68 59.71C299.2 50.98 311.07 52.25 316.78 43.82C328.91 41.55 338.23 33.34 350.65 31.63C356.15 21.54 370.66 26.43 378.63 18.69Z" fill="#C1D9E3"/>
<path d="M311.64 59.59C397.61 11.91 502.98 -3.77003 597.42 24.56C719.49 59.03 818.9 153.83 881.11 262.88C905.08 309.71 930.28 356.71 944.4 407.64C962.8 461.67 969.81 518.64 978.26 574.89C985.15 640.64 985.5 707.62 973.94 772.94C974.15 792.92 962.44 809.45 955.45 827.4C948.87 846.39 934.2 860.71 922.43 876.44C907.46 898.56 884.2 912.49 864.32 929.54C862.51 930.26 860.77 931.15 859.07 932.11L859.26 931.19C865.92 925.53 872.73 920.02 879.11 914.03C901.83 899.66 919.21 879.3 934.46 857.45C950.34 840.9 956.93 818.41 966.04 797.86C968.06 794.1 970.14 790.18 970.06 785.81C972.53 761.05 977.88 736.65 978.8 711.76C980.89 683.21 981.75 654.44 979.97 625.87C978.98 602.02 977.9 578.08 973.02 554.66C969.72 532.01 966.2 509.35 962.41 486.75C956.39 454.09 946.46 422.53 937.3 390.76C921.68 345.2 898.68 302.83 877.05 259.89C869.87 248.92 864.11 237.02 855.96 226.71C786.61 122.77 679.59 36.05 553.23 17.71C525.58 12.08 497.14 11.85 469.1 13.9C451.56 14.94 434.14 17.7 417.05 21.9C407.85 25.13 397.89 25.59 389.07 29.9C369.37 32.73 352.25 43.79 333.9 50.73C322.92 55.08 312.58 61.02 302.93 67.81C282.87 77.93 264.62 91.09 247.91 105.86C236.06 116.11 222.68 124.69 212.26 136.52C198.26 150.47 183.86 164.33 172.94 180.93C160.83 193.38 151.59 208.19 140.91 221.8C136.52 227.34 132.69 233.37 129.22 239.53C121.07 251.15 112.69 262.82 107.08 275.93C97.87 292.97 89.02 310.42 83.17 328.9C82.04 330.21 80.94 331.56 79.91 332.95C79.93 332.45 79.97 331.44 79.99 330.93C94.4 288.37 118.6 249.33 144.95 212.96C188.85 150.76 244.88 96.49 311.64 59.59Z" fill="#93A0AB"/>
<path d="M469.1 13.9C497.14 11.85 525.58 12.08 553.23 17.71C532.33 21.18 511.45 8.03999 490.4 15.38C488.26 17.02 482.39 21.63 491.92 19.09C511.77 21.25 529.75 26.83 543.79 41.28C543.32 46.11 541 50.78 542.03 55.76C546.97 61.9 556.04 63.52 562.45 67.43C563.3 72.29 566.74 69.91 569.92 68.81C571.84 70.32 572.59 73.01 574.66 74.29C583.54 75.97 585.73 88.57 595.74 87.29C604.11 95.98 614.57 102.71 625.03 109.02C630.2 117.67 639.15 122.78 646.35 129.67C653.48 134.58 656.39 125.84 660.12 121.79C673.89 126.75 682.82 139.26 694.46 147.56C698.74 155.26 708.8 153.62 712.86 161.11C721.84 171.47 733.17 180.22 740.4 191.89C750.81 193.57 750.09 175.63 760.86 177.97C774.41 187.85 782.49 203.14 795.08 214.07C805.36 215.8 798.03 193.35 808.49 197.49C817.04 208.28 827.17 217.71 835.41 228.75C843.48 230.24 835.09 214.91 838.62 215.37C850.53 224.1 854.79 241.12 864.74 252.25C871.15 257.97 864.41 246.45 865.07 243.85C881.14 270.38 895.1 299.49 906.02 328.16C900.83 325.18 898.82 317.61 891.74 316.22C887.35 303.21 878.64 292.99 873 281.7C867.37 286.65 869.71 296.08 865.26 302.2C864.72 305.98 859.56 306.03 858.55 302.5C850.93 289.1 841.31 276.85 832.67 264.18C822.65 264.85 820.44 282.48 811.33 283.84C801.67 269.56 791.56 255.5 781.73 241.31C772.24 236.81 766.89 248.45 760.08 253.06C748.97 261.52 742.41 240.25 737.83 233.34C745.94 236.47 742.17 224.31 737.29 231.42C728.29 232.65 728.23 216.48 720.57 213.5C705.38 204.56 696.91 188.21 685.49 175.25C676.7 175.3 668.2 181.01 662.1 185.85C645.56 178.24 638.24 159.3 626.67 146.29C620.41 141.95 617.49 152.35 611.17 147.1C605.2 155.81 594.29 149.1 592.1 140.82C583.8 131.56 580.4 114.23 565.17 115.35C559.84 118.4 552.17 121.23 547.97 115.07C544.29 107.17 539.27 99.94 536.26 91.7C532.51 84.47 523.17 90.61 517.33 87.71C512.99 84.44 506.2 88.16 502.25 84.72C499.53 78.37 502.04 71.01 500.7 64.33C490.14 60.87 477.82 58.64 466.61 54.41C459.34 52.68 450.61 44.21 455.69 36.7C457.55 32.62 464.35 32.23 461.96 26.25C455 19.77 436.67 30.95 435.1 20.26C445.48 15.29 459.89 24.52 469.1 13.9Z" fill="#EFEFEF"/>
<path d="M417.05 21.9C434.14 17.7 451.56 14.94 469.1 13.9C459.89 24.52 445.48 15.29 435.1 20.26C436.67 30.95 455 19.77 461.96 26.25C464.35 32.23 457.55 32.62 455.69 36.7C450.61 44.21 459.34 52.68 466.61 54.41C477.82 58.64 490.14 60.87 500.7 64.33C502.04 71.01 499.53 78.37 502.25 84.72C506.2 88.16 512.99 84.44 517.33 87.71C523.17 90.61 532.51 84.47 536.26 91.7C539.27 99.94 544.29 107.17 547.97 115.07C552.17 121.23 559.84 118.4 565.17 115.35C580.4 114.23 583.8 131.56 592.1 140.82C594.29 149.1 605.2 155.81 611.17 147.1C617.49 152.35 620.41 141.95 626.67 146.29C638.24 159.3 645.56 178.24 662.1 185.85C668.2 181.01 676.7 175.3 685.49 175.25C696.91 188.21 705.38 204.56 720.57 213.5C728.23 216.48 728.29 232.65 737.29 231.42C742.17 224.31 745.94 236.47 737.83 233.34C742.41 240.25 748.97 261.52 760.08 253.06C766.89 248.45 772.24 236.81 781.73 241.31C791.56 255.5 801.67 269.56 811.33 283.84C820.44 282.48 822.65 264.85 832.67 264.18C841.31 276.85 850.93 289.1 858.55 302.5C859.56 306.03 864.72 305.98 865.26 302.2C869.71 296.08 867.37 286.65 873 281.7C878.64 292.99 887.35 303.21 891.74 316.22C898.82 317.61 900.83 325.18 906.02 328.16C895.1 299.49 881.14 270.38 865.07 243.85C861.66 238.49 855.7 233.24 855.96 226.71C864.11 237.02 869.87 248.92 877.05 259.89C898.68 302.83 921.68 345.2 937.3 390.76C936.88 395.46 934.23 400.95 938.38 404.7C943.77 407.79 935.6 414.04 941.21 416.7C945.88 418.19 944.38 425.93 941.09 428.04C933.25 412.88 931.45 395.24 923.8 380.04C916.87 385.15 922.22 400.7 915.88 407.03C902.12 396.81 902.86 372.16 889.08 362.02C881.77 369.84 877.6 380.97 870.25 389.1C860.59 374.03 853.15 356.93 845.16 340.84C836.52 332.18 830.43 347.8 824.05 352.07C820.85 356.26 807.46 367.67 812.92 355.99C800.54 350.41 800.03 332.86 791.21 322.86C790.32 311.89 777.71 311.23 773.91 302.09C769.63 290.51 759.05 283.56 756.77 271.24C751.39 256.39 741.7 270.65 732.97 271.89C726.57 273.26 721.45 283.14 714.76 278.23C705.77 263.33 695.99 249.08 688.89 233.21C675.57 226.23 658.11 248.76 645.41 238.63C638.33 224.58 632.08 209.64 623.06 196.88C611.65 196.41 600.26 199.98 589.34 201.75C578.76 195.02 580.41 179.48 573.34 169.8C573.04 152.28 552.4 161.02 541.98 162.88C528.2 162.23 533.74 144.08 528.4 135.46C525.02 132.11 529.21 124.3 523.1 124.12C507.02 131.37 492.79 116.91 476.37 120.62C475.48 111.19 482.71 100.09 478.62 91.39C460.33 87.77 442.49 81.85 425.84 73.15C413.43 68.69 399.81 54.03 408.38 40.35C410.03 37.79 420.89 29.76 410.49 32.39C401.67 30.11 393.3 38.71 385.05 35.79C384.67 27.77 397.11 36.65 398.37 28.31C404.62 26.27 412.86 29.73 417.05 21.9Z" fill="#E9E9E9"/>
<path d="M490.4 15.38C511.45 8.03998 532.33 21.18 553.23 17.71C679.59 36.05 786.61 122.77 855.96 226.71C855.7 233.24 861.66 238.49 865.07 243.85C864.41 246.45 871.15 257.97 864.74 252.25C854.79 241.12 850.53 224.1 838.62 215.37C835.09 214.91 843.48 230.24 835.41 228.75C827.17 217.71 817.04 208.28 808.49 197.49C798.03 193.35 805.36 215.8 795.08 214.07C782.49 203.14 774.41 187.85 760.86 177.97C750.09 175.63 750.81 193.57 740.4 191.89C733.17 180.22 721.84 171.47 712.86 161.11C708.8 153.62 698.74 155.26 694.46 147.56C682.82 139.26 673.89 126.75 660.12 121.79C656.39 125.84 653.48 134.58 646.35 129.67C639.15 122.78 630.2 117.67 625.03 109.02C614.57 102.71 604.11 95.98 595.74 87.29C585.73 88.57 583.54 75.97 574.66 74.29C572.59 73.01 571.84 70.32 569.92 68.81C566.74 69.91 563.3 72.29 562.45 67.43C556.04 63.52 546.97 61.9 542.03 55.76C541 50.78 543.32 46.11 543.79 41.28C529.75 26.83 511.77 21.25 491.92 19.09C482.39 21.63 488.26 17.02 490.4 15.38Z" fill="#F5F5F6"/>
<path d="M389.07 29.9C397.89 25.59 407.85 25.13 417.05 21.9C412.86 29.73 404.62 26.27 398.37 28.31C397.11 36.65 384.67 27.77 385.05 35.79C393.3 38.71 401.67 30.11 410.49 32.39C420.89 29.76 410.03 37.79 408.38 40.35C399.81 54.03 413.43 68.69 425.84 73.15C442.49 81.85 460.33 87.77 478.62 91.39C482.71 100.09 475.48 111.19 476.37 120.62C492.79 116.91 507.02 131.37 523.1 124.12C529.21 124.3 525.02 132.11 528.4 135.46C533.74 144.08 528.2 162.23 541.98 162.88C552.4 161.02 573.04 152.28 573.34 169.8C580.41 179.48 578.76 195.02 589.34 201.75C600.26 199.98 611.65 196.41 623.06 196.88C632.08 209.64 638.33 224.58 645.41 238.63C658.11 248.76 675.57 226.23 688.89 233.21C695.99 249.08 705.77 263.33 714.76 278.23C721.45 283.14 726.57 273.26 732.97 271.89C741.7 270.65 751.39 256.39 756.77 271.24C759.05 283.56 769.63 290.51 773.91 302.09C777.71 311.23 790.32 311.89 791.21 322.86C800.03 332.86 800.54 350.41 812.92 355.99C807.46 367.67 820.85 356.26 824.05 352.07C830.43 347.8 836.52 332.18 845.16 340.84C853.15 356.93 860.59 374.03 870.25 389.1C877.6 380.97 881.77 369.84 889.08 362.02C902.86 372.16 902.12 396.81 915.88 407.03C922.22 400.7 916.87 385.15 923.8 380.04C931.45 395.24 933.25 412.88 941.09 428.04C944.38 425.93 945.88 418.19 941.21 416.7C935.6 414.04 943.77 407.79 938.38 404.7C934.23 400.95 936.88 395.46 937.3 390.76C946.46 422.53 956.39 454.09 962.41 486.75C961.19 492.66 960.16 498.62 958.72 504.48C954.37 502.55 952.27 511.44 948.71 506.29C943.79 493.96 941.79 478.94 935.89 467.94C924.24 473.07 922.62 489.48 914.68 498.82C913.09 499.57 911.37 498.72 911.01 497.02C906.62 481.94 900.79 467.26 896.82 452.14C895.53 448.87 892.3 446.83 889.02 446C880.12 457.47 868.81 466.76 858.94 477.36C851.68 460 845.95 441.83 838.56 424.41C832.02 420.47 829.5 414.05 828.12 406.86C820.31 395.32 817.37 380.6 809.73 369.26C795.28 371.84 785.46 384.46 771.4 388.35C764.04 391.16 762.45 381.78 760.09 376.97C758.74 367.84 753.34 360.29 750.03 351.89C747.28 346.05 747.81 337.9 741.2 334.71C732.03 331.64 726.25 342.22 717.45 342.47C708.83 343.29 694.92 356.75 691.04 344C682.79 327.76 681.03 306.87 668.01 293.92C654.42 294.37 640.03 299.79 626.58 303.64C617.4 307.64 620.79 296.07 618.38 291.64C613.23 282.51 611.62 271.67 610.29 261.69C599.97 241.51 574.44 258.46 557.74 255.35C551.85 240.48 555.39 221.51 545.85 208.21C534.33 201.76 518.9 211.3 507.18 205.83C502.94 192.82 510.03 173.76 498.64 163.26C478.46 165.99 460.35 157.55 440.46 156.59C438.57 156.07 436.84 153.37 438.86 151.94C445.89 144.16 446.27 132.45 451.99 124.08C444.33 116.33 430.24 119.18 420.89 113.23C403.12 108.41 388.17 97.45 372.64 88.39C359.77 80.62 355.67 59.04 366.78 47.81C370.78 43.19 356.53 45.21 362.22 40.14C369.97 43.99 371.52 33.36 379.01 34.89C382.75 34.27 385.73 31.57 389.07 29.9Z" fill="#E3E3E3"/>
<path d="M629.01 22.78C638.51 30.47 650.61 30.85 660.2 38.72C670.53 37.31 675.66 48.48 685.52 48.47C693.89 52.46 700.58 59.04 708.91 63.08C718.55 77.45 742.42 77.33 748.25 93.91C729.14 78.76 707.42 67.74 688.16 52.89C669.57 45.49 652.28 34.98 633.1 28.99C630.53 27.99 628.87 25.55 629.01 22.78Z" fill="#C4DEE8"/>
<path d="M333.9 50.73C352.25 43.79 369.37 32.73 389.07 29.9C385.73 31.57 382.75 34.27 379.01 34.89C371.52 33.36 369.97 43.99 362.22 40.14C356.53 45.21 370.78 43.19 366.78 47.81C355.67 59.04 359.77 80.62 372.64 88.39C388.17 97.45 403.12 108.41 420.89 113.23C430.24 119.18 444.33 116.33 451.99 124.08C446.27 132.45 445.89 144.16 438.86 151.94C436.84 153.37 438.57 156.07 440.46 156.59C460.35 157.55 478.46 165.99 498.64 163.26C510.03 173.76 502.94 192.82 507.18 205.83C518.9 211.3 534.33 201.76 545.85 208.21C555.39 221.51 551.85 240.48 557.74 255.35C574.44 258.46 599.97 241.51 610.29 261.69C611.62 271.67 613.23 282.51 618.38 291.64C620.79 296.07 617.4 307.64 626.58 303.64C640.03 299.79 654.42 294.37 668.01 293.92C681.03 306.87 682.79 327.76 691.04 344C694.92 356.75 708.83 343.29 717.45 342.47C726.25 342.22 732.03 331.64 741.2 334.71C747.81 337.9 747.28 346.05 750.03 351.89C753.34 360.29 758.74 367.84 760.09 376.97C762.45 381.78 764.04 391.16 771.4 388.35C785.46 384.46 795.28 371.84 809.73 369.26C817.37 380.6 820.31 395.32 828.12 406.86C829.5 414.05 832.02 420.47 838.56 424.41C845.95 441.83 851.68 460 858.94 477.36C868.81 466.76 880.12 457.47 889.02 446C892.3 446.83 895.53 448.87 896.82 452.14C900.79 467.26 906.62 481.94 911.01 497.02C911.37 498.72 913.09 499.57 914.68 498.82C922.62 489.48 924.24 473.07 935.89 467.94C941.79 478.94 943.79 493.96 948.71 506.29C952.27 511.44 954.37 502.55 958.72 504.48C960.16 498.62 961.19 492.66 962.41 486.75C966.2 509.35 969.72 532.01 973.02 554.66C968.9 556.83 970.09 560.46 973.15 562.94C975.42 575.07 968.98 589.93 977.49 600.64C978.62 610.47 976.54 620.33 975.83 630.13C971.28 616.66 969.8 600.68 968.06 585.94C969.06 578.61 959.41 569.45 957.63 580.81C952.53 591.45 947.15 601.95 941.98 612.52C937.94 596.79 936.96 579.77 930.69 564.37C924.1 562.6 927.01 554.74 923.99 550.01C920.09 536.83 916.87 523.39 912.74 510.26C908.73 505.96 904.9 514.84 901.85 516.81C892.98 523.64 885.77 539.85 873.98 538.05C868.57 521.11 864.35 503.04 857.77 486.22C851.83 478.4 845.39 490.69 838.96 491.89C829.48 497.62 819.57 503.34 811.05 510.02C796.71 491.84 803.15 461.37 783.41 446.66C778.44 429.09 771.02 412.45 765.75 395.05C750.4 399.11 736.22 406.91 720.9 410.9C717.98 413.62 713.4 413.07 710.77 410.24C703.27 392.45 699.54 372.45 690.71 355.22C672.26 353.23 653.86 367.13 635.74 364.32C630.53 347.06 624.79 328.78 620.84 311.06C604.35 301.67 583.57 315.24 565.69 313.34C558.58 297.31 562.8 277.17 554.8 261.2C539.38 254.33 519 266.58 503.96 259.02C501.13 244 504.69 227.68 502.3 212.73C489.77 208.14 474.76 212.65 462.08 208.91C450.31 200.58 436.84 201.3 423.51 200.43C423.8 190.31 432.01 181.15 432.88 170.89C442.16 153.8 413.7 158.74 404.54 153.41C396.55 145.96 378.43 150.28 376.07 138.55C370.79 140.07 347.77 131.04 365.04 129C369.46 119.54 379.08 112.64 384.92 103.96C376.81 96.41 362.38 91.85 357.8 80.15C356.09 75.5 353.64 66.27 347.66 68.41C343.6 62.54 340.26 71.66 337.39 74.43C332.55 81.45 323.52 77.24 318.87 84.31C313.58 75.98 326.92 67.32 323.58 58.66C328.04 57.69 331.82 55.28 333.9 50.73Z" fill="#DDDDDD"/>
<path d="M302.93 67.81C312.58 61.02 322.92 55.08 333.9 50.73C331.82 55.28 328.04 57.69 323.58 58.66C326.92 67.32 313.58 75.98 318.87 84.31C323.52 77.24 332.55 81.45 337.39 74.43C340.26 71.66 343.6 62.54 347.66 68.41C353.64 66.27 356.09 75.5 357.8 80.15C362.38 91.85 376.81 96.41 384.92 103.96C379.08 112.64 369.46 119.54 365.04 129C347.77 131.04 370.79 140.07 376.07 138.55C378.43 150.28 396.55 145.96 404.54 153.41C413.7 158.74 442.16 153.8 432.88 170.89C432.01 181.15 423.8 190.31 423.51 200.43C436.84 201.3 450.31 200.58 462.08 208.91C474.76 212.65 489.77 208.14 502.3 212.73C504.69 227.68 501.13 244 503.96 259.02C519 266.58 539.38 254.33 554.8 261.2C562.8 277.17 558.58 297.31 565.69 313.34C583.57 315.24 604.35 301.67 620.84 311.06C624.79 328.78 630.53 347.06 635.74 364.32C653.86 367.13 672.26 353.23 690.71 355.22C699.54 372.45 703.27 392.45 710.77 410.24C713.4 413.07 717.98 413.62 720.9 410.9C736.22 406.91 750.4 399.11 765.75 395.05C771.02 412.45 778.44 429.09 783.41 446.66C803.15 461.37 796.71 491.84 811.05 510.02C819.57 503.34 829.48 497.62 838.96 491.89C845.39 490.69 851.83 478.4 857.77 486.22C864.35 503.04 868.57 521.11 873.98 538.05C885.77 539.85 892.98 523.64 901.85 516.81C904.9 514.84 908.73 505.96 912.74 510.26C916.87 523.39 920.09 536.83 923.99 550.01C927.01 554.74 924.1 562.6 930.69 564.37C936.96 579.77 937.94 596.79 941.98 612.52C947.15 601.95 952.53 591.45 957.63 580.81C959.41 569.45 969.06 578.61 968.06 585.94C969.8 600.68 971.28 616.66 975.83 630.13C976.54 620.33 978.62 610.47 977.49 600.64C968.98 589.93 975.42 575.07 973.15 562.94C970.09 560.46 968.9 556.83 973.02 554.66C977.9 578.08 978.98 602.02 979.97 625.87C979.13 625.67 978.31 625.51 977.48 625.39C977.75 645.69 979.52 668.05 974.19 687.33C973.06 670.35 972.94 653.28 971.74 636.31C970.57 634.65 968.52 632.48 967.42 635.41C962.27 647.47 956.67 659.32 950.83 671.07C949.07 671.35 947.93 669.72 947.8 668.16C946.12 652.87 944.07 637.81 941.43 622.65C939.47 621.82 937.36 621.34 935.26 621.21C928.46 634.86 915.1 643.16 906.32 655.31C902.89 660.41 899.93 651.74 901.05 648.96C900.49 634.57 892.16 619.55 895.8 605.78C901.87 598.82 888.46 606.24 887.59 600.38C883.79 582.21 879.49 564.38 874.75 546.26C871.69 542.46 868.16 549 865.24 550.25C851.74 557.69 838.93 569.09 825.34 574.8C817.09 560.09 816.24 541.44 810.88 525.28C811.72 519.43 806.73 510.77 800.15 514.08C789.17 517.42 778.3 522.43 768.96 528.68C760.85 524.88 754.71 539.81 747.89 534.24C755.69 529.45 743.99 529.71 744.07 524.02C738.52 506.31 739.3 484.87 726.36 470.66C721.85 451.98 716.7 433.2 710.77 415.03C690.07 417.36 669.54 427.28 649.3 427.74C643.18 410 639.96 389.79 636.05 370.97C634.45 368.39 631.81 365.19 628.15 367.38C613.85 369.29 599.55 371.07 585.32 373.37C580.61 373.93 572.74 376.8 570.62 370.34C569.24 352.83 568.52 334.45 563.26 317.74C546.53 313.1 527.76 318.24 510.37 317.59C506.24 318.88 502.43 313.97 504.02 309.99C502.98 294.87 505.82 278.67 502.83 264.18C487.89 261.56 471.75 261.46 456.38 260.71C445.62 247.56 459.13 228.49 457 213.1C452.35 206.18 440.66 212.76 433.96 208.11C429.49 204.89 426 208.7 423.96 212.4C420.74 205.65 415.52 199.57 407.01 200.98C387.68 198.69 371.05 188.33 352.08 184.68C355.74 174.95 362.45 164.68 370.86 156.79C374.41 153.17 377.53 146.15 370.88 144.15C355.07 137.36 338.95 129.92 326.92 117.03C312.63 107.82 311.87 89.68 312.61 74.45C303.09 75.65 293.9 85.27 283.41 85.64C283.59 81.75 289.03 80.18 291.15 76.93C295.46 74.42 300.06 72.08 302.93 67.81Z" fill="#D8D8D8"/>
<path d="M243.68 96.76C255.21 84.89 268.88 74.88 284.1 68.18C259.47 85.26 235.78 104.97 212.19 124.24C171.36 164.94 136.46 210.98 105.42 259.39C68.78 331.81 35.84 407.37 20.36 487.36C8.54 535.49 9.31 586.02 1.64 634.63C2 667.76 1.07 701.17 3.78 734.25C3.01 725.89 1.77 717.6 0 709.41V633.58C5.54 607.49 4.54 580.42 7.92 553.98C11.53 515.17 19.06 476.74 28.82 438.99C30.59 423.22 40.7 409.93 42.1 394.27C57.59 365.53 66.8 333.54 81.07 304.01C81.99 302.26 81.55 300.38 80.9 298.64C88.2 286.14 98.6 274.36 100.36 259.33C116.88 246.47 119.46 224.27 135.83 211.08C159.44 179.16 184.83 148.81 213.01 120.88C218.77 112.04 230.63 110.26 234.85 100.02C237.97 99.54 241.29 99.07 243.68 96.76Z" fill="#93ABB9"/>
<path d="M247.91 105.86C264.62 91.09 282.87 77.93 302.93 67.81C300.06 72.08 295.46 74.42 291.15 76.93C284.68 81.67 270.87 86.45 275.7 96.81C268.99 109.2 271.25 124.35 277.83 136.29C297.32 162.88 327.57 176.63 356.12 190.86C363.59 193.64 376.57 192.27 380.11 200.97C376.11 206.4 375.76 212.91 375.59 219.53C368.73 225.51 364.51 234.26 361.96 242.8C374.67 244.26 386.68 248.17 399.3 249.73C405.49 257.79 415.78 255.9 424.59 256.62C433.07 261.2 444.15 255.98 451.87 262.28C449.84 277.33 449.06 292.53 446.53 307.52C444.48 310.78 446.46 314.63 449.84 315.22C467.63 317.65 486.57 315.56 503.82 318.19C510.29 336.15 504.1 357.66 508.17 375.83C527.49 379.01 548.03 374.09 567.84 374.12C579.64 383.07 573.48 401.35 577.9 414C581.45 421.17 574.89 440.35 588.43 437.59C603.66 434.64 618.7 431.59 634.58 430.77C639.21 430.51 645.74 426.84 649.25 431.76C653.24 450.21 656.25 469.08 660.41 487.59C663.95 498.59 678.07 489.1 685.49 487.56C699.68 486.33 713.1 477.51 727.3 478.64C734.34 496.66 737.15 516.49 742.86 535.19C756.41 554.77 751.29 580.84 761.25 601.94C780.27 593.88 800.18 585.28 818.98 575.88C827.43 579.7 825.6 589.2 827.44 596.61C830.79 610.02 833.54 623.55 835.93 637.07C841.7 639.94 848 633 852.74 629.78C866.23 625.04 873.76 611.34 887.97 607.95C896.62 625.17 890.59 650.2 903.4 666.48C905.67 683.85 907.13 702.82 911.18 718.73C919.61 717.95 910.49 706.48 918.51 710.31C925.44 703.19 930.15 693.62 939.15 688.19C939.4 682.59 950.04 677.26 948.63 685.85C952.03 699.55 950.46 713.75 951.31 727.68C951.25 730.73 955.2 730.66 956.17 728.23C960.26 718.7 964.12 708.99 968.9 699.81C970.02 697.15 971.1 700.11 971.74 701.42C973.26 714.85 969.73 728.06 969.35 741.44C969.78 744.28 966.94 750.87 971.97 751.29C969.64 737.51 972.89 724.15 978.8 711.76C977.88 736.65 972.53 761.05 970.06 785.81C961.14 794.52 961.06 808.66 953.14 818.46C951.04 807.64 958.04 798.47 962.12 789.12C962.88 786.72 966.14 770.41 961.04 776C958.72 780.29 957.07 789.28 950.38 786.55C949.97 773.06 950.91 759.55 951.03 746.05C950.86 743.9 950 740.88 947.27 742.19C937.11 754.37 926.36 766.05 916.77 778.73C915.59 780.86 912.7 780.15 911.68 778.27C908.97 761.03 912.96 742.15 907.68 725.23C902.82 723.73 899.59 728.65 896.69 731.7C884.23 736.12 875.78 747.55 864.69 754.66C862.68 758.11 854.6 761.95 853.77 756.15C852.13 737.25 853.13 716.83 844.58 699.47C842.99 681.5 838.42 664.02 836.96 646.03C837.05 643.13 834.14 641.77 831.72 641.33C812.25 650.68 792.75 660.12 772.96 669.1C766.47 667.94 769.25 658.63 767.08 653.97C761.19 638.12 766.69 617.18 755.22 603.79C749.59 584.2 748.53 563.16 742.2 543.71C736.32 543.55 728.19 545.67 722.85 549.84C706.58 552.04 691.66 559.53 675.38 561.83C673.61 560.49 671.93 558.77 671.5 556.52C667.31 536.9 665.77 516.67 660.75 497.29C653.29 492 643.29 497.36 634.95 497.89C620.65 498.87 606.81 502.71 592.65 504.66C588.63 505.64 584.58 501.3 585.7 497.21C584.6 482.88 583.89 468.52 581.67 454.31C580.49 449.03 582.12 441.49 576.57 438.21C553.94 437.97 530.26 443.95 508.15 439.83C506.53 422.66 507.46 403.69 507 385.97C508.9 380.31 502.12 375.47 497.06 377C479.39 376.97 461.8 374.7 444.13 374.86C437.98 374.13 440.74 366.35 441.47 362.46C444.8 349.15 442.26 334.95 446.94 321.96C446.72 313.92 435.7 316.05 430.35 314.5C416.68 310.08 398.05 316.43 387.45 304.74C392.65 289.75 395.58 272.72 400.97 257.25C385.21 250.32 365.78 253.57 351.83 242.26C328.44 236.75 307.24 226.06 286.74 213.91C292.59 198.67 306.36 188.24 314.01 175.07C294.68 159.87 271 143.66 266.66 117.13C262.53 118.47 259.77 121.38 257.02 115.86C249.62 123.36 243.23 131.57 235.09 138.4C233.59 132.76 239.72 127.08 236.44 121.92C239.53 118.1 242.94 114.45 245.06 109.96C245.99 108.58 246.93 107.21 247.91 105.86Z" fill="#CFCFCF"/>
<path d="M283.41 85.64C293.9 85.27 303.09 75.65 312.61 74.45C311.87 89.68 312.63 107.82 326.92 117.03C338.95 129.92 355.07 137.36 370.88 144.15C377.53 146.15 374.41 153.17 370.86 156.79C362.45 164.68 355.74 174.95 352.08 184.68C371.05 188.33 387.68 198.69 407.01 200.98C415.52 199.57 420.74 205.65 423.96 212.4C426 208.7 429.49 204.89 433.96 208.11C440.66 212.76 452.35 206.18 457 213.1C459.13 228.49 445.62 247.56 456.38 260.71C471.75 261.46 487.89 261.56 502.83 264.18C505.82 278.67 502.98 294.87 504.02 309.99C502.43 313.97 506.24 318.88 510.37 317.59C527.76 318.24 546.53 313.1 563.26 317.74C568.52 334.45 569.24 352.83 570.62 370.34C572.74 376.8 580.61 373.93 585.32 373.37C599.55 371.07 613.85 369.29 628.15 367.38C631.81 365.19 634.45 368.39 636.05 370.97C639.96 389.79 643.18 410 649.3 427.74C669.54 427.28 690.07 417.36 710.77 415.03C716.7 433.2 721.85 451.98 726.36 470.66C739.3 484.87 738.52 506.31 744.07 524.02C743.99 529.71 755.69 529.45 747.89 534.24C754.71 539.81 760.85 524.88 768.96 528.68C778.3 522.43 789.17 517.42 800.15 514.08C806.73 510.77 811.72 519.43 810.88 525.28C816.24 541.44 817.09 560.09 825.34 574.8C838.93 569.09 851.74 557.69 865.24 550.25C868.16 549 871.69 542.46 874.75 546.26C879.49 564.38 883.79 582.21 887.59 600.38C888.46 606.24 901.87 598.82 895.8 605.78C892.16 619.55 900.49 634.57 901.05 648.96C899.93 651.74 902.89 660.41 906.32 655.31C915.1 643.16 928.46 634.86 935.26 621.21C937.36 621.34 939.47 621.82 941.43 622.65C944.07 637.81 946.12 652.87 947.8 668.16C947.93 669.72 949.07 671.35 950.83 671.07C956.67 659.32 962.27 647.47 967.42 635.41C968.52 632.48 970.57 634.65 971.74 636.31C972.94 653.28 973.06 670.35 974.19 687.33C979.52 668.05 977.75 645.69 977.48 625.39C978.31 625.51 979.13 625.67 979.97 625.87C981.75 654.44 980.89 683.21 978.8 711.76C972.89 724.15 969.64 737.51 971.97 751.29C966.94 750.87 969.78 744.28 969.35 741.44C969.73 728.06 973.26 714.85 971.74 701.42C971.1 700.11 970.02 697.15 968.9 699.81C964.12 708.99 960.26 718.7 956.17 728.23C955.2 730.66 951.25 730.73 951.31 727.68C950.46 713.75 952.03 699.55 948.63 685.85C950.04 677.26 939.4 682.59 939.15 688.19C930.15 693.62 925.44 703.19 918.51 710.31C910.49 706.48 919.61 717.95 911.18 718.73C907.13 702.82 905.67 683.85 903.4 666.48C890.59 650.2 896.62 625.17 887.97 607.95C873.76 611.34 866.23 625.04 852.74 629.78C848 633 841.7 639.94 835.93 637.07C833.54 623.55 830.79 610.02 827.44 596.61C825.6 589.2 827.43 579.7 818.98 575.88C800.18 585.28 780.27 593.88 761.25 601.94C751.29 580.84 756.41 554.77 742.86 535.19C737.15 516.49 734.34 496.66 727.3 478.64C713.1 477.51 699.68 486.33 685.49 487.56C678.07 489.1 663.95 498.59 660.41 487.59C656.25 469.08 653.24 450.21 649.25 431.76C645.74 426.84 639.21 430.51 634.58 430.77C618.7 431.59 603.66 434.64 588.43 437.59C574.89 440.35 581.45 421.17 577.9 414C573.48 401.35 579.64 383.07 567.84 374.12C548.03 374.09 527.49 379.01 508.17 375.83C504.1 357.66 510.29 336.15 503.82 318.19C486.57 315.56 467.63 317.65 449.84 315.22C446.46 314.63 444.48 310.78 446.53 307.52C449.06 292.53 449.84 277.33 451.87 262.28C444.15 255.98 433.07 261.2 424.59 256.62C415.78 255.9 405.49 257.79 399.3 249.73C386.68 248.17 374.67 244.26 361.96 242.8C364.51 234.26 368.73 225.51 375.59 219.53C375.76 212.91 376.11 206.4 380.11 200.97C376.57 192.27 363.59 193.64 356.12 190.86C327.57 176.63 297.32 162.88 277.83 136.29C271.25 124.35 268.99 109.2 275.7 96.81C270.87 86.45 284.68 81.67 291.15 76.93C289.03 80.18 283.59 81.75 283.41 85.64Z" fill="#D3D3D3"/>
<path d="M753.19 98.87C764.89 100.52 774.09 111.05 780.97 119.93C783.75 129.17 798.41 129.98 798.09 140.03C782.66 126.76 771.11 109.08 753.19 98.87Z" fill="#B8D6E2"/>
<path d="M212.26 136.52C222.68 124.69 236.06 116.11 247.91 105.86C246.93 107.21 245.99 108.58 245.06 109.96C230.53 123.45 213.35 134.66 203.03 152.3C212.81 146.47 219.01 136.07 228.9 130.72C224.8 154.12 234.84 178.26 253.23 192.73C260.23 203.48 273.31 207 281.9 216.12C285.75 220.51 293.97 221.57 293.45 228.92C300.77 225.6 309.59 229.35 313.98 234.98C307.57 247.62 301.66 260.67 295.28 273.4C293.61 276.17 291.32 280.97 295.34 282.67C308.02 287.19 321.4 289.51 333.55 295.57C349.68 306.01 370.86 302.94 387.37 311.74C385.6 326.59 380.93 342.67 376.63 357.66C376.37 360.39 374.24 366.41 378.51 367.43C397.82 371.39 418.59 371.87 437.29 375.71C441.66 393.9 437.6 413.71 434.18 432.03C434.44 434.88 435.22 438.81 438.4 439.71C458.62 439.98 478.8 441.52 499.03 440.92C502.72 440.58 506.74 442.66 507.68 446.43C508.69 466.28 507.13 486.7 509.69 506.28C532.92 512.75 557.75 503.43 581.78 504.28C595.31 523.11 585.01 550.92 593.2 571.83C618.04 573.77 643.42 562.65 668.75 563.19C675.68 577.82 673.74 595.34 678.01 610.99C678.81 618.21 677.02 626.74 684.67 630.5C685.94 651.03 689.51 671.28 691.6 691.56C716.29 687 741.18 678.55 764.62 670.29C775.4 684.6 769.83 706.1 774.99 722.91C776.27 727.63 774.02 737.18 780.85 737.89C797.13 728.73 814.29 721.37 831 713.05C835.24 713.4 842.07 705.54 844.41 711.66C845.73 730.06 844.96 750.41 851.6 767.38C859.45 783.66 852.21 804.57 856.88 822.19C857.87 824.24 860.77 822.06 862.01 821C874.71 813.05 884.88 802.12 897.4 793.37C901.87 792.3 906.59 781.89 910.82 788.38C910.79 804.79 911.64 821.32 911.43 837.65C922.26 840.23 923.1 825.03 930.8 820.8C937.69 814.85 939.2 803.98 947.89 799.63C948.7 807.82 947.64 816.21 945.01 823.98C942.57 826.18 939.93 828.06 943.03 831.07C938.57 846.07 925.16 855.36 917.48 868.52C914.25 869.51 908.45 881.48 914.66 877.65C921.55 868.18 929.82 859.82 935.59 849.49C946.98 843.6 947.73 829.96 954.53 820.46C959.46 813.44 960.11 804.1 966.04 797.86C956.93 818.41 950.34 840.9 934.46 857.45C919.21 879.3 901.83 899.66 879.11 914.03C866.69 912.76 864.06 929.63 852.89 931.08C854.27 921.22 863.61 916.67 870.6 911.59C882 901.6 896.8 894.15 905.34 881.28C908.48 873.68 906.46 864.95 907.8 856.92C907.93 855.2 909.4 848.07 905.11 849.07C887.04 857.36 874.37 876.2 857.31 883.78C850.77 867.58 856.62 847.6 854.01 830.04C853.11 826.28 849.08 828.81 847.03 830.04C827.61 840.98 806.78 851.05 787.31 860.7C781 843.29 788.63 820.36 781.76 802.24C776.26 785.35 776.76 765.5 775.66 747.45C775.88 744.81 774.83 737.57 770.42 739.39C751.16 747.92 730.64 752.84 710.42 758.5C705.43 759.71 697.78 765.35 694.38 759.56C692.57 740.07 691.39 720.54 689.94 701.04C689.81 698.16 687.8 695.79 685.58 694.16C658.61 698.5 631.55 704.69 604.72 708.29C598.23 686.62 607.15 660.24 595.79 639.3C593.14 618.4 592.39 596.7 589.82 576.16C564.48 573.87 537.52 580.06 511.67 579.42C508.63 577.94 505.44 574.92 507.02 570.99C506.77 552.67 507.24 534.35 506.98 516.03C506.31 511.56 501.81 507.61 496.98 509.06C476.96 509.4 456.99 507.53 436.97 508.04C432.7 507.91 427.96 504.62 427.49 500.18C430.52 481.97 428.65 462.97 433.53 445.19C431.44 436.12 419.92 438.57 413.16 437.77C397.21 434.1 379.69 434.76 364.67 429.36C361.35 416.98 370.05 402.52 370.03 389.02C370.17 383.67 371.41 378.6 374.07 373.98C372.92 366.25 361.91 367.06 356.2 365.67C341.92 359.7 324.58 361.71 312.49 351.53C296.53 349.21 282.77 339.76 267.3 335.56C265.19 335.03 266.21 332.24 266.8 330.85C275.39 316.19 281.4 300.2 289.07 285.15C281.12 276.5 267.38 275.47 257.84 268.41C229.84 250.65 202.06 227.67 192.56 194.35C191.87 185.86 193.01 177.36 191.12 168.94C191.85 164.77 185.29 171.83 187.16 167.17C193.79 155.93 205.82 147.42 212.26 136.52Z" fill="#C5C5C5"/>
<path d="M203.03 152.3C213.35 134.66 230.53 123.45 245.06 109.96C242.94 114.45 239.53 118.1 236.44 121.92C239.72 127.08 233.59 132.76 235.09 138.4C243.23 131.57 249.62 123.36 257.02 115.86C259.77 121.38 262.53 118.47 266.66 117.13C271 143.66 294.68 159.87 314.01 175.07C306.36 188.24 292.59 198.67 286.74 213.91C307.24 226.06 328.44 236.75 351.83 242.26C365.78 253.57 385.21 250.32 400.97 257.25C395.58 272.72 392.65 289.75 387.45 304.74C398.05 316.43 416.68 310.08 430.35 314.5C435.7 316.05 446.72 313.92 446.94 321.96C442.26 334.95 444.8 349.15 441.47 362.46C440.74 366.35 437.98 374.13 444.13 374.86C461.8 374.7 479.39 376.97 497.06 377C502.12 375.47 508.9 380.31 507 385.97C507.46 403.69 506.53 422.66 508.15 439.83C530.26 443.95 553.94 437.97 576.57 438.21C582.12 441.49 580.49 449.03 581.67 454.31C583.89 468.52 584.6 482.88 585.7 497.21C584.58 501.3 588.63 505.64 592.65 504.66C606.81 502.71 620.65 498.87 634.95 497.89C643.29 497.36 653.29 492 660.75 497.29C665.77 516.67 667.31 536.9 671.5 556.52C671.93 558.77 673.61 560.49 675.38 561.83C691.66 559.53 706.58 552.04 722.85 549.84C728.19 545.67 736.32 543.55 742.2 543.71C748.53 563.16 749.59 584.2 755.22 603.79C766.69 617.18 761.19 638.12 767.08 653.97C769.25 658.63 766.47 667.94 772.96 669.1C792.75 660.12 812.25 650.68 831.72 641.33C834.14 641.77 837.05 643.13 836.96 646.03C838.42 664.02 842.99 681.5 844.58 699.47C853.13 716.83 852.13 737.25 853.77 756.15C854.6 761.95 862.68 758.11 864.69 754.66C875.78 747.55 884.23 736.12 896.69 731.7C899.59 728.65 902.82 723.73 907.68 725.23C912.96 742.15 908.97 761.03 911.68 778.27C912.7 780.15 915.59 780.86 916.77 778.73C926.36 766.05 937.11 754.37 947.27 742.19C950 740.88 950.86 743.9 951.03 746.05C950.91 759.55 949.97 773.06 950.38 786.55C957.07 789.28 958.72 780.29 961.04 776C966.14 770.41 962.88 786.72 962.12 789.12C958.04 798.47 951.04 807.64 953.14 818.46C961.06 808.66 961.14 794.52 970.06 785.81C970.14 790.18 968.06 794.1 966.04 797.86C960.11 804.1 959.46 813.44 954.53 820.46C947.73 829.96 946.98 843.6 935.59 849.49C929.82 859.82 921.55 868.18 914.66 877.65C908.45 881.48 914.25 869.51 917.48 868.52C925.16 855.36 938.57 846.07 943.03 831.07C939.93 828.06 942.57 826.18 945.01 823.98C947.64 816.21 948.7 807.82 947.89 799.63C939.2 803.98 937.69 814.85 930.8 820.8C923.1 825.03 922.26 840.23 911.43 837.65C911.64 821.32 910.79 804.79 910.82 788.38C906.59 781.89 901.87 792.3 897.4 793.37C884.88 802.12 874.71 813.05 862.01 821C860.77 822.06 857.87 824.24 856.88 822.19C852.21 804.57 859.45 783.66 851.6 767.38C844.96 750.41 845.73 730.06 844.41 711.66C842.07 705.54 835.24 713.4 831 713.05C814.29 721.37 797.13 728.73 780.85 737.89C774.02 737.18 776.27 727.63 774.99 722.91C769.83 706.1 775.4 684.6 764.62 670.29C741.18 678.55 716.29 687 691.6 691.56C689.51 671.28 685.94 651.03 684.67 630.5C677.02 626.74 678.81 618.21 678.01 610.99C673.74 595.34 675.68 577.82 668.75 563.19C643.42 562.65 618.04 573.77 593.2 571.83C585.01 550.92 595.31 523.11 581.78 504.28C557.75 503.43 532.92 512.75 509.69 506.28C507.13 486.7 508.69 466.28 507.68 446.43C506.74 442.66 502.72 440.58 499.03 440.92C478.8 441.52 458.62 439.98 438.4 439.71C435.22 438.81 434.44 434.88 434.18 432.03C437.6 413.71 441.66 393.9 437.29 375.71C418.59 371.87 397.82 371.39 378.51 367.43C374.24 366.41 376.37 360.39 376.63 357.66C380.93 342.67 385.6 326.59 387.37 311.74C370.86 302.94 349.68 306.01 333.55 295.57C321.4 289.51 308.02 287.19 295.34 282.67C291.32 280.97 293.61 276.17 295.28 273.4C301.66 260.67 307.57 247.62 313.98 234.98C309.59 229.35 300.77 225.6 293.45 228.92C293.97 221.57 285.75 220.51 281.9 216.12C273.31 207 260.23 203.48 253.23 192.73C234.84 178.26 224.8 154.12 228.9 130.72C219.01 136.07 212.81 146.47 203.03 152.3Z" fill="#CACACA"/>
<path d="M188.74 142.78C197.3 135.99 202.37 124.89 213.01 120.88C184.83 148.81 159.44 179.16 135.83 211.08C136.15 208.9 136.39 206.59 137.77 204.76C153.88 183.33 170.41 162.21 188.74 142.78Z" fill="#BED8E3"/>
<path d="M172.94 180.93C183.86 164.33 198.26 150.47 212.26 136.52C205.82 147.42 193.79 155.93 187.16 167.17C185.29 171.83 191.85 164.77 191.12 168.94C193.01 177.36 191.87 185.86 192.56 194.35C202.06 227.67 229.84 250.65 257.84 268.41C267.38 275.47 281.12 276.5 289.07 285.15C281.4 300.2 275.39 316.19 266.8 330.85C266.21 332.24 265.19 335.03 267.3 335.56C282.77 339.76 296.53 349.21 312.49 351.53C324.58 361.71 341.92 359.7 356.2 365.67C361.91 367.06 372.92 366.25 374.07 373.98C371.41 378.6 370.17 383.67 370.03 389.02C370.05 402.52 361.35 416.98 364.67 429.36C379.69 434.76 397.21 434.1 413.16 437.77C419.92 438.57 431.44 436.12 433.53 445.19C428.65 462.97 430.52 481.97 427.49 500.18C427.96 504.62 432.7 507.91 436.97 508.04C456.99 507.53 476.96 509.4 496.98 509.06C501.81 507.61 506.31 511.56 506.98 516.03C507.24 534.35 506.77 552.67 507.02 570.99C505.44 574.92 508.63 577.94 511.67 579.42C537.52 580.06 564.48 573.87 589.82 576.16C592.39 596.7 593.14 618.4 595.79 639.3C607.15 660.24 598.23 686.62 604.72 708.29C631.55 704.69 658.61 698.5 685.58 694.16C687.8 695.79 689.81 698.16 689.94 701.04C691.39 720.54 692.57 740.07 694.38 759.56C697.78 765.35 705.43 759.71 710.42 758.5C730.64 752.84 751.16 747.92 770.42 739.39C774.83 737.57 775.88 744.81 775.66 747.45C776.76 765.5 776.26 785.35 781.76 802.24C788.63 820.36 781 843.29 787.31 860.7C806.78 851.05 827.61 840.98 847.03 830.04C849.08 828.81 853.11 826.28 854.01 830.04C856.62 847.6 850.77 867.58 857.31 883.78C874.37 876.2 887.04 857.36 905.11 849.07C909.4 848.07 907.93 855.2 907.8 856.92C906.46 864.95 908.48 873.68 905.34 881.28C896.8 894.15 882 901.6 870.6 911.59C863.61 916.67 854.27 921.22 852.89 931.08C864.06 929.63 866.69 912.76 879.11 914.03C872.73 920.02 865.92 925.53 859.26 931.19C854.19 933.14 849.46 935.79 845.07 938.96C835.16 940.49 827.76 948.79 817.79 950.11C826.02 940.81 838.63 937.1 848.76 930.73C851.23 917.41 852.46 903.57 853.06 890.01C853.46 885.06 846.86 887.66 844.73 888.71C826.92 901.58 806.32 911.87 786.35 919.84C780.21 904.59 786.09 884.76 784 867.95C774.6 849 781.97 826.61 777.47 806.37C763.02 806.48 751 815.18 737.15 818.22C726.97 822.6 715.7 823.83 705.72 828.79C703.25 830.34 700.15 830.08 698.21 827.81C693.05 807.56 699.92 783.07 691.27 763.69C663.56 766.48 634.48 773.89 606.74 777.35C601.85 756.99 606.26 734.02 600.83 713.04C597 704.19 597.63 694.03 595.02 684.98C589.78 680.96 598.7 675.39 595.73 670.18C593.58 662.22 598.09 651.85 592.65 645.09C574.12 647.25 555.28 646.52 536.7 647.73C527.35 646.44 511.82 656.68 507.59 644.39C505.89 623.45 507.9 602.28 506.76 581.31C501.2 574.5 490.47 579.84 483.1 577.75C465.06 573.87 446.39 577.14 428.12 575.9C425.67 575.37 423.66 573.6 422.23 571.62C423.34 550.25 427.77 528.33 424.78 507.25C401.12 500.71 375.04 502.61 351.66 494.25C352.09 476.22 357.92 457.26 360.03 439.01C361.28 436.58 361.38 433.73 358.8 432.15C337.33 422.28 309.92 424.84 291.02 409.95C275.81 402.85 258.64 400.04 244.1 391.69C249.68 378.37 255.05 363.87 261.36 350.33C266.66 344.53 264.85 336.15 257.14 333.84C225.44 317.74 193.31 299.11 173.58 268.38C162.96 253.66 157.21 235.28 158.91 217.02C162.09 211.7 153.97 211.42 154.97 207.12C162.49 199.52 167.14 189.79 172.94 180.93Z" fill="#BFBFBF"/>
<path d="M140.91 221.8C151.59 208.19 160.83 193.38 172.94 180.93C167.14 189.79 162.49 199.52 154.97 207.12C153.97 211.42 162.09 211.7 158.91 217.02C157.21 235.28 162.96 253.66 173.58 268.38C193.31 299.11 225.44 317.74 257.14 333.84C264.85 336.15 266.66 344.53 261.36 350.33C255.05 363.87 249.68 378.37 244.1 391.69C258.64 400.04 275.81 402.85 291.02 409.95C309.92 424.84 337.33 422.28 358.8 432.15C361.38 433.73 361.28 436.58 360.03 439.01C357.92 457.26 352.09 476.22 351.66 494.25C375.04 502.61 401.12 500.71 424.78 507.25C427.77 528.33 423.34 550.25 422.23 571.62C423.66 573.6 425.67 575.37 428.12 575.9C446.39 577.14 465.06 573.87 483.1 577.75C490.47 579.84 501.2 574.5 506.76 581.31C507.9 602.28 505.89 623.45 507.59 644.39C511.82 656.68 527.35 646.44 536.7 647.73C555.28 646.52 574.12 647.25 592.65 645.09C598.09 651.85 593.58 662.22 595.73 670.18C598.7 675.39 589.78 680.96 595.02 684.98C597.63 694.03 597 704.19 600.83 713.04C606.26 734.02 601.85 756.99 606.74 777.35C634.48 773.89 663.56 766.48 691.27 763.69C699.92 783.07 693.05 807.56 698.21 827.81C700.15 830.08 703.25 830.34 705.72 828.79C715.7 823.83 726.97 822.6 737.15 818.22C751 815.18 763.02 806.48 777.47 806.37C781.97 826.61 774.6 849 784 867.95C786.09 884.76 780.21 904.59 786.35 919.84C806.32 911.87 826.92 901.58 844.73 888.71C846.86 887.66 853.46 885.06 853.06 890.01C852.46 903.57 851.23 917.41 848.76 930.73C838.63 937.1 826.02 940.81 817.79 950.11C827.76 948.79 835.16 940.49 845.07 938.96C824.55 949.68 804.52 961.35 783.92 971.91C781.7 972.82 777.89 974.27 776.91 971.05C785.19 958.2 782.35 941.23 783.73 926.32C780.01 918.02 769.82 924.59 763.85 926.77C749.93 928.89 738.02 938.2 723.64 938.59C718.53 943.51 710.25 946.58 703.74 946.34C699.23 930.58 703.59 911.86 701.93 895.07C695.07 876.83 698.81 856.15 696.91 837.02C699.51 825.77 685.81 828.61 679.9 831.83C657.96 834.81 636.1 839.48 614.24 843.42C611.98 843.48 608.71 846.39 607.28 843.74C601.12 822.08 613.41 795.5 600.37 775.7C598.67 756.28 599.24 736.77 598.72 717.33C595.9 709.5 585 716.23 578.96 715.84C556.07 715.05 532.66 721 510.18 716.84C500.55 696.77 513.01 669.25 504.81 648.21C478.24 644.86 450.28 644.49 423.12 643.91C419.64 643.02 418.41 638.08 419.08 635.02C421.69 619.1 420.7 602.89 422.84 586.92C428.3 568.63 403.2 571.39 392.96 569.96C376.85 563.46 357.76 569.38 343.11 559.63C343.13 543.92 347.96 528.58 349.03 512.99C352.48 506.92 353.31 496.1 344.93 494.02C323.95 488.44 301.65 485.13 281.63 477.26C284.16 459.76 290.39 440.98 294.93 422.93C297.83 418.89 293.05 414.49 289.11 413.91C274.1 408.26 258.62 403.19 243.81 397.13C229.81 381.47 203.32 380.48 192.14 362.27C202.53 358.36 201.92 344.98 208.28 337.22C213.55 331.63 216.07 323.38 217.77 316.31C202.94 304.27 186.22 293.9 175.88 277.1C162.81 265.64 161.11 247.15 150.08 234.79C149.9 231.11 159.33 220.49 151.32 220.1C148.02 226.57 141.04 231.61 141.48 239.42C134.69 241.41 132.54 249.38 126.93 253.27C121.63 250.08 129.52 246.23 130.57 242.61C132.08 234.63 139.9 229.83 140.91 221.8Z" fill="#BABABA"/>
<path d="M863.88 218.89C875.54 224.34 873.39 240.23 884.16 246.87C894.1 269.23 908.22 289.4 916.18 312.76C927.7 321.79 925.51 337.39 934.38 347.98C926.12 343.7 925.97 333.37 922 325.97C910.52 306.27 901.82 285.1 890.85 265.2C883.8 248.68 871.36 235.21 863.88 218.89Z" fill="#C7DDE7"/>
<path d="M151.32 220.1C159.33 220.49 149.9 231.11 150.08 234.79C161.11 247.15 162.81 265.64 175.88 277.1C186.22 293.9 202.94 304.27 217.77 316.31C216.07 323.38 213.55 331.63 208.28 337.22C201.92 344.98 202.53 358.36 192.14 362.27C203.32 380.48 229.81 381.47 243.81 397.13C258.62 403.19 274.1 408.26 289.11 413.91C293.05 414.49 297.83 418.89 294.93 422.93C290.39 440.98 284.16 459.76 281.63 477.26C301.65 485.13 323.95 488.44 344.93 494.02C353.31 496.1 352.48 506.92 349.03 512.99C347.96 528.58 343.13 543.92 343.11 559.63C357.76 569.38 376.85 563.46 392.96 569.96C403.2 571.39 428.3 568.63 422.84 586.92C420.7 602.89 421.69 619.1 419.08 635.02C418.41 638.08 419.64 643.02 423.12 643.91C450.28 644.49 478.24 644.86 504.81 648.21C513.01 669.25 500.55 696.77 510.18 716.84C532.66 721 556.07 715.05 578.96 715.84C585 716.23 595.9 709.5 598.72 717.33C599.24 736.77 598.67 756.28 600.37 775.7C613.41 795.5 601.12 822.08 607.28 843.74C608.71 846.39 611.98 843.48 614.24 843.42C636.1 839.48 657.96 834.81 679.9 831.83C685.81 828.61 699.51 825.77 696.91 837.02C698.81 856.15 695.07 876.83 701.93 895.07C703.59 911.86 699.23 930.58 703.74 946.34C710.25 946.58 718.53 943.51 723.64 938.59C738.02 938.2 749.93 928.89 763.85 926.77C769.82 924.59 780.01 918.02 783.73 926.32C782.35 941.23 785.19 958.2 776.91 971.05C777.89 974.27 781.7 972.82 783.92 971.91C804.52 961.35 824.55 949.68 845.07 938.96C849.46 935.79 854.19 933.14 859.26 931.19L859.07 932.11C843.82 944.45 825.03 950.99 808.59 961.54C784.83 975.8 758.63 984.96 732.36 993.35C718.98 990.85 708.17 1003.12 695.31 1002.67C703.18 987.81 699.27 969.86 700.5 953.64C690.33 936.05 702.49 911.94 695.37 893.75C673.4 896.92 650.98 901.08 629.12 906.27C622.22 905.45 614.4 911.42 608.18 908.86C603.48 889.33 607.59 868.31 605.61 848.39C603.24 840.87 593.76 844.87 587.99 843.98C562.71 847.41 536.91 849.24 511.4 848.54C508.8 825.08 515.59 799.39 506.08 777.97C505.63 759.02 506.38 740.05 505.91 721.12C503.56 715.31 494.6 718.12 490.02 716.97C469.45 718.57 449.38 715.07 428.93 714.3C424.18 713.7 417.36 715.52 414.59 710.34C413.74 688.4 421.6 664.5 414.86 643.14C394.4 638.09 372.42 638.96 351.84 633.49C346.29 631.6 336.52 635.07 334.34 627.68C334.7 606.42 340.26 585.51 340.82 564.31C329.36 556.06 313.66 556.97 300.95 551.23C290.46 549.25 280.19 546.05 269.72 544.27C263.81 538.4 270.29 529.87 270.16 523.05C275.08 509.82 276.6 495.63 279.97 482.13C270.46 472.28 253.95 472.29 242.38 464.64C224.25 463.08 214.15 447.91 199.35 439.78C190.56 437.58 183.58 431.24 175.36 427.66C171.72 425.41 173.73 422.38 176.12 420.16C176.59 412.75 181.76 407.03 184.23 400.33C184.6 390.83 191.28 383.32 195.02 374.97C184.45 358.68 163.57 352.53 153.46 335.49C134.91 315.89 122.63 289.92 123.34 262.59C119.01 255.86 113.54 285.66 112.18 270.31C119.73 261.06 125.09 250.35 129.22 239.53C132.69 233.37 136.52 227.34 140.91 221.8C139.9 229.83 132.08 234.63 130.57 242.61C129.52 246.23 121.63 250.08 126.93 253.27C132.54 249.38 134.69 241.41 141.48 239.42C141.04 231.61 148.02 226.57 151.32 220.1Z" fill="#B6B6B6"/>
<path d="M107.08 275.93C112.69 262.82 121.07 251.15 129.22 239.53C125.09 250.35 119.73 261.06 112.18 270.31C113.54 285.66 119.01 255.86 123.34 262.59C122.63 289.92 134.91 315.89 153.46 335.49C163.57 352.53 184.45 358.68 195.02 374.97C191.28 383.32 184.6 390.83 184.23 400.33C181.76 407.03 176.59 412.75 176.12 420.16C173.73 422.38 171.72 425.41 175.36 427.66C183.58 431.24 190.56 437.58 199.35 439.78C214.15 447.91 224.25 463.08 242.38 464.64C253.95 472.29 270.46 472.28 279.97 482.13C276.6 495.63 275.08 509.82 270.16 523.05C270.29 529.87 263.81 538.4 269.72 544.27C280.19 546.05 290.46 549.25 300.95 551.23C313.66 556.97 329.36 556.06 340.82 564.31C340.26 585.51 334.7 606.42 334.34 627.68C336.52 635.07 346.29 631.6 351.84 633.49C372.42 638.96 394.4 638.09 414.86 643.14C421.6 664.5 413.74 688.4 414.59 710.34C417.36 715.52 424.18 713.7 428.93 714.3C449.38 715.07 469.45 718.57 490.02 716.97C494.6 718.12 503.56 715.31 505.91 721.12C506.38 740.05 505.63 759.02 506.08 777.97C515.59 799.39 508.8 825.08 511.4 848.54C536.91 849.24 562.71 847.41 587.99 843.98C593.76 844.87 603.24 840.87 605.61 848.39C607.59 868.31 603.48 889.33 608.18 908.86C614.4 911.42 622.22 905.45 629.12 906.27C650.98 901.08 673.4 896.92 695.37 893.75C702.49 911.94 690.33 936.05 700.5 953.64C699.27 969.86 703.18 987.81 695.31 1002.67C708.17 1003.12 718.98 990.85 732.36 993.35C712.68 1002.1 692.36 1007.65 671.3 1011.38C647.77 1008.83 625.35 1021.35 601.82 1020.95C604.21 1016.64 608.52 1012.52 613.82 1012.71C638.93 1008.59 663.29 1002.44 688.4 998.4C701.21 995.72 692.24 977.7 695.24 969.06C694.22 965.04 699.55 954.25 692.17 955.14C664.52 961.88 635.93 965.78 608.34 971.78C596.81 953.54 615.46 925.99 601.65 908.29C571.71 911.88 541.24 914.17 511.33 914.77C505.32 897.19 511.04 875.15 508.96 856.03C499.94 837.11 507.47 814.38 505 794.01C507.52 787.32 499.38 785.64 494.97 786.09C470.36 786.6 445.87 783.59 421.29 783.75C409.73 785.33 411.65 772.28 411.93 765C410.82 748.32 413.97 731.05 413.36 714.7C389.67 706.4 363.38 707.9 339.16 700.9C334.53 699.51 326.66 701.87 325.31 695.56C324.32 673.8 333.04 651.69 329.76 630.27C310.65 626.19 291.28 618.92 271.67 614.24C266.04 611.5 258.03 613.69 254.28 607.66C252.92 595.5 262.04 585.93 259.33 573.3C264.15 565.9 260.37 555.92 266.09 548.94C265.61 545.64 262.63 543.39 259.63 542.41C241.15 535.92 223.29 527.73 205.01 521.07C191.05 505.74 170.84 498.64 154.14 486.95C148.62 486.36 152.05 476.25 155.18 481.8C157.34 487.55 161.51 479.78 158.64 476.49C149.73 471.28 163.28 463.06 160.44 455.44C169.64 450.22 163.91 438.63 171.01 432.05C161.49 420.61 149.22 411.53 137.19 402.81C127.92 389.25 117.65 376.31 108.21 362.82C100.5 345.1 94.99 326.82 96.66 307.29C94.16 295.07 106.53 287.23 107.08 275.93Z" fill="#B1B1B1"/>
<path d="M83.17 328.9C89.02 310.42 97.87 292.97 107.08 275.93C106.53 287.23 94.16 295.07 96.66 307.29C94.99 326.82 100.5 345.1 108.21 362.82C117.65 376.31 127.92 389.25 137.19 402.81C149.22 411.53 161.49 420.61 171.01 432.05C163.91 438.63 169.64 450.22 160.44 455.44C163.28 463.06 149.73 471.28 158.64 476.49C161.51 479.78 157.34 487.55 155.18 481.8C152.05 476.25 148.62 486.36 154.14 486.95C170.84 498.64 191.05 505.74 205.01 521.07C223.29 527.73 241.15 535.92 259.63 542.41C262.63 543.39 265.61 545.64 266.09 548.94C260.37 555.92 264.15 565.9 259.33 573.3C262.04 585.93 252.92 595.5 254.28 607.66C258.03 613.69 266.04 611.5 271.67 614.24C291.28 618.92 310.65 626.19 329.76 630.27C333.04 651.69 324.32 673.8 325.31 695.56C326.66 701.87 334.53 699.51 339.16 700.9C363.38 707.9 389.67 706.4 413.36 714.7C413.97 731.05 410.82 748.32 411.93 765C411.65 772.28 409.73 785.33 421.29 783.75C445.87 783.59 470.36 786.6 494.97 786.09C499.38 785.64 507.52 787.32 505 794.01C507.47 814.38 499.94 837.11 508.96 856.03C511.04 875.15 505.32 897.19 511.33 914.77C541.24 914.17 571.71 911.88 601.65 908.29C615.46 925.99 596.81 953.54 608.34 971.78C635.93 965.78 664.52 961.88 692.17 955.14C699.55 954.25 694.22 965.04 695.24 969.06C692.24 977.7 701.21 995.72 688.4 998.4C663.29 1002.44 638.93 1008.59 613.82 1012.71C608.52 1012.52 604.21 1016.64 601.82 1020.95C625.35 1021.35 647.77 1008.83 671.3 1011.38C660.27 1013.55 649.26 1015.84 638.27 1018.22C627.29 1017.91 616.94 1021.71 606.24 1023.27C572.77 1021.58 539.01 1028.06 505.4 1028.65C504.4 1026.5 507.22 1025.33 508.85 1024.83C539.47 1018.98 571.15 1020.93 601.75 1015.81C604.03 1002.44 605.12 987.39 603.41 973.61C598.26 967.61 587.56 972.09 580.71 972.74C559.71 975.4 538.32 974.11 517.4 977.27C513.51 980.09 510.06 976.48 508.61 973.34C505.82 952.37 511.88 929.31 504.06 909.98C502.14 892.56 507.11 873.13 502.36 856.66C474.9 851.5 445.4 852.19 417.01 850.97C413.27 852.65 410 849.7 409.57 846.37C407.45 825.79 410.44 804.24 408.85 784.17C382.41 772.98 350.92 775.59 323.04 767.04C318.08 764.69 320.95 757.71 320.46 753.57C320.01 736.63 324.68 720.14 324.5 703.23C322.86 698.7 318.26 695.67 313.47 695.51C293.55 691.15 273.69 685.1 254.52 679.29C248.82 680.98 241.19 675.91 243.4 669.41C245.37 653.84 247.66 638.31 250.97 622.97C257.02 605.7 231.95 604.89 221.91 598.21C209.66 590.31 189.9 591 183.09 576.84C189.19 558.55 193.44 539.13 197.4 520.62C185.68 510.61 170.26 505.51 158 496.08C148.4 497.18 148.31 486.21 142.27 481.78C131.37 472.41 119.44 463.94 109.5 453.62C105.54 442.86 94.18 436.33 92.14 424.71C79.06 414.28 80.43 395.6 73.83 381.4C67.06 363.1 77.09 345.78 83.17 328.9Z" fill="#ACACAC"/>
<path d="M42.1 394.27C53.64 361.72 68.61 330.7 80.9 298.64C81.55 300.38 81.99 302.26 81.07 304.01C66.8 333.54 57.59 365.53 42.1 394.27Z" fill="#BED4DF"/>
<path d="M79.91 332.95C80.94 331.56 82.04 330.21 83.17 328.9C77.09 345.78 67.06 363.1 73.83 381.4C80.43 395.6 79.06 414.28 92.14 424.71C94.18 436.33 105.54 442.86 109.5 453.62C119.44 463.94 131.37 472.41 142.27 481.78C148.31 486.21 148.4 497.18 158 496.08C170.26 505.51 185.68 510.61 197.4 520.62C193.44 539.13 189.19 558.55 183.09 576.84C189.9 591 209.66 590.31 221.91 598.21C231.95 604.89 257.02 605.7 250.97 622.97C247.66 638.31 245.37 653.84 243.4 669.41C241.19 675.91 248.82 680.98 254.52 679.29C273.69 685.1 293.55 691.15 313.47 695.51C318.26 695.67 322.86 698.7 324.5 703.23C324.68 720.14 320.01 736.63 320.46 753.57C320.95 757.71 318.08 764.69 323.04 767.04C350.92 775.59 382.41 772.98 408.85 784.17C410.44 804.24 407.45 825.79 409.57 846.37C410 849.7 413.27 852.65 417.01 850.97C445.4 852.19 474.9 851.5 502.36 856.66C507.11 873.13 502.14 892.56 504.06 909.98C511.88 929.31 505.82 952.37 508.61 973.34C510.06 976.48 513.51 980.09 517.4 977.27C538.32 974.11 559.71 975.4 580.71 972.74C587.56 972.09 598.26 967.61 603.41 973.61C605.12 987.39 604.03 1002.44 601.75 1015.81C571.15 1020.93 539.47 1018.98 508.85 1024.83C507.22 1025.33 504.4 1026.5 505.4 1028.65C539.01 1028.06 572.77 1021.58 606.24 1023.27C571.59 1025.22 536.97 1028.87 502.31 1029.74C477.23 1026.94 452.04 1025.54 426.82 1024.81C429.33 1022.05 432.24 1018.1 436.75 1020.26C456.66 1021.94 476.66 1022.3 496.53 1024.43C502.71 1027.08 509.88 1020.37 505.99 1014.03C502.27 1002.12 510.35 989.48 504.85 978.07C487.42 967.43 464.03 979.48 445.31 971.67C440.53 969.23 436.3 972.57 432.11 973.92C426.59 969.82 419.95 969.97 413.33 969.73C407.69 966.44 413.74 959.3 412.21 954.5C410.09 941.46 411.44 928.24 410.9 915.12C396.02 896.63 416.67 866.83 402.93 849.04C379.15 845.76 355.88 840.7 332.1 837.78C326.73 835.69 318.18 836.75 315.59 830.33C314.74 810.21 317.58 789.75 317.37 769.61C308.73 759.15 292.5 762.02 281.22 755.98C266.24 748.97 247.98 751.33 235.09 739.62C237.34 722.04 237.34 704.06 242.02 686.95C245.47 675.52 231.64 673.23 224.09 669.86C207.11 661.26 187.96 656.36 172.28 645.69C170.34 626.01 180.03 605.92 182.03 586.02C182 577.79 172.19 581.47 169.18 575.85C165.74 569.26 158.06 579.99 158.77 568.12C138.25 561.14 125.52 543.83 110.09 529.91C89.04 516.36 79.51 492.91 65.81 473.18C60.17 458.75 56.79 443.48 52.25 428.66C46.25 415.15 57.71 402.84 57.09 388.88C67 371.23 71.21 351.27 79.91 332.95Z" fill="#A7A7A7"/>
<path d="M75.12 340.12C76.07 336.8 76.81 332.91 79.99 330.93C79.97 331.44 79.93 332.45 79.91 332.95C71.21 351.27 67 371.23 57.09 388.88C47.04 423.02 34.39 455.87 32.99 491.34C35.02 491.28 37.41 491.67 38.02 493.97C42.33 507.59 42.67 522.83 51.01 534.94C59.66 548.08 68.3 561.35 76.24 574.76C88.5 584.14 97.32 596.99 109.71 606.21C112.69 609.35 117.89 614.57 113.58 618.55C109.19 634.38 108.87 651.15 104.16 666.97C120.05 685.67 146.78 692.64 162.96 711C165.84 727.72 158.85 744.63 159.52 761.66C153.55 773.95 170.97 775.25 178.27 779.8C183.53 781.89 192.65 789.93 197.21 783.07C201.06 780.19 199.7 786.37 196.91 787.26C207.95 795.24 224.62 797.78 231.61 810.43C232.24 828.91 231.3 847.42 230.1 865.87C256.56 876.96 284.95 881.98 311.03 893.11C318.65 911.18 310.92 933.16 314.69 952.25C321.84 958.75 332.78 957.49 341.63 958.53C362.54 964.82 384.58 966.35 405.74 971.26C409.2 986.17 409.38 1002.48 406.48 1017.59C381.24 1014.06 355.78 1009.5 330.7 1004.26C324.88 1003.37 317.68 999.5 312.56 1003.98C317.26 1008.53 324.82 1007.41 330.31 1010.79C297.59 1005.06 267.5 988.67 234.92 982.08C232.57 980.06 219.3 972.94 230.93 975.11C258.73 979.85 285.01 994.88 312.62 998.56C311.56 984.54 313.53 970.03 310.77 956.28C284.28 944.97 255.24 938.91 228.28 928.68C223.66 908.99 228.63 887.24 224.73 867.23C211.76 858.39 196.35 853.93 182.54 846.48C173.17 839.96 157.31 840.27 152.26 828.65C151.91 822.49 157.38 815.77 152.58 810.3C151.46 796.38 162.54 778.29 149.51 767.55C131.79 758.01 116.56 744.74 99.24 734.66C86.27 715.37 66.84 701.14 54.09 681.99C58.44 673.58 52.31 663.37 56.02 655.18C63.72 653.06 55.59 643.41 62.66 640.5C55.96 616.77 35.74 598.64 28.46 574.63C27.94 570.37 29.35 563.25 24.39 561.64C26.54 564.83 23.82 567.72 22.03 570.3C18.99 546.91 26.22 523.37 26.45 500.79C26.24 490.23 32.65 480.88 31.26 470.1C40.49 425.09 56.43 381.93 75.12 340.12Z" fill="#9B9B9B"/>
<path d="M945.2 374.66C949.33 381.19 947.28 389.56 950.88 396.13C956.2 403.13 955.9 412.17 957.73 420.25C966.29 431.07 962.57 446.11 969.29 457.66C966.37 469.28 976.57 477.5 974.42 489.04C983.99 533.65 989.58 580.43 993 625.73V629.79C985.09 621.09 992.29 607.02 988.52 596.5C982.01 540.41 973.28 484.75 959.71 430.03C956.06 411.45 944.62 393.73 945.2 374.66Z" fill="#C5D9E2"/>
<path d="M32.99 491.34C34.39 455.87 47.04 423.02 57.09 388.88C57.71 402.84 46.25 415.15 52.25 428.66C56.79 443.48 60.17 458.75 65.81 473.18C79.51 492.91 89.04 516.36 110.09 529.91C125.52 543.83 138.25 561.14 158.77 568.12C158.06 579.99 165.74 569.26 169.18 575.85C172.19 581.47 182 577.79 182.03 586.02C180.03 605.92 170.34 626.01 172.28 645.69C187.96 656.36 207.11 661.26 224.09 669.86C231.64 673.23 245.47 675.52 242.02 686.95C237.34 704.06 237.34 722.04 235.09 739.62C247.98 751.33 266.24 748.97 281.22 755.98C292.5 762.02 308.73 759.15 317.37 769.61C317.58 789.75 314.74 810.21 315.59 830.33C318.18 836.75 326.73 835.69 332.1 837.78C355.88 840.7 379.15 845.76 402.93 849.04C416.67 866.83 396.02 896.63 410.9 915.12C411.44 928.24 410.09 941.46 412.21 954.5C413.74 959.3 407.69 966.44 413.33 969.73C419.95 969.97 426.59 969.82 432.11 973.92C436.3 972.57 440.53 969.23 445.31 971.67C464.03 979.48 487.42 967.43 504.85 978.07C510.35 989.48 502.27 1002.12 505.99 1014.03C509.88 1020.37 502.71 1027.08 496.53 1024.43C476.66 1022.3 456.66 1021.94 436.75 1020.26C432.24 1018.1 429.33 1022.05 426.82 1024.81C452.04 1025.54 477.23 1026.94 502.31 1029.74C536.97 1028.87 571.59 1025.22 606.24 1023.27C616.94 1021.71 627.29 1017.91 638.27 1018.22C599.09 1028.49 558.28 1026.8 518.26 1031.2C483.1 1030.94 448.08 1026.91 412.92 1026.16C385.72 1019.67 357.72 1016.69 330.31 1010.79C324.82 1007.41 317.26 1008.53 312.56 1003.98C317.68 999.5 324.88 1003.37 330.7 1004.26C355.78 1009.5 381.24 1014.06 406.48 1017.59C409.38 1002.48 409.2 986.17 405.74 971.26C384.58 966.35 362.54 964.82 341.63 958.53C332.78 957.49 321.84 958.75 314.69 952.25C310.92 933.16 318.65 911.18 311.03 893.11C284.95 881.98 256.56 876.96 230.1 865.87C231.3 847.42 232.24 828.91 231.61 810.43C224.62 797.78 207.95 795.24 196.91 787.26C199.7 786.37 201.06 780.19 197.21 783.07C192.65 789.93 183.53 781.89 178.27 779.8C170.97 775.25 153.55 773.95 159.52 761.66C158.85 744.63 165.84 727.72 162.96 711C146.78 692.64 120.05 685.67 104.16 666.97C108.87 651.15 109.19 634.38 113.58 618.55C117.89 614.57 112.69 609.35 109.71 606.21C97.32 596.99 88.5 584.14 76.24 574.76C68.3 561.35 59.66 548.08 51.01 534.94C42.67 522.83 42.33 507.59 38.02 493.97C37.41 491.67 35.02 491.28 32.99 491.34Z" fill="#A1A2A2"/>
<path d="M19.43 528.52C22.64 509.21 25.38 487.6 31.26 470.1C32.65 480.88 26.24 490.23 26.45 500.79C19.61 531.38 18.25 562.74 14.76 593.79C9.52996 650.37 7.71996 707.86 19.11 763.83C23.5 778.87 22.75 795.76 31.93 809.08C37.52 824.06 47.17 837.03 53.05 851.95C67.65 867.78 81.41 884.14 95.72 900.24C111.25 911.73 126.59 923.52 142.3 934.64C161.81 951.49 187.16 959.05 209.19 971.95C221.73 977.83 233.92 985.97 248.12 987C278.13 997.39 307.94 1009.62 339.54 1014.29C363.06 1019.2 386.97 1022.2 410.43 1027.54C445.23 1028.2 479.9 1031.53 514.67 1032.83C508.12 1037.72 494.02 1032.55 485.32 1033.71C451.12 1030.28 416.24 1032.54 382.68 1024.28C356.25 1019.47 329.45 1015.97 303.63 1008.39C280.07 999.73 256.09 991.83 231.87 985.14C211.92 976.21 192.84 965.5 173.33 955.69C150.79 946.56 133.49 928.78 113.35 915.69C92.86 902.14 77.36 882.91 61.73 864.33C44.24 847.12 37.18 822.89 24.64 802.35C19.45 783.47 16.39 764.13 11.95 745.01C5.18996 673.11 10.49 600.21 19.43 528.52Z" fill="#737F89"/>
<path d="M26.45 500.79C26.22 523.37 18.99 546.91 22.03 570.3C23.82 567.72 26.54 564.83 24.39 561.64C29.35 563.25 27.94 570.37 28.46 574.63C35.74 598.64 55.96 616.77 62.66 640.5C55.59 643.41 63.72 653.06 56.02 655.18C52.31 663.37 58.44 673.58 54.09 681.99C66.84 701.14 86.27 715.37 99.24 734.66C116.56 744.74 131.79 758.01 149.51 767.55C162.54 778.29 151.46 796.38 152.58 810.3C157.38 815.77 151.91 822.49 152.26 828.65C157.31 840.27 173.17 839.96 182.54 846.48C196.35 853.93 211.76 858.39 224.73 867.23C228.63 887.24 223.66 908.99 228.28 928.68C255.24 938.91 284.28 944.97 310.77 956.28C313.53 970.03 311.56 984.54 312.62 998.56C285.01 994.88 258.73 979.85 230.93 975.11C219.3 972.94 232.57 980.06 234.92 982.08C210.32 972.93 188.7 957.51 164.54 947.49C159.06 946.84 166.18 942.62 167.93 940.92C184.06 951.59 202.25 958.63 219.26 967.79C222.72 970.04 228.84 969.27 225.99 962.96C224.54 950.76 228.1 937.15 221.94 926.16C206.94 919.96 192.14 913.1 178.04 904.9C169.44 898.89 156.07 898.2 150.98 888.07C147.3 870.51 153.39 851.52 147.93 834.15C139.15 842.93 145.3 824.14 136.24 823.81C127.93 822.1 125.45 813.46 117.8 811.05C92.12 796.5 76.99 770.11 55.29 750.79C48.27 743.09 42.66 730.45 50.45 721.41C49.88 706.33 53.28 690.66 44.38 677.59C38.71 666.78 32.2 656.7 25.71 646.36C23.98 642.77 23.76 634.32 17.93 637.89C15.02 644.45 18.28 657.08 15.94 662.94C13 656.49 11.68 645.77 15.26 638.31C18.43 623.59 15.78 608.58 14.76 593.79C18.25 562.74 19.61 531.38 26.45 500.79Z" fill="#969697"/>
<path d="M19.11 763.83C7.71998 707.86 9.52998 650.37 14.76 593.79C15.78 608.58 18.43 623.59 15.26 638.31C11.68 645.77 13 656.49 15.94 662.94C18.28 657.08 15.02 644.45 17.93 637.89C23.76 634.32 23.98 642.77 25.71 646.36C32.2 656.7 38.71 666.78 44.38 677.59C53.28 690.66 49.88 706.33 50.45 721.41C42.66 730.45 48.27 743.09 55.29 750.79C76.99 770.11 92.12 796.5 117.8 811.05C125.45 813.46 127.93 822.1 136.24 823.81C145.3 824.14 139.15 842.93 147.93 834.15C153.39 851.52 147.3 870.51 150.98 888.07C156.07 898.2 169.44 898.89 178.04 904.9C192.14 913.1 206.94 919.96 221.94 926.16C228.1 937.15 224.54 950.76 225.99 962.96C228.84 969.27 222.72 970.04 219.26 967.79C202.25 958.63 184.06 951.59 167.93 940.92C166.18 942.62 159.06 946.84 164.54 947.49C188.7 957.51 210.32 972.93 234.92 982.08C238.89 984.77 243.86 984.93 248.12 987C233.92 985.97 221.73 977.83 209.19 971.95C187.16 959.05 161.81 951.49 142.3 934.64C126.59 923.52 111.25 911.73 95.72 900.24C81.41 884.14 67.65 867.78 53.05 851.95C47.17 837.03 37.52 824.06 31.93 809.08C22.75 795.76 23.5 778.87 19.11 763.83Z" fill="#909091"/>
<path d="M5.16003 749.74C9.62003 763.34 11.34 777.56 14.47 791.47C17.59 812.76 32.75 829.31 39.91 849.16C47.83 863.83 63.01 873.55 71.05 888.03C32.41 852.36 10.29 801.52 5.16003 749.74Z" fill="#92A5B3"/>
<path d="M71.05 888.03C82.3 899.51 93.54 911.5 106.05 921.03C91.29 913.79 80.39 901.2 71.05 888.03Z" fill="#9BA9B6"/>
<path d="M106.05 921.03C107.54 920.58 108.89 921.64 108.93 923.18C107.52 923.31 106.26 922.45 106.05 921.03Z" fill="#9CA8B0"/>
<path d="M859.07 932.11C860.77 931.15 862.51 930.26 864.32 929.54C850.14 944.78 829.24 950.93 812.05 962.1C788.57 974.85 764.5 986.55 738.64 993.66C696.93 1011.38 651.85 1017.1 607.91 1026.71C576.84 1028.82 545.78 1032.19 514.67 1032.83C515.87 1032.31 517.04 1031.7 518.26 1031.2C558.28 1026.8 599.09 1028.49 638.27 1018.22C649.26 1015.84 660.27 1013.55 671.3 1011.38C692.36 1007.65 712.68 1002.1 732.36 993.35C758.63 984.96 784.83 975.8 808.59 961.54C825.03 950.99 843.82 944.45 859.07 932.11Z" fill="#7A8995"/>
<path d="M129.93 939C141.8 947.06 155.82 953.46 166.01 963.14C152.6 957.45 141.04 948.25 129.93 939Z" fill="#97A7B4"/>
<path d="M166.01 963.14C193.43 969.22 215.71 990 243.11 996.99C214.81 993.47 192.5 972.37 166.01 963.14Z" fill="#93A4B1"/>
<path d="M234.92 982.08C267.5 988.67 297.59 1005.06 330.31 1010.79C357.72 1016.69 385.72 1019.67 412.92 1026.16C448.08 1026.91 483.1 1030.94 518.26 1031.2C517.04 1031.7 515.87 1032.31 514.67 1032.83C479.9 1031.53 445.23 1028.2 410.43 1027.54C386.97 1022.2 363.06 1019.2 339.54 1014.29C307.94 1009.62 278.13 997.39 248.12 987C243.86 984.93 238.89 984.77 234.92 982.08Z" fill="#8D959C"/>
</g>
<defs>
<clipPath id="clip0">
<rect width="993" height="1043" fill="white"/>
</clipPath>
</defs>
</svg>
