<svg width="414" height="317" viewBox="0 0 414 317" fill="none" xmlns="http://www.w3.org/2000/svg">
<path d="M155.42 24.59C167.61 22.42 180.65 22.8 192.11 27.85C210.5 36.07 228.74 44.6 247.14 52.79C257.58 56.92 268.95 57.13 280.01 57.09C300.34 57.61 320.66 58.04 340.99 58.5C353.62 58.72 366.53 61.69 377.09 68.86C381.45 72.18 385.79 76.49 386.62 82.16C387.35 87.06 384.06 91.49 380.29 94.24C366.47 105.12 352.67 116.01 338.82 126.84C334.94 130.09 330.83 133.69 329.49 138.76C328.1 143.42 329.43 148.24 330.18 152.87C332.99 170.19 335.86 187.51 338.65 204.83C339.71 211.25 338.39 218.15 334.35 223.33C328.08 231.76 317.74 235.79 307.84 238.06C290.61 241.39 272.04 238.24 257.21 228.76C237.64 216.69 218.13 204.51 198.59 192.39C192.6 188.67 186.71 184.76 180.36 181.67C172.14 177.8 162.99 176.56 154 176.35C124.31 175.49 94.62 174.77 64.93 173.82C54.67 173.44 43.96 170.96 35.96 164.19C30.76 159.89 27.95 152.65 29.9 146.05C32.39 136.91 40.45 130.74 48.4 126.42C64.29 117.65 80.18 108.87 96.05 100.08C102.42 96.48 109.05 93.29 115.02 89.03C118.22 86.37 121.22 83.08 122.23 78.93C125.85 65.43 128.32 51.61 132.14 38.17C136.6 29.75 146.67 26.49 155.42 24.59Z" fill="#FAFAFA"/>
<path d="M142.01 26.94C159.52 19.12 180.62 19.44 197.7 28.31C213.73 35.72 229.84 42.95 245.9 50.29C253.78 53.74 262.44 54.72 270.95 55.09C288.97 55.15 306.97 56.08 324.99 56.18C336.9 56.65 349.07 55.94 360.66 59.25C370.42 61.81 379.96 66.74 386.03 75.04C388.16 78.37 389.37 82.54 388.34 86.47C385.88 95.92 383.92 105.5 381.44 114.94C380.63 118.43 378.88 121.72 376.2 124.13C361.97 136.21 347.23 147.7 333.12 159.91C335.72 174.95 338.15 190.02 340.54 205.09C341.63 211.14 339.71 217.11 338.64 223.02C336.59 231.35 335.27 239.85 333 248.13C329.56 258.54 319.86 265.41 309.87 268.87C291.74 274.93 270.87 272.46 254.77 262.1C231.93 247.32 209.21 232.35 186.38 217.55C181.14 214.28 175.37 211.84 169.33 210.56C157.98 208.43 146.39 209.16 134.92 208.59C116.93 207.93 98.94 207.68 80.97 206.91C68.45 207.17 54.99 206.16 44.54 198.49C39.39 194.88 35.67 189.2 34.69 182.96C32.67 173 29.66 163.28 27.68 153.32C26.42 147.31 28.9 141.22 32.65 136.6C37.31 130.35 44.31 126.58 51 122.89C70.07 112.33 89.18 101.83 108.25 91.26C113.48 88.4 118.61 84.37 120.49 78.47C122.96 68.72 124.99 58.85 127.49 49.1C128.57 44.73 128.97 40.11 131.05 36.06C133.49 31.86 137.65 28.92 142.01 26.94ZM155.42 24.59C146.67 26.49 136.6 29.75 132.14 38.17C128.32 51.61 125.85 65.43 122.23 78.93C121.22 83.08 118.22 86.37 115.02 89.03C109.05 93.29 102.42 96.48 96.05 100.08C80.18 108.87 64.29 117.65 48.4 126.42C40.45 130.74 32.39 136.91 29.9 146.05C27.95 152.65 30.76 159.89 35.96 164.19C43.96 170.96 54.67 173.44 64.93 173.82C94.62 174.77 124.31 175.49 154 176.35C162.99 176.56 172.14 177.8 180.36 181.67C186.71 184.76 192.6 188.67 198.59 192.39C218.13 204.51 237.64 216.69 257.21 228.76C272.04 238.24 290.61 241.39 307.84 238.06C317.74 235.79 328.08 231.76 334.35 223.33C338.39 218.15 339.71 211.25 338.65 204.83C335.86 187.51 332.99 170.19 330.18 152.87C329.43 148.24 328.1 143.42 329.49 138.76C330.83 133.69 334.94 130.09 338.82 126.84C352.67 116.01 366.47 105.12 380.29 94.24C384.06 91.49 387.35 87.06 386.62 82.16C385.79 76.49 381.45 72.18 377.09 68.86C366.53 61.69 353.62 58.72 340.99 58.5C320.66 58.04 300.34 57.61 280.01 57.09C268.95 57.13 257.58 56.92 247.14 52.79C228.74 44.6 210.5 36.07 192.11 27.85C180.65 22.8 167.61 22.42 155.42 24.59ZM338.16 129.23C334.94 131.68 332.14 135.03 331.11 139C330.45 145.18 331.92 151.3 333.05 157.34C345.17 147.7 356.98 137.68 368.99 127.91C373.05 124.36 378.03 121 379.44 115.46C381.47 107.8 383.03 100.02 384.95 92.33C369.43 104.71 353.76 116.93 338.16 129.23ZM31.94 162.79C34.05 170.59 35.77 178.48 37.69 186.32C41.74 197.44 53.92 203.04 65 204.31C83.63 205.64 102.35 205.63 121.02 206.33C136.12 207.08 151.28 206.62 166.34 208.11C169.91 209.1 173.63 209.54 177.08 210.93C186.05 214.27 193.63 220.23 201.6 225.35C219.47 236.83 237.15 248.59 255.01 260.09C260.93 264.09 267.64 266.67 274.45 268.75L274.91 267.76L274.66 268.64C288.19 271.38 302.95 271.04 315.4 264.52C323.27 260.63 330.15 253.73 332.09 244.94C333.74 237.49 335.24 230.01 336.95 222.57C334.19 225.61 331.65 228.96 328.15 231.2C314.05 241.14 295.59 242.58 279.03 239.56L279.06 239.28C270.93 237.56 263.06 234.44 256.05 229.95C234 216.3 211.97 202.62 189.96 188.9C182.46 183.99 174.12 180.15 165.19 178.82C144.49 177.15 123.68 177.37 102.93 176.57C88.23 175.87 73.48 176.24 58.8 174.97C48.94 173.58 39.04 170.05 31.94 162.79Z" fill="#546C81"/>
<path d="M338.16 129.23C353.76 116.93 369.43 104.71 384.95 92.33C383.03 100.02 381.47 107.8 379.44 115.46C378.03 121 373.05 124.36 368.99 127.91C356.98 137.68 345.17 147.7 333.05 157.34C331.92 151.3 330.45 145.18 331.11 139C332.14 135.03 334.94 131.68 338.16 129.23Z" fill="#C6C6C6"/>
<path d="M58.8 174.97C73.48 176.24 88.23 175.87 102.93 176.57C123.68 177.37 144.49 177.15 165.19 178.82C165.53 185.61 165.02 192.44 165.91 199.19C166.29 202.15 166.38 205.13 166.34 208.11C151.28 206.62 136.12 207.08 121.02 206.33C102.35 205.63 83.63 205.64 65 204.31C62.86 194.54 61.29 184.66 58.8 174.97Z" fill="#C6C6C6"/>
<path d="M328.15 231.2C331.65 228.96 334.19 225.61 336.95 222.57C335.24 230.01 333.74 237.49 332.09 244.94C330.15 253.73 323.27 260.63 315.4 264.52C302.95 271.04 288.19 271.38 274.66 268.64L274.91 267.76C277.05 258.5 277.6 248.95 279.03 239.56C295.59 242.58 314.05 241.14 328.15 231.2Z" fill="#C6C6C6"/>
<path d="M31.94 162.79C39.04 170.05 48.94 173.58 58.8 174.97C61.29 184.66 62.86 194.54 65 204.31C53.92 203.04 41.74 197.44 37.69 186.32C35.77 178.48 34.05 170.59 31.94 162.79Z" fill="#ABABAB"/>
<path d="M165.19 178.82C174.12 180.15 182.46 183.99 189.96 188.9C211.97 202.62 234 216.3 256.05 229.95C263.06 234.44 270.93 237.56 279.06 239.28L279.03 239.56C277.6 248.95 277.05 258.5 274.91 267.76L274.45 268.75C267.64 266.67 260.93 264.09 255.01 260.09C237.15 248.59 219.47 236.83 201.6 225.35C193.63 220.23 186.05 214.27 177.08 210.93C173.63 209.54 169.91 209.1 166.34 208.11C166.38 205.13 166.29 202.15 165.91 199.19C165.02 192.44 165.53 185.61 165.19 178.82Z" fill="#ABABAB"/>
</svg>
