<svg width="1075" height="1404" viewBox="0 0 1075 1404" fill="none" xmlns="http://www.w3.org/2000/svg">
<path d="M555.64 11.72C564.84 9.39002 573.39 14.42 582.29 15.67C588.66 16.68 594.64 19.54 601.17 19.7C607.11 19.74 612.15 23.41 617.98 24.01C621.04 24.43 624.1 24.96 627.03 25.98C632.89 28.18 639.35 27.72 645.22 29.91C651.48 32.25 658.32 32.09 664.58 34.4C670.45 36.64 676.87 36.37 682.82 38.28C686.81 39.57 690.95 40.28 695.1 40.8C699.66 41.31 703.72 43.68 708.21 44.48C716.97 45.68 725.38 48.51 734.08 50.04C741.6 52.76 749.75 52.8 757.24 55.62C762.96 57.48 769.15 57.16 774.83 59.26C780.9 61.44 787.51 61.22 793.57 63.44C799.31 65.6 805.56 65.63 811.36 67.6C817.75 69.83 824.68 69.75 831.05 72.07C836.49 74.08 842.53 73.66 847.85 76.1C851.28 77.64 855.04 78.07 858.75 78.46C864.53 79.04 869.92 81.5 875.69 82.14C881.88 82.77 887.59 85.43 893.71 86.38C900.35 87.42 906.6 90.42 913.41 90.5C920.16 90.63 926.01 94.47 932.59 95.47C932.46 96.7 932.34 97.94 932.26 99.18C928.53 100.48 924.65 102.43 920.6 101.43C916.05 100.39 911.64 98.77 907 98.1C900.12 97.11 893.61 94.48 886.72 93.57C880.31 92.76 874.26 90.4 867.95 89.13C857.96 86.87 847.93 84.77 838.01 82.2C828.01 80.72 818.36 77.64 808.49 75.53C800.65 73.35 792.45 72.84 784.69 70.33C774.69 67.59 764.45 65.8 754.31 63.65C748.22 61.6 741.88 60.54 735.6 59.28C726.66 56.62 717.48 54.98 708.43 52.79C701.26 51.6 694.43 49 687.26 47.89C679.23 46.59 671.48 44.06 663.53 42.45C654.7 40.05 645.52 39.27 636.81 36.41C629.75 35.01 622.88 32.88 615.84 31.45C608.78 30.62 602.08 28.12 595.08 27.01C580.48 24.53 566.51 19.07 551.7 17.74C551.87 15.26 552.8 12.2 555.64 11.72Z" fill="#FCFCFC"/>
<path d="M381.32 540.64C384.89 542.07 388.44 543.55 391.96 545.11C397.1 547.4 402.64 548.74 407.64 551.41C411.49 553.48 415.53 555.19 419.71 556.48C426.94 558.75 433.54 562.55 440.4 565.7C445.8 568.22 451.84 569.03 457.12 571.84C463.6 575.29 470.28 578.38 477.23 580.78C484.06 583.01 490.13 587.09 497.07 589.05C508.35 592.52 518.15 599.56 529.56 602.67C539.04 605.58 547.08 611.9 556.73 614.41C562.92 616.01 568.17 619.89 574.29 621.67C585.11 624.71 594.54 631.16 605.11 634.86C613.31 637.65 620.95 641.77 628.84 645.29C634.21 647.76 640.26 648.51 645.35 651.65C650.86 655.11 657.45 655.92 663.3 658.61C668.12 660.75 672.72 663.37 677.54 665.55C682.06 667.58 686.97 668.57 691.53 670.51C696.64 672.66 701.53 675.28 706.57 677.57C711.85 680.04 717.94 680.04 723.06 682.96C726.1 684.73 729.66 684.81 733.08 684.59C731.97 687.36 730.77 690.43 727.79 691.67C719.23 695.86 711.93 702.14 703.33 706.25C696.49 709.6 689.75 713.19 683.44 717.47C674.99 723.34 665.11 726.7 656.7 732.66C648.35 738.69 638.35 741.87 630.09 748.05C621.39 754.47 610.7 757.49 602.18 764.17C593.29 770.76 582.32 773.79 573.53 780.52C564.48 787.29 553.22 790.3 544.37 797.35C536.17 803.72 525.81 806.35 517.41 812.4C513.37 815.47 509.12 818.27 504.48 820.35C498.43 823.06 492.84 826.63 487.38 830.34C480.03 835.36 471.43 838.11 464.04 843.04C458.78 846.48 453.62 850.13 447.89 852.77C442.3 855.33 436.86 858.21 431.84 861.77C422.84 868.2 412.19 871.76 403.1 878.05C397.68 881.82 392.03 885.25 386.05 888.06C381.86 889.96 377.89 892.93 373.19 893.3C368.44 892.83 364.53 889.73 360.38 887.67C347.86 881.25 335.71 874.15 323.11 867.9C310.2 860.56 296.81 854.12 283.53 847.48C274.08 843.08 265.11 837.74 255.77 833.12C248.65 828.81 241.3 824.9 233.87 821.15C215.5 810.87 196.25 802.28 177.74 792.28C168.41 786.77 158.55 782.28 149.17 776.87C136.35 770.39 123.9 763.21 110.91 757.08C101.12 751.79 90.8099 747.49 81.2899 741.71C66.1799 733.38 50.8799 725.4 35.6799 717.24C30.2599 714.39 24.5299 712.18 19.3799 708.85C21.9499 706.32 25.2599 704.83 28.6599 703.8C35.6599 701.62 41.8099 697.54 48.4899 694.63C56.3699 691.12 64.5199 688.22 72.2399 684.34C85.1299 678.04 98.5599 672.96 111.45 666.67C117.63 664.5 123.24 661.12 129.15 658.37C136.27 655.56 143.17 652.22 150.25 649.32C158.66 645.96 166.5 641.35 174.91 637.98C184.06 634.21 193.24 630.5 202.09 626.06C208.14 622.97 214.59 620.75 220.68 617.75C229.45 613.26 238.69 609.82 247.52 605.44C256.99 600.68 267.04 597.22 276.61 592.67C283.96 589.44 291.02 585.59 298.52 582.7C304.67 580.36 310.35 576.98 316.49 574.63C324.73 571.47 332.24 566.7 340.47 563.51C349.23 560.09 357.66 555.9 366.37 552.38C370.51 550.79 373.38 547.3 376.38 544.21C377.89 542.84 379.63 541.76 381.32 540.64Z" fill="#FCFCFC"/>
<path d="M561.63 0H565.42C573.72 1.58 581.6 4.87 590 5.98C598.15 6.99 605.89 9.85 613.96 11.3C620.83 13.6 628.14 14.04 635.06 16.1C641.5 18.71 648.69 18.05 655.13 20.69C663.03 22.51 670.96 24.43 679.05 25.19C685 25.85 690.36 28.76 696.18 29.98C704.94 31.46 713.35 34.43 722.14 35.81C728.4 37.63 734.74 39.1 741.21 39.99C750.1 42.64 759.3 44.02 768.2 46.69C774.95 47.52 781.53 49.13 788.09 50.92C795.18 51.42 801.52 55.06 808.59 55.63C815.21 56.3 821.38 59.13 828.03 59.6C831.38 59.84 834.47 61.23 837.61 62.29C842.06 63.76 846.99 61.82 851.32 63.85C854.81 65.36 858.11 67.58 862.03 67.79C868.55 68.25 874.62 70.92 881.07 71.78C886.56 72.46 891.51 75.32 897.06 75.76C904.55 76.48 911.63 79.23 919.05 80.36C924.81 81.15 930.12 83.86 935.96 84.3C941.18 84.8 946.01 86.97 951.08 88.15C954.42 88.99 958.77 87.64 961.15 90.82C965.21 95.43 970.7 98.71 973.94 104.05C978.42 111.35 984.32 117.61 989.98 124C993.64 129.02 996.63 134.55 1000.78 139.22C1005.96 145.14 1009.87 152.03 1015 157.99C1022.31 167.37 1029.7 176.68 1036.69 186.31C1042.11 192.62 1047.05 199.31 1051.86 206.1C1055.18 211.06 1059.59 215.19 1062.74 220.28C1065.37 224.54 1069.86 227.22 1072.49 231.45C1075.84 238.03 1073.39 245.43 1072.37 252.25C1071.2 261.12 1070.25 270.02 1069.71 278.96C1069.12 286.63 1069.74 294.41 1067.91 301.95C1066.45 307.91 1066.72 314.07 1066.02 320.12C1065.14 327.79 1065.4 335.54 1064.39 343.2C1064.6 352.59 1061.18 361.58 1061.26 370.97C1061.37 380.38 1060.2 389.74 1059.16 399.07C1058.62 404.72 1057.06 410.26 1057.15 415.98C1056.83 421.52 1058.41 427.21 1056.59 432.62C1054.36 440.01 1054.74 447.82 1053.56 455.39C1051.88 464.34 1053.65 473.53 1051.69 482.42C1051.01 486.3 1052.06 490.29 1051.16 494.16C1049.16 502.28 1048.99 510.69 1048.17 518.98C1047.62 531.72 1045.06 544.28 1044.75 557.03C1044.64 563.07 1043.67 569.04 1043.46 575.08C1043.26 580.11 1041.61 584.97 1041.75 590.03C1041.95 596.1 1039.9 601.93 1039.83 607.99C1039.53 621.71 1037 635.27 1036.27 648.95C1036.59 656.38 1034.75 663.66 1034.81 671.07C1034.96 676.83 1032.56 682.27 1032.55 688.03C1032.57 702.7 1029.14 717.15 1029.31 731.82C1026.89 748.15 1026.42 764.7 1024.09 781.05C1023.8 789.05 1022.9 797 1022.06 804.96C1021.92 814.38 1019.52 823.6 1019.6 833.04C1019.78 840.43 1017.74 847.63 1017.67 855.02C1017.44 863.08 1015.71 871.01 1015.4 879.07C1015.19 886.73 1014.3 894.36 1013.5 901.98C1011.84 913.8 1012.05 925.79 1010.34 937.61C1009.58 942.51 1006.05 946.51 1001.72 948.7C995.16 952.25 989.99 957.7 983.9 961.91C978.09 966.07 973.04 971.23 966.87 974.88C960.1 978.93 955.14 985.33 948.22 989.15C943.56 991.67 940.11 995.83 935.61 998.57C931.95 1000.83 928.48 1003.42 925.45 1006.5C921.9 1010.09 917.12 1012 913.16 1015.07C902.39 1023.75 891.44 1032.25 879.91 1039.9C876.38 1042.29 873.68 1045.66 870.23 1048.14C865.99 1051.3 861.25 1053.76 857.29 1057.29C853.51 1060.62 849.08 1063.07 845.07 1066.11C842.1 1068.34 840.15 1071.77 836.78 1073.5C832.88 1075.55 829.07 1077.82 825.81 1080.81C820.56 1085.7 813.84 1088.72 808.9 1093.97C805.78 1097.34 801.4 1099.01 797.74 1101.67C793.59 1104.44 790.23 1108.23 785.94 1110.81C782.25 1113.07 778.81 1115.72 775.8 1118.83C772.61 1122.14 768.31 1123.95 764.62 1126.58C760.46 1129.35 756.93 1132.93 752.77 1135.7C749.73 1137.65 747.38 1140.41 745.06 1143.13C743.16 1145.46 740.26 1146.47 737.67 1147.78C730.71 1151.06 725.36 1156.76 719.02 1161C713.62 1164.49 709.57 1169.72 703.88 1172.81C698.01 1176.09 693.38 1181.09 687.74 1184.71C684.33 1186.89 681.11 1189.38 678.19 1192.2C673.55 1196.75 667.22 1199 662.53 1203.52C656.97 1208.78 649.65 1211.77 644.47 1217.49C640.22 1222.16 633.84 1223.93 629.34 1228.32C623.67 1233.83 616.21 1237.01 610.75 1242.74C608.59 1244.97 606.12 1246.88 603.37 1248.32C597.17 1251.54 592.63 1257.07 586.63 1260.6C580 1264.47 575.16 1270.74 568.33 1274.32C562.89 1277.34 559.05 1282.52 553.53 1285.44C548.89 1287.96 545.23 1291.81 541.16 1295.1C534.98 1299.58 529.29 1304.74 522.77 1308.75C516.3 1312.81 510.78 1318.17 504.48 1322.47C499.94 1325.55 496.11 1329.57 491.44 1332.49C484.23 1337.13 477.77 1342.81 470.75 1347.73C463.71 1352.64 457.37 1358.51 450.07 1363.06C441.91 1368.87 433.84 1374.79 425.94 1380.92C418.88 1385.42 412.86 1391.29 405.89 1395.9C402.23 1398.3 399.05 1401.59 394.89 1403.12C390.75 1404.19 387.2 1401.13 384.08 1398.9C379.59 1395.23 374.32 1392.74 369.62 1389.38C351.04 1376.49 332.25 1363.94 313.26 1351.65C306.66 1346.86 299.36 1343.15 292.87 1338.19C282.71 1332.18 273.26 1325.09 263.53 1318.45C257.67 1314.89 252.62 1310.06 246.31 1307.27C242.28 1305.3 239.82 1301.23 235.81 1299.24C229.04 1295.86 223.58 1290.47 216.89 1286.95C212.96 1284.19 207.74 1283.3 204.8 1279.26C202.19 1276.07 198.53 1274.1 195.21 1271.8C188.83 1267.13 182.08 1263.02 175.51 1258.63C170.05 1255.91 165.77 1251.45 160.5 1248.43C155.8 1245.49 151.3 1242.26 146.6 1239.33C140.6 1234.96 133.85 1231.69 128.22 1226.81C113.2 1216.1 97.3101 1206.65 82.9101 1195.1C78.0901 1191.47 72.4201 1189.12 67.8301 1185.15C63.5101 1181.36 58.2501 1178.82 53.9601 1175C50.8301 1172.24 50.9601 1167.77 50.6401 1163.97C50.4101 1159.02 49.0901 1154.2 48.6301 1149.28C48.0101 1143.96 48.5601 1138.55 47.6501 1133.26C46.4901 1126.25 45.3301 1119.23 44.8101 1112.14C44.3401 1106.27 44.3901 1100.35 43.4701 1094.53C42.1201 1085.73 40.7201 1076.92 40.3301 1068.02C40.0401 1060.45 39.1001 1052.91 37.5101 1045.51C36.0101 1039.1 36.6101 1032.46 36.0701 1025.96C35.7701 1019.57 34.1701 1013.34 33.7701 1006.96C33.3401 1000.27 31.3701 993.75 31.5201 987.01C31.7701 982.67 29.3801 978.76 29.4301 974.47C30.0501 963.22 27.1301 952.18 26.8301 940.96C26.7401 932.17 24.1801 923.67 23.6001 914.94C23.2201 904.23 21.5901 893.62 20.1601 883.03C19.2501 876.32 19.7801 869.44 18.0801 862.85C16.8301 857.85 17.4701 852.63 16.6601 847.57C15.2601 837.38 15.1401 827.05 13.0901 816.95C11.0101 805.58 11.7201 793.93 9.53006 782.58C7.96006 770.92 7.53006 759.12 5.44006 747.52C4.62006 743.01 5.04006 738.4 4.27006 733.89C2.75006 725.57 2.71006 717.08 1.27006 708.75C0.370061 704.93 4.23006 702.58 7.20006 701.32C15.5201 698.09 23.4301 693.9 31.8201 690.84C40.4701 687.39 48.3701 682.32 57.1201 679.11C66.4001 675.28 75.9401 671.92 84.5001 666.59C101.72 659.95 118.27 651.75 135.05 644.08C141.25 640.53 148.43 639.3 154.64 635.78C160.21 632.93 166.08 630.69 171.45 627.46C177.3 624.05 184.23 623.35 190.21 620.22C199.12 615.62 208.16 611.23 217.47 607.49C221.15 606.04 224.6 604.08 228.16 602.38C234.71 599.55 241.44 597.12 247.81 593.91C252.05 591.92 255.39 588.19 260.11 587.26C269.14 585.25 277.36 580.89 285.43 576.53C293.62 572.46 302.5 569.96 310.63 565.74C320.33 562.14 329.05 556.43 338.76 552.84C346.05 549.39 353.91 547.17 360.74 542.81C366.06 539.62 372.29 537.25 375.8 531.82C378.91 526.92 383.68 522.91 385.17 517.11C386.61 511.29 390.73 506.26 390.42 500.02C390.13 493.03 392.27 486.22 391.73 479.23C391.09 471.87 391.69 464.46 390.89 457.11C390.19 452.75 390.57 448.35 390.66 443.97C390.86 439.68 387.78 435.66 389.36 431.39C390.7 427.02 390.09 422.46 389.76 417.99C389.79 408.68 389.59 399.36 389.16 390.07C388.03 383.64 389.19 377.13 388.36 370.69C387.8 365.53 388.44 360.26 387.1 355.19C386.03 351.17 387.62 347.11 387.42 343.05C386.15 328.4 386.78 313.67 385.99 298.98C385.56 293.41 386.1 287.82 385.65 282.26C384.74 274.18 385.94 266.05 385.12 257.97C385.02 253.88 383.62 249.71 384.65 245.67C386.84 241.12 390.91 237.82 393.33 233.4C395.3 229.76 397.35 226.16 399.68 222.72C402.5 218.61 403.08 213.28 406.54 209.56C415.3 200.17 420.43 188.21 427.71 177.76C429.46 175.04 430.24 171.78 432.26 169.21C439.59 161.11 443.69 150.8 449.87 141.88C459.34 128.44 466.65 113.65 476.32 100.34C480.72 94.61 481.63 86.95 486.59 81.61C490.22 77.45 493.13 72.74 496.06 68.08C502.77 56.87 510 45.98 516.71 34.78C519.99 28.65 523.01 21.99 528.78 17.76C532.45 15.06 534.72 11.05 537.61 7.64C541.16 5.6 545.44 5.17 548.98 3.02C552.8 0.72 557.32 0.52 561.63 0ZM550.9 12.76C547.93 14.48 544.48 15.59 542.2 18.29C538.07 23.16 532.66 27.02 529.85 32.92C520.86 47.87 511.34 62.49 502.32 77.43C493.73 90.3 486.19 103.84 477.62 116.73C471.12 126.94 464.99 137.37 458.46 147.56C454.34 152.94 451.45 159.11 447.63 164.69C442.97 171.74 439.21 179.36 434.17 186.17C429.06 194.14 424.35 202.37 419.28 210.38C411.92 220.87 406.12 232.35 398.57 242.71C397.4 243.64 397.82 245.38 399.26 245.73C404.57 247.53 409.64 250.05 415.16 251.18C422.5 253.13 429.51 256.12 436.77 258.34C440.7 259.42 444.87 259.71 448.58 261.52C452.4 263.44 456.93 263.19 460.63 265.39C464.38 267.76 469.1 267.07 472.97 269.14C477.51 271.52 482.75 271.78 487.47 273.7C491.87 275.4 496.42 276.69 500.85 278.31C505.57 280.06 510.64 280.7 515.26 282.77C519.21 284.6 523.89 284 527.63 286.4C531.38 288.66 536.02 288.19 539.88 290.2C543.96 292.16 548.55 292.57 552.69 294.38C557.35 296.41 562.48 297.02 567.17 298.99C572.1 300.99 577.44 301.67 582.35 303.75C586.32 305.39 590.87 305.14 594.62 307.39C598.33 309.58 602.97 309.04 606.63 311.39C610.14 313.79 614.68 312.86 618.39 314.75C620.24 315.61 622.07 316.56 624.08 317.05C631.89 318.73 639.26 321.89 646.86 324.31C651.6 326.42 657.08 325.86 661.7 328.34C665.49 330.23 669.95 330.18 673.63 332.39C675.87 333.71 678.45 334.16 681 334.5C684.63 334.89 687.69 337.07 691.18 337.96C700.22 340.13 708.76 343.91 717.7 346.44C721.14 347.27 724.81 347.41 728.03 349.04C731.82 350.99 736.19 351.21 740.02 353.06C744.55 355.37 749.85 355.29 754.37 357.66C759.84 359.38 765.39 360.97 770.94 362.44C773.07 361.03 774.39 358.76 775.64 356.6C778.25 351.87 781.06 347.25 783.53 342.44C786.27 337 790.44 332.44 793.04 326.92C798.45 315.44 806.14 305.24 812.12 294.07C817.56 285.35 822.54 276.38 827.48 267.38C832.76 260.38 836.34 252.34 840.93 244.9C844.88 237.3 850 230.39 853.8 222.7C856.25 217.71 859.83 213.4 862.5 208.54C866.89 200.01 871.73 191.71 876.75 183.55C881.49 175.94 884.99 167.59 890.48 160.45C894.95 152.6 898.92 144.45 903.98 136.94C907.96 131.17 910.56 124.52 915.07 119.11C920.92 112.56 925.15 104.57 932.26 99.18C934.32 98.11 936.22 96.73 937.79 94.99C933.69 93.35 929.21 93.14 925.08 91.63C919.04 89.25 912.43 89.29 906.25 87.41C895.31 85.02 884.48 82.14 873.47 80.13C866.02 77.53 858.12 76.87 850.51 74.95C843.8 72.75 836.64 72.49 830.05 69.88C821.13 68.15 812.37 65.67 803.39 64.25C798.22 63.35 793.37 61.18 788.16 60.52C781.46 59.62 775.15 57.01 768.45 56.1C752.7 52.78 737.05 49.05 721.41 45.22C715.68 43.78 709.6 43.97 704.11 41.65C698.96 39.42 693.22 39.62 687.95 37.85C682.64 36.09 677.01 35.73 671.63 34.28C668.15 33.36 664.68 32.37 661.14 31.69C651.08 30.01 641.37 26.74 631.26 25.3C623.92 22.97 616.45 21.07 608.96 19.26C601.14 18.54 593.67 16.04 585.94 14.81C576.93 13.2 568.23 9.44 558.96 9.62C555.94 9.54 553.43 11.4 550.9 12.76ZM940.01 103.98C934 106.8 930.64 112.7 926.66 117.67C923.13 121.99 920.98 127.19 917.76 131.71C914.38 136.52 912.1 141.97 908.93 146.9C899.35 163.08 889.58 179.14 880.6 195.66C877.96 200.28 874.43 204.34 872.15 209.16C869.49 214.67 865.91 219.65 863 225.02C859.87 230.87 855.79 236.17 853.1 242.26C850.78 247.63 846.86 252.05 844.02 257.11C839.7 265.31 834.96 273.26 830.2 281.2C825.6 287.58 823.23 295.24 818.48 301.53C814.5 306.79 812.13 313.02 808.52 318.52C798.92 334.95 788.82 351.11 779.91 367.93C778.5 370.38 778.48 373.25 778.51 375.99C778.66 383.33 778.45 390.66 778.57 397.99C778.69 404.71 777.15 411.29 776.74 417.97C776.53 432.34 774.18 446.61 774.64 460.99C774.34 473.56 774.98 486.15 774.3 498.7C772.96 506.82 774.19 515.07 773 523.2C772.18 529.45 772.96 535.82 771.8 542.05C769.83 553.27 770.87 564.7 770.58 576.03C770.29 585.04 771.16 594.11 769.94 603.09C769.09 610.21 770.07 617.4 769.27 624.53C768.83 630.75 767.3 636.82 766.68 643.02C766.41 650.03 763.28 656.45 760.57 662.78C758.2 667.15 757.36 672.28 754.2 676.21C750.66 680.68 747.25 685.26 743.59 689.63C731.62 702.4 715.7 710.28 700.37 718.23C692.04 723.31 683.94 728.82 675.2 733.18C668.29 736.31 662.46 741.31 655.6 744.54C648.73 748.76 641.14 751.76 634.69 756.67C626.35 762.25 616.81 765.8 608.54 771.52C602.33 775.91 595.3 778.92 588.7 782.65C581.9 785.95 576.11 790.95 569.29 794.19C561.79 797.82 554.79 802.34 547.65 806.6C536.08 812.87 524.61 819.34 513.45 826.31C503.57 831.19 494.19 836.99 484.72 842.61C474.66 847.62 465.07 853.49 455.5 859.37C445.81 864.11 436.59 869.73 427.42 875.39C418.07 880.21 408.88 885.33 400.04 891.02C393.22 895.24 385.31 897.89 379.37 903.39C377.82 907.74 379.33 912.34 380.07 916.71C380.67 919.78 379.88 922.88 379.92 925.98C380.34 935 381.74 943.97 381.6 953.02C381.61 957.01 382.4 960.96 382.55 964.95C382.84 971.97 382.27 979 382.82 986.02C383.78 994.82 382.09 1003.66 383.35 1012.45C383.41 1022.65 384.45 1032.8 384.57 1043C384.81 1048 385.7 1052.96 385.6 1058C385.49 1064.02 386.82 1069.97 386.64 1076C386.56 1083.76 386.47 1091.53 387.16 1099.28C386.68 1106.52 387.81 1113.73 387.6 1120.98C387.53 1133.03 387.39 1145.16 389.54 1157.07C391.07 1165.29 390.37 1173.68 390.54 1182C390.46 1188.68 391.88 1195.29 391.61 1202C391.27 1213.66 391.74 1225.33 391.58 1237.01C392.56 1249.77 392.95 1262.57 394.29 1275.31C394.93 1281.19 394.32 1287.11 394.62 1293.01C396.38 1308.27 395.21 1323.66 395.63 1338.99C395.22 1349.42 396.32 1359.8 397.38 1370.16C398.05 1375.69 396.55 1381.53 398.88 1386.8C401.84 1385.72 404.49 1383.97 406.87 1381.94C412.17 1377.51 417.94 1373.69 423.24 1369.28C428.55 1364.83 434.64 1361.41 439.74 1356.71C444.65 1352.18 450.54 1348.93 455.64 1344.66C461.82 1339.41 468.88 1335.35 474.93 1329.95C493.45 1316.58 511.45 1302.51 529.75 1288.85C537.31 1283.83 543.98 1277.62 551.56 1272.63C556.12 1269.58 559.92 1265.51 564.63 1262.66C570.37 1259.21 575.06 1254.35 580.66 1250.7C586.43 1246.91 591.4 1242.06 597.15 1238.24C604.52 1233.35 611.12 1227.43 618.45 1222.48C624.68 1217.71 630.86 1212.89 637.28 1208.37C645.33 1201.64 654.23 1196.07 662.28 1189.34C669.54 1184.7 675.75 1178.67 683 1174.03C687.48 1170.88 691.5 1167.12 696.07 1164.09C703.76 1158.88 710.76 1152.72 718.44 1147.47C724.89 1143.01 730.48 1137.41 737.13 1133.23C746.26 1126.73 754.98 1119.67 764.04 1113.07C771.21 1108.32 777.46 1102.35 784.75 1097.76C791.48 1092.07 798.81 1087.18 805.85 1081.91C812.25 1076.54 819.41 1072.18 825.75 1066.74C829.95 1063.21 834.78 1060.53 839.01 1057.04C846.02 1050.97 853.98 1046.15 861.03 1040.13C868.7 1035.22 875.34 1028.94 883 1024.03C887.71 1020.81 891.75 1016.71 896.5 1013.54C904.27 1008.41 911.4 1002.41 918.94 996.95C925.39 991.67 932.46 987.22 938.91 981.94C952.52 971.52 966.58 961.72 980.23 951.36C986.91 947.1 992.79 941.79 999.16 937.12C1001.14 935.79 1000.88 933.12 1001.18 931.05C1001.4 923.68 1002.22 916.35 1002.24 908.97C1002.28 906.24 1002.52 903.51 1003.05 900.83C1004.79 892.59 1004.89 884.14 1005.81 875.8C1006.74 868.04 1005.7 860.12 1007.63 852.47C1009.52 840.12 1010.48 827.62 1010.53 815.13C1012.4 802.5 1014.23 789.8 1014.4 777.01C1014.06 766.37 1016.82 756 1017.71 745.46C1019.03 735.76 1017.65 725.89 1019.61 716.26C1021.77 705.19 1022.66 693.92 1022.67 682.65C1022.71 672.96 1025.78 663.65 1026.16 653.99C1027.46 642.54 1026.61 630.87 1029.26 619.58C1030.48 608.42 1031.21 597.19 1031.62 585.97C1031.84 579.21 1033.99 572.71 1034.29 565.97C1034.6 559.31 1035.55 552.7 1035.65 546.04C1035.8 540.01 1035.84 533.94 1037.04 528.01C1040.03 514.07 1039.08 499.68 1040.75 485.59C1043.78 472.28 1043.48 458.54 1043.39 444.98C1043.16 437.6 1045.95 430.62 1046.79 423.37C1048.33 413.72 1047.89 403.89 1049.23 394.22C1051.73 380.28 1052.24 366.08 1052.91 351.97C1054.76 340.14 1056 328.19 1056.56 316.23C1056.45 307.76 1058.39 299.49 1059.15 291.1C1059.85 283.74 1060.69 276.39 1060.68 268.99C1060.58 259.21 1063.25 249.69 1063.65 239.96C1063.82 238.39 1063.18 236.93 1062.27 235.71C1059.46 231.89 1056.41 228.25 1053.67 224.38C1050.42 219.68 1046.06 215.87 1043.1 210.98C1039.44 205.1 1034.66 200.07 1030.28 194.75C1021.74 183.31 1013.47 171.65 1004.36 160.65C998.94 153.42 993.68 146.07 987.73 139.27C981.13 129.94 973.86 121.1 967.14 111.85C963.3 107.36 959.41 102.46 953.95 99.92C948.87 97.57 944.32 101.91 940.01 103.98ZM399.43 510.38C394.97 512.51 396.13 518.19 393.71 521.76C389.59 528.06 384.94 534.02 381.32 540.64C379.63 541.76 377.89 542.84 376.38 544.21C371.6 544.56 369.31 549.41 365.13 551.05C360.21 553.17 355.44 555.65 350.38 557.44C340.9 560.86 331.84 565.3 322.94 570.01C318.69 572.32 313.88 573.31 309.6 575.56C306.51 577.18 303.43 578.84 300.16 580.08C288.51 584.38 277.9 591.04 266.22 595.25C254.53 599.36 243.92 605.89 232.41 610.43C226 612.79 220.12 616.3 213.76 618.79C203.03 623.18 193.02 629.21 182.06 633.05C169.79 637.79 158.4 644.56 146.08 649.18C140.9 651.17 136.06 653.96 130.84 655.87C124.98 658.04 119.83 661.71 113.98 663.89C108.49 665.87 103.53 669.03 98.0201 670.97C84.8901 675.54 73.0901 683.19 59.9801 687.84C51.1501 690.91 42.9601 695.47 34.6301 699.66C28.6201 702.81 21.5201 703.67 16.1401 708.02C19.3401 711.84 24.2001 713.39 28.5101 715.58C39.5601 720.59 49.7901 727.18 60.8001 732.3C69.0601 737.02 77.4701 741.47 85.7601 746.14C99.2201 752.67 112.46 759.65 125.9 766.22C138.02 772.84 150.22 779.31 162.48 785.66C182.66 797.17 203.73 807.01 224.36 817.66C231.6 821.84 239.12 825.53 246.5 829.45C252.18 832.38 257.34 836.23 263.17 838.88C271.06 842.49 278.44 847.11 286.36 850.68C297.79 856.59 309.51 861.95 320.67 868.36C325.34 871.14 330.43 873.1 335.09 875.87C341.38 879.73 348.26 882.51 354.47 886.51C361.37 889.86 368.11 893.52 374.83 897.23C381.12 891.07 389.59 888.2 397.21 884.15C404.8 880.51 411.69 875.56 419.39 872.12C423.84 870.16 427.54 866.93 431.77 864.59C438.1 861.25 444.08 857.26 450.68 854.43C459.64 848.98 468.48 843.27 477.94 838.7C482.29 836.52 486.04 833.32 490.41 831.15C496.14 828.3 501.31 824.41 507.23 821.91C512.36 819.74 516.49 815.9 521.29 813.16C528.23 809.45 535.33 806.02 542.12 802.04C549.24 796.39 557.58 792.7 565.49 788.34C570.91 786.02 575.01 781.54 580.43 779.23C585.39 777.02 589.97 774.09 594.81 771.64C601.85 768.22 607.63 762.68 614.91 759.67C625.73 754.94 634.85 747.2 645.6 742.33C651.55 739.07 657.11 735.14 663.11 731.95C669.38 727.63 676.73 725.25 682.93 720.81C690.34 716.49 697.53 711.75 705.34 708.17C710.32 705.8 713.99 701.49 718.77 698.81C724.17 695.67 730.03 693.03 734.32 688.34C740.62 681.61 745.29 673.52 749.33 665.29C753.21 658.84 753.95 651.04 753.62 643.67C748.05 642.48 742.65 640.59 737.27 638.75C732.23 637.07 727.93 633.7 722.76 632.35C716.91 630.75 711.44 628.06 705.66 626.26C700.37 624.56 695.74 621.27 690.37 619.82C681.18 617.54 672.54 613.58 663.76 610.12C658.31 607.64 652.2 607.01 646.89 604.16C641.15 601.15 634.75 599.77 628.9 597.04C623.24 594.32 616.76 593.93 611.26 590.84C605.22 587.41 598.43 585.83 592.06 583.18C586.76 581.64 581.31 580.32 576.63 577.26C571.41 573.65 564.73 573.95 559.23 570.95C546.43 566.03 534 560.13 520.88 556.1C516.1 554.49 511.78 551.84 507.12 549.96C497.78 546.29 488.24 543.12 479.07 539.06C473.13 536.45 466.75 534.99 460.93 532.08C454.94 529.03 448.3 527.57 442.23 524.69C433.12 521 423.93 517.5 414.65 514.26C409.86 512.38 404.78 507.19 399.43 510.38Z" fill="#8F8F8F"/>
<path d="M550.9 12.76C553.43 11.4 555.94 9.54001 558.96 9.62001C568.23 9.44001 576.93 13.2 585.94 14.81C593.67 16.04 601.14 18.54 608.96 19.26C616.45 21.07 623.92 22.97 631.26 25.3C641.37 26.74 651.08 30.01 661.14 31.69C664.68 32.37 668.15 33.36 671.63 34.28C677.01 35.73 682.64 36.09 687.95 37.85C693.22 39.62 698.96 39.42 704.11 41.65C709.6 43.97 715.68 43.78 721.41 45.22C737.05 49.05 752.7 52.78 768.45 56.1C775.15 57.01 781.46 59.62 788.16 60.52C793.37 61.18 798.22 63.35 803.39 64.25C812.37 65.67 821.13 68.15 830.05 69.88C836.64 72.49 843.8 72.75 850.51 74.95C858.12 76.87 866.02 77.53 873.47 80.13C884.48 82.14 895.31 85.02 906.25 87.41C912.43 89.29 919.04 89.25 925.08 91.63C929.21 93.14 933.69 93.35 937.79 94.99C936.22 96.73 934.32 98.11 932.26 99.18C932.34 97.94 932.46 96.7 932.59 95.47C926.01 94.47 920.16 90.63 913.41 90.5C906.6 90.42 900.35 87.42 893.71 86.38C887.59 85.43 881.88 82.77 875.69 82.14C869.92 81.5 864.53 79.04 858.75 78.46C855.04 78.07 851.28 77.64 847.85 76.1C842.53 73.66 836.49 74.08 831.05 72.07C824.68 69.75 817.75 69.83 811.36 67.6C805.56 65.63 799.31 65.6 793.57 63.44C787.51 61.22 780.9 61.44 774.83 59.26C769.15 57.16 762.96 57.48 757.24 55.62C749.75 52.8 741.6 52.76 734.08 50.04C725.38 48.51 716.97 45.68 708.21 44.48C703.72 43.68 699.66 41.31 695.1 40.8C690.95 40.28 686.81 39.57 682.82 38.28C676.87 36.37 670.45 36.64 664.58 34.4C658.32 32.09 651.48 32.25 645.22 29.91C639.35 27.72 632.89 28.18 627.03 25.98C624.1 24.96 621.04 24.43 617.98 24.01C612.15 23.41 607.11 19.74 601.17 19.7C594.64 19.54 588.66 16.68 582.29 15.67C573.39 14.42 564.84 9.39001 555.64 11.72C552.8 12.2 551.87 15.26 551.7 17.74C566.51 19.07 580.48 24.53 595.08 27.01C602.08 28.12 608.78 30.62 615.84 31.45C622.88 32.88 629.75 35.01 636.81 36.41C645.52 39.27 654.7 40.05 663.53 42.45C671.48 44.06 679.23 46.59 687.26 47.89C694.43 49 701.26 51.6 708.43 52.79C717.48 54.98 726.66 56.62 735.6 59.28C741.88 60.54 748.22 61.6 754.31 63.65C764.45 65.8 774.69 67.59 784.69 70.33C792.45 72.84 800.65 73.35 808.49 75.53C818.36 77.64 828.01 80.72 838.01 82.2C847.93 84.77 857.96 86.87 867.95 89.13C874.26 90.4 880.31 92.76 886.72 93.57C893.61 94.48 900.12 97.11 907 98.1C911.64 98.77 916.05 100.39 920.6 101.43C924.65 102.43 928.53 100.48 932.26 99.18C925.15 104.57 920.92 112.56 915.07 119.11C910.56 124.52 907.96 131.17 903.98 136.94C898.92 144.45 894.95 152.6 890.48 160.45C884.99 167.59 881.49 175.94 876.75 183.55C871.73 191.71 866.89 200.01 862.5 208.54C859.83 213.4 856.25 217.71 853.8 222.7C850 230.39 844.88 237.3 840.93 244.9C836.34 252.34 832.76 260.38 827.48 267.38C822.54 276.38 817.56 285.35 812.12 294.07C806.14 305.24 798.45 315.44 793.04 326.92C790.44 332.44 786.27 337 783.53 342.44C781.06 347.25 778.25 351.87 775.64 356.6C774.39 358.76 773.07 361.03 770.94 362.44C765.39 360.97 759.84 359.38 754.37 357.66C749.85 355.29 744.55 355.37 740.02 353.06C736.19 351.21 731.82 350.99 728.03 349.04C724.81 347.41 721.14 347.27 717.7 346.44C708.76 343.91 700.22 340.13 691.18 337.96C687.69 337.07 684.63 334.89 681 334.5C678.45 334.16 675.87 333.71 673.63 332.39C669.95 330.18 665.49 330.23 661.7 328.34C657.08 325.86 651.6 326.42 646.86 324.31C639.26 321.89 631.89 318.73 624.08 317.05C622.07 316.56 620.24 315.61 618.39 314.75C614.68 312.86 610.14 313.79 606.63 311.39C602.97 309.04 598.33 309.58 594.62 307.39C590.87 305.14 586.32 305.39 582.35 303.75C577.44 301.67 572.1 300.99 567.17 298.99C562.48 297.02 557.35 296.41 552.69 294.38C548.55 292.57 543.96 292.16 539.88 290.2C536.02 288.19 531.38 288.66 527.63 286.4C523.89 284 519.21 284.6 515.26 282.77C510.64 280.7 505.57 280.06 500.85 278.31C496.42 276.69 491.87 275.4 487.47 273.7C482.75 271.78 477.51 271.52 472.97 269.14C469.1 267.07 464.38 267.76 460.63 265.39C456.93 263.19 452.4 263.44 448.58 261.52C444.87 259.71 440.7 259.42 436.77 258.34C429.51 256.12 422.5 253.13 415.16 251.18C409.64 250.05 404.57 247.53 399.26 245.73C397.82 245.38 397.4 243.64 398.57 242.71C406.12 232.35 411.92 220.87 419.28 210.38C424.35 202.37 429.06 194.14 434.17 186.17C439.21 179.36 442.97 171.74 447.63 164.69C451.45 159.11 454.34 152.94 458.46 147.56C464.99 137.37 471.12 126.94 477.62 116.73C486.19 103.84 493.73 90.3 502.32 77.43C511.34 62.49 520.86 47.87 529.85 32.92C532.66 27.02 538.07 23.16 542.2 18.29C544.48 15.59 547.93 14.48 550.9 12.76Z" fill="#C4C4C4"/>
<path d="M940.01 103.98C944.32 101.91 948.87 97.57 953.95 99.92C959.41 102.46 963.3 107.36 967.14 111.85C973.86 121.1 981.13 129.94 987.73 139.27C993.68 146.07 998.94 153.42 1004.36 160.65C1013.47 171.65 1021.74 183.31 1030.28 194.75C1034.66 200.07 1039.44 205.1 1043.1 210.98C1046.06 215.87 1050.42 219.68 1053.67 224.38C1056.41 228.25 1059.46 231.89 1062.27 235.71C1063.18 236.93 1063.82 238.39 1063.65 239.96C1063.25 249.69 1060.58 259.21 1060.68 268.99C1060.69 276.39 1059.85 283.74 1059.15 291.1C1058.39 299.49 1056.45 307.76 1056.56 316.23C1056 328.19 1054.76 340.14 1052.91 351.97C1052.24 366.08 1051.73 380.28 1049.23 394.22C1047.89 403.89 1048.33 413.72 1046.79 423.37C1045.95 430.62 1043.16 437.6 1043.39 444.98C1043.48 458.54 1043.78 472.28 1040.75 485.59C1039.08 499.68 1040.03 514.07 1037.04 528.01C1035.84 533.94 1035.8 540.01 1035.65 546.04C1035.55 552.7 1034.6 559.31 1034.29 565.97C1033.99 572.71 1031.84 579.21 1031.62 585.97C1031.21 597.19 1030.48 608.42 1029.26 619.58C1026.61 630.87 1027.46 642.54 1026.16 653.99C1025.78 663.65 1022.71 672.96 1022.67 682.65C1022.66 693.92 1021.77 705.19 1019.61 716.26C1017.65 725.89 1019.03 735.76 1017.71 745.46C1016.82 756 1014.06 766.37 1014.4 777.01C1014.23 789.8 1012.4 802.5 1010.53 815.13C1010.48 827.62 1009.52 840.12 1007.63 852.47C1005.7 860.12 1006.74 868.04 1005.81 875.8C1004.89 884.14 1004.79 892.59 1003.05 900.83C1002.52 903.51 1002.28 906.24 1002.24 908.97C1002.22 916.35 1001.4 923.68 1001.18 931.05C1000.88 933.12 1001.14 935.79 999.16 937.12C992.79 941.79 986.91 947.1 980.23 951.36C966.58 961.72 952.52 971.52 938.91 981.94C932.46 987.22 925.39 991.67 918.94 996.95C911.4 1002.41 904.27 1008.41 896.5 1013.54C891.75 1016.71 887.71 1020.81 883 1024.03C875.34 1028.94 868.7 1035.22 861.03 1040.13C853.98 1046.15 846.02 1050.97 839.01 1057.04C834.78 1060.53 829.95 1063.21 825.75 1066.74C819.41 1072.18 812.25 1076.54 805.85 1081.91C798.81 1087.18 791.48 1092.07 784.75 1097.76C777.46 1102.35 771.21 1108.32 764.04 1113.07C754.98 1119.67 746.26 1126.73 737.13 1133.23C730.48 1137.41 724.89 1143.01 718.44 1147.47C710.76 1152.72 703.76 1158.88 696.07 1164.09C691.5 1167.12 687.48 1170.88 683 1174.03C675.75 1178.67 669.54 1184.7 662.28 1189.34C654.23 1196.07 645.33 1201.64 637.28 1208.37C630.86 1212.89 624.68 1217.71 618.45 1222.48C611.12 1227.43 604.52 1233.35 597.15 1238.24C591.4 1242.06 586.43 1246.91 580.66 1250.7C575.06 1254.35 570.37 1259.21 564.63 1262.66C559.92 1265.51 556.12 1269.58 551.56 1272.63C543.98 1277.62 537.31 1283.83 529.75 1288.85C511.45 1302.51 493.45 1316.58 474.93 1329.95C468.88 1335.35 461.82 1339.41 455.64 1344.66C450.54 1348.93 444.65 1352.18 439.74 1356.71C434.64 1361.41 428.55 1364.83 423.24 1369.28C417.94 1373.69 412.17 1377.51 406.87 1381.94C404.49 1383.97 401.84 1385.72 398.88 1386.8C396.55 1381.53 398.05 1375.69 397.38 1370.16C396.32 1359.8 395.22 1349.42 395.63 1338.99C395.21 1323.66 396.38 1308.27 394.62 1293.01C394.32 1287.11 394.93 1281.19 394.29 1275.31C392.95 1262.57 392.56 1249.77 391.58 1237.01C391.74 1225.33 391.27 1213.66 391.61 1202C391.88 1195.29 390.46 1188.68 390.54 1182C390.37 1173.68 391.07 1165.29 389.54 1157.07C387.39 1145.16 387.53 1133.03 387.6 1120.98C387.81 1113.73 386.68 1106.52 387.16 1099.28C386.47 1091.53 386.56 1083.76 386.64 1076C386.82 1069.97 385.49 1064.02 385.6 1058C385.7 1052.96 384.81 1048 384.57 1043C384.45 1032.8 383.41 1022.65 383.35 1012.45C382.09 1003.66 383.78 994.82 382.82 986.02C382.27 979 382.84 971.97 382.55 964.95C382.4 960.96 381.61 957.01 381.6 953.02C381.74 943.97 380.34 935 379.92 925.98C379.88 922.88 380.67 919.78 380.07 916.71C379.33 912.34 377.82 907.74 379.37 903.39C385.31 897.89 393.22 895.24 400.04 891.02C408.88 885.33 418.07 880.21 427.42 875.39C436.59 869.73 445.81 864.11 455.5 859.37C465.07 853.49 474.66 847.62 484.72 842.61C494.19 836.99 503.57 831.19 513.45 826.31C524.61 819.34 536.08 812.87 547.65 806.6C554.79 802.34 561.79 797.82 569.29 794.19C576.11 790.95 581.9 785.95 588.7 782.65C595.3 778.92 602.33 775.91 608.54 771.52C616.81 765.8 626.35 762.25 634.69 756.67C641.14 751.76 648.73 748.76 655.6 744.54C662.46 741.31 668.29 736.31 675.2 733.18C683.94 728.82 692.04 723.31 700.37 718.23C715.7 710.28 731.62 702.4 743.59 689.63C747.25 685.26 750.66 680.68 754.2 676.21C757.36 672.28 758.2 667.15 760.57 662.78C763.28 656.45 766.41 650.03 766.68 643.02C767.3 636.82 768.83 630.75 769.27 624.53C770.07 617.4 769.09 610.21 769.94 603.09C771.16 594.11 770.29 585.04 770.58 576.03C770.87 564.7 769.83 553.27 771.8 542.05C772.96 535.82 772.18 529.45 773 523.2C774.19 515.07 772.96 506.82 774.3 498.7C774.98 486.15 774.34 473.56 774.64 460.99C774.18 446.61 776.53 432.34 776.74 417.97C777.15 411.29 778.69 404.71 778.57 397.99C778.45 390.66 778.66 383.33 778.51 375.99C778.48 373.25 778.5 370.38 779.91 367.93C788.82 351.11 798.92 334.95 808.52 318.52C812.13 313.02 814.5 306.79 818.48 301.53C823.23 295.24 825.6 287.58 830.2 281.2C834.96 273.26 839.7 265.31 844.02 257.11C846.86 252.05 850.78 247.63 853.1 242.26C855.79 236.17 859.87 230.87 863 225.02C865.91 219.65 869.49 214.67 872.15 209.16C874.43 204.34 877.96 200.28 880.6 195.66C889.58 179.14 899.35 163.08 908.93 146.9C912.1 141.97 914.38 136.52 917.76 131.71C920.98 127.19 923.13 121.99 926.66 117.67C930.64 112.7 934 106.8 940.01 103.98Z" fill="#C4C4C4"/>
<path d="M399.43 510.38C404.78 507.19 409.86 512.38 414.65 514.26C423.93 517.5 433.12 521 442.23 524.69C448.3 527.57 454.94 529.03 460.93 532.08C466.75 534.99 473.13 536.45 479.07 539.06C488.24 543.12 497.78 546.29 507.12 549.96C511.78 551.84 516.1 554.49 520.88 556.1C534 560.13 546.43 566.03 559.23 570.95C564.73 573.95 571.41 573.65 576.63 577.26C581.31 580.32 586.76 581.64 592.06 583.18C598.43 585.83 605.22 587.41 611.26 590.84C616.76 593.93 623.24 594.32 628.9 597.04C634.75 599.77 641.15 601.15 646.89 604.16C652.2 607.01 658.31 607.64 663.76 610.12C672.54 613.58 681.18 617.54 690.37 619.82C695.74 621.27 700.37 624.56 705.66 626.26C711.44 628.06 716.91 630.75 722.76 632.35C727.93 633.7 732.23 637.07 737.27 638.75C742.65 640.59 748.05 642.48 753.62 643.67C753.95 651.04 753.21 658.84 749.33 665.29C745.29 673.52 740.62 681.61 734.32 688.34C730.03 693.03 724.17 695.67 718.77 698.81C713.99 701.49 710.32 705.8 705.34 708.17C697.53 711.75 690.34 716.49 682.93 720.81C676.73 725.25 669.38 727.63 663.11 731.95C657.11 735.14 651.55 739.07 645.6 742.33C634.85 747.2 625.73 754.94 614.91 759.67C607.63 762.68 601.85 768.22 594.81 771.64C589.97 774.09 585.39 777.02 580.43 779.23C575.01 781.54 570.91 786.02 565.49 788.34C557.58 792.7 549.24 796.39 542.12 802.04C535.33 806.02 528.23 809.45 521.29 813.16C516.49 815.9 512.36 819.74 507.23 821.91C501.31 824.41 496.14 828.3 490.41 831.15C486.04 833.32 482.29 836.52 477.94 838.7C468.48 843.27 459.64 848.98 450.68 854.43C444.08 857.26 438.1 861.25 431.77 864.59C427.54 866.93 423.84 870.16 419.39 872.12C411.69 875.56 404.8 880.51 397.21 884.15C389.59 888.2 381.12 891.07 374.83 897.23C368.11 893.52 361.37 889.86 354.47 886.51C348.26 882.51 341.38 879.73 335.09 875.87C330.43 873.1 325.34 871.14 320.67 868.36C309.51 861.95 297.79 856.59 286.36 850.68C278.44 847.11 271.06 842.49 263.17 838.88C257.34 836.23 252.18 832.38 246.5 829.45C239.12 825.53 231.6 821.84 224.36 817.66C203.73 807.01 182.66 797.17 162.48 785.66C150.22 779.31 138.02 772.84 125.9 766.22C112.46 759.65 99.2199 752.67 85.7599 746.14C77.4699 741.47 69.0599 737.02 60.7999 732.3C49.7899 727.18 39.5599 720.59 28.5099 715.58C24.1999 713.39 19.3399 711.84 16.1399 708.02C21.5199 703.67 28.6199 702.81 34.6299 699.66C42.9599 695.47 51.1499 690.91 59.9799 687.84C73.0899 683.19 84.8899 675.54 98.0199 670.97C103.53 669.03 108.49 665.87 113.98 663.89C119.83 661.71 124.98 658.04 130.84 655.87C136.06 653.96 140.9 651.17 146.08 649.18C158.4 644.56 169.79 637.79 182.06 633.05C193.02 629.21 203.03 623.18 213.76 618.79C220.12 616.3 226 612.79 232.41 610.43C243.92 605.89 254.53 599.36 266.22 595.25C277.9 591.04 288.51 584.38 300.16 580.08C303.43 578.84 306.51 577.18 309.6 575.56C313.88 573.31 318.69 572.32 322.94 570.01C331.84 565.3 340.9 560.86 350.38 557.44C355.44 555.65 360.21 553.17 365.13 551.05C369.31 549.41 371.6 544.56 376.38 544.21C373.38 547.3 370.51 550.79 366.37 552.38C357.66 555.9 349.23 560.09 340.47 563.51C332.24 566.7 324.73 571.47 316.49 574.63C310.35 576.98 304.67 580.36 298.52 582.7C291.02 585.59 283.96 589.44 276.61 592.67C267.04 597.22 256.99 600.68 247.52 605.44C238.69 609.82 229.45 613.26 220.68 617.75C214.59 620.75 208.14 622.97 202.09 626.06C193.24 630.5 184.06 634.21 174.91 637.98C166.5 641.35 158.66 645.96 150.25 649.32C143.17 652.22 136.27 655.56 129.15 658.37C123.24 661.12 117.63 664.5 111.45 666.67C98.5599 672.96 85.1299 678.04 72.2399 684.34C64.5199 688.22 56.3699 691.12 48.4899 694.63C41.8099 697.54 35.6599 701.62 28.6599 703.8C25.2599 704.83 21.9499 706.32 19.3799 708.85C24.5299 712.18 30.2599 714.39 35.6799 717.24C50.8799 725.4 66.1799 733.38 81.2899 741.71C90.8099 747.49 101.12 751.79 110.91 757.08C123.9 763.21 136.35 770.39 149.17 776.87C158.55 782.28 168.41 786.77 177.74 792.28C196.25 802.28 215.5 810.87 233.87 821.15C241.3 824.9 248.65 828.81 255.77 833.12C265.11 837.74 274.08 843.08 283.53 847.48C296.81 854.12 310.2 860.56 323.11 867.9C335.71 874.15 347.86 881.25 360.38 887.67C364.53 889.73 368.44 892.83 373.19 893.3C377.89 892.93 381.86 889.96 386.05 888.06C392.03 885.25 397.68 881.82 403.1 878.05C412.19 871.76 422.84 868.2 431.84 861.77C436.86 858.21 442.3 855.33 447.89 852.77C453.62 850.13 458.78 846.48 464.04 843.04C471.43 838.11 480.03 835.36 487.38 830.34C492.84 826.63 498.43 823.06 504.48 820.35C509.12 818.27 513.37 815.47 517.41 812.4C525.81 806.35 536.17 803.72 544.37 797.35C553.22 790.3 564.48 787.29 573.53 780.52C582.32 773.79 593.29 770.76 602.18 764.17C610.7 757.49 621.39 754.47 630.09 748.05C638.35 741.87 648.35 738.69 656.7 732.66C665.11 726.7 674.99 723.34 683.44 717.47C689.75 713.19 696.49 709.6 703.33 706.25C711.93 702.14 719.23 695.86 727.79 691.67C730.77 690.43 731.97 687.36 733.08 684.59C729.66 684.81 726.1 684.73 723.06 682.96C717.94 680.04 711.85 680.04 706.57 677.57C701.53 675.28 696.64 672.66 691.53 670.51C686.97 668.57 682.06 667.58 677.54 665.55C672.72 663.37 668.12 660.75 663.3 658.61C657.45 655.92 650.86 655.11 645.35 651.65C640.26 648.51 634.21 647.76 628.84 645.29C620.95 641.77 613.31 637.65 605.11 634.86C594.54 631.16 585.11 624.71 574.29 621.67C568.17 619.89 562.92 616.01 556.73 614.41C547.08 611.9 539.04 605.58 529.56 602.67C518.15 599.56 508.35 592.52 497.07 589.05C490.13 587.09 484.06 583.01 477.23 580.78C470.28 578.38 463.6 575.29 457.12 571.84C451.84 569.03 445.8 568.22 440.4 565.7C433.54 562.55 426.94 558.75 419.71 556.48C415.53 555.19 411.49 553.48 407.64 551.41C402.64 548.74 397.1 547.4 391.96 545.11C388.44 543.55 384.89 542.07 381.32 540.64C384.94 534.02 389.59 528.06 393.71 521.76C396.13 518.19 394.97 512.51 399.43 510.38Z" fill="#C4C4C4"/>
</svg>
