<svg width="648" height="739" viewBox="0 0 648 739" xmlns="http://www.w3.org/2000/svg">
<path d="M324.2 40.2L80.9 177.3C58.1 190.2 43.9 214.3 43.9 240.5V266.7V537.1L324.2 695L604.5 537.1V266.7V240.5C604.5 214.3 590.4 190.1 567.5 177.3L324.2 40.2ZM573.3 278V518.3L324.2 658.6L75.2 518.2V278V259.5C75.2 233.3 89.3 209.1 112.2 196.3L324.2 76.7L536.3 196.2C559.1 209.1 573.3 233.2 573.3 259.4V278Z" fill="#AEAEAE" stroke="black" stroke-width="12" stroke-miterlimit="10"/>
<path d="M324.8 352.9C356.4 352.6 382.6 327 383.6 295.4C383.8 288.3 382.8 281.5 380.7 275.2C373 251.4 350.6 234.2 324.2 234.2C297.8 234.2 275.4 251.4 267.7 275.2C265.8 281 264.8 287.2 264.8 293.6C264.8 326.5 291.7 353.2 324.8 352.9Z" fill="#FF0000" stroke="black" stroke-width="12" stroke-miterlimit="10"/>
<path d="M75.2 259.4V476.4L267.7 278C275.4 254.2 297.8 237 324.2 237C350.6 237 373 254.2 380.7 278L573.3 476.4V259.4C573.3 233.2 559.2 209 536.3 196.2L324.2 76.7L112.1 196.2C89.3 209 75.2 233.2 75.2 259.4Z" fill="#FFCC00" stroke="black" stroke-width="12" stroke-miterlimit="10"/>
<path d="M383.6 296.3C383.6 329.3 356.6 356.1 323.6 355.7C292 355.4 265.9 329.8 264.9 298.2C264.9 297.6 264.9 296.9 264.9 296.3C264.9 286.2 264.6 283.9 246.9 278L149 249.7C111.7 235.1 75.3 303.4 75.3 334.8V518.3L324.4 658.6L573.5 518.3V334.7C573.5 303.4 542.3 235 499.8 249.6L401.8 277.9C385.3 282.3 383.9 286.1 383.9 296.1C383.6 296.2 383.6 296.2 383.6 296.3Z" fill="#247B0A" stroke="black" stroke-width="12" stroke-miterlimit="10"/>
</svg>
