<svg width="420" height="451" viewBox="0 0 420 451" fill="none" xmlns="http://www.w3.org/2000/svg">
<path d="M387.9 182.2L412.9 138.9L386.5 93.1H336.5L311.5 49.8H261.5L236.5 6.5H183.6L158.6 49.8H108.6L83.6 93.1H33.6L7.19995 138.9L32.2 182.2L7.19995 225.5L32.2 268.8L7.19995 312.1L33.6 357.9H83.6L108.6 401.2H158.6L183.6 444.5H236.5L261.5 401.2H311.5L336.5 357.9H386.5L412.9 312.1L387.9 268.8L412.9 225.5L387.9 182.2ZM158.6 309.6H111.5L87.8999 268.8L111.5 228H158.6L182.2 268.8L158.6 309.6ZM162.9 225.5L186.5 184.7H233.6L257.2 225.5L233.6 266.3H186.5L162.9 225.5ZM261.4 223L237.8 182.2L261.4 141.4H308.5L332.1 182.2L308.6 223H261.4ZM162.9 138.9L186.5 98.1H233.6L257.2 138.9L233.6 179.7H186.5L162.9 138.9ZM158.6 223H111.5L87.8999 182.2L111.5 141.4H158.6L182.2 182.2L158.6 223ZM162.9 312.1L186.5 271.3H233.6L257.2 312.1L233.6 352.9H186.5L162.9 312.1ZM261.4 309.6L237.8 268.8L261.4 228H308.5L332.1 268.8L308.5 309.6H261.4ZM336.4 266.3L312.8 225.5L336.4 184.7H383.5L407.1 225.5L383.5 266.3H336.4ZM407.1 138.9L383.5 179.7H336.4L312.8 138.9L336.4 98.1H383.5L407.1 138.9ZM261.4 54.8H308.5L332.1 95.6L308.5 136.4H261.4L237.8 95.6L261.4 54.8ZM233.6 93.1H186.5L162.9 52.3L186.5 11.5H233.6L257.2 52.3L233.6 93.1ZM158.6 136.4H111.5L87.8999 95.6L111.5 54.8H158.6L182.2 95.6L158.6 136.4ZM107.1 138.9L83.5 179.7H36.4L12.8 138.9L36.4 98.1H83.5L107.1 138.9ZM107.1 225.5L83.5 266.3H36.4L12.8 225.5L36.4 184.7H83.5L107.1 225.5ZM107.1 312.1L83.5 352.9H36.4L12.8 312.1L36.4 271.3H83.5L107.1 312.1ZM158.6 396.2H111.5L87.8999 355.4L111.5 314.6H158.6L182.2 355.4L158.6 396.2ZM233.6 439.5H186.5L162.9 398.7L186.5 357.9H233.6L257.2 398.7L233.6 439.5ZM308.6 396.2H261.5L237.9 355.4L261.5 314.6H308.6L332.2 355.4L308.6 396.2ZM383.6 352.9H336.5L312.9 312.1L336.5 271.3H383.6L407.2 312.1L383.6 352.9Z" fill="black" stroke="#231F20" stroke-width="12" stroke-miterlimit="10"/>
</svg>
