<svg width="406" height="439" viewBox="0 0 406 439" fill="none" xmlns="http://www.w3.org/2000/svg">
<path d="M380.9 176.2L405.9 132.9L379.5 87.1H329.5L304.5 43.8H254.5L229.5 0.5H176.6L151.6 43.8H101.6L76.6 87.1H26.6L0.199997 132.9L25.2 176.2L0.199997 219.5L25.2 262.8L0.199997 306.1L26.6 351.9H76.6L101.6 395.2H151.6L176.6 438.5H229.5L254.5 395.2H304.5L329.5 351.9H379.5L405.9 306.1L380.9 262.8L405.9 219.5L380.9 176.2ZM151.6 303.6H104.5L80.9 262.8L104.5 222H151.6L175.2 262.8L151.6 303.6ZM155.9 219.5L179.5 178.7H226.6L250.2 219.5L226.6 260.3H179.5L155.9 219.5ZM254.4 217L230.8 176.2L254.4 135.4H301.5L325.1 176.2L301.6 217H254.4ZM155.9 132.9L179.5 92.1H226.6L250.2 132.9L226.6 173.7H179.5L155.9 132.9ZM151.6 217H104.5L80.9 176.2L104.5 135.4H151.6L175.2 176.2L151.6 217ZM155.9 306.1L179.5 265.3H226.6L250.2 306.1L226.6 346.9H179.5L155.9 306.1ZM254.4 303.6L230.8 262.8L254.4 222H301.5L325.1 262.8L301.5 303.6H254.4ZM329.4 260.3L305.8 219.5L329.4 178.7H376.5L400.1 219.5L376.5 260.3H329.4ZM400.1 132.9L376.5 173.7H329.4L305.8 132.9L329.4 92.1H376.5L400.1 132.9ZM254.4 48.8H301.5L325.1 89.6L301.5 130.4H254.4L230.8 89.6L254.4 48.8ZM226.6 87.1H179.5L155.9 46.3L179.5 5.5H226.6L250.2 46.3L226.6 87.1ZM151.6 130.4H104.5L80.9 89.6L104.5 48.8H151.6L175.2 89.6L151.6 130.4ZM100.1 132.9L76.5 173.7H29.4L5.8 132.9L29.4 92.1H76.5L100.1 132.9ZM100.1 219.5L76.5 260.3H29.4L5.8 219.5L29.4 178.7H76.5L100.1 219.5ZM100.1 306.1L76.5 346.9H29.4L5.8 306.1L29.4 265.3H76.5L100.1 306.1ZM151.6 390.2H104.5L80.9 349.4L104.5 308.6H151.6L175.2 349.4L151.6 390.2ZM226.6 433.5H179.5L155.9 392.7L179.5 351.9H226.6L250.2 392.7L226.6 433.5ZM301.6 390.2H254.5L230.9 349.4L254.5 308.6H301.6L325.2 349.4L301.6 390.2ZM376.6 346.9H329.5L305.9 306.1L329.5 265.3H376.6L400.2 306.1L376.6 346.9Z" fill="black"/>
</svg>
